<svg width="24" height="25" viewBox="0 0 24 25" fill="none" xmlns="http://www.w3.org/2000/svg">
<path d="M21 6.5H18C18 4.9087 17.3679 3.38258 16.2426 2.25736C15.1174 1.13214 13.5913 0.5 12 0.5C10.4087 0.5 8.88258 1.13214 7.75736 2.25736C6.63214 3.38258 6 4.9087 6 6.5H3C2.20435 6.5 1.44129 6.81607 0.87868 7.37868C0.31607 7.94129 0 8.70435 0 9.5L0 19.5C0.00158786 20.8256 0.528882 22.0964 1.46622 23.0338C2.40356 23.9711 3.67441 24.4984 5 24.5H14C14.2652 24.5 14.5196 24.3946 14.7071 24.2071C14.8946 24.0196 15 23.7652 15 23.5C15 23.2348 14.8946 22.9804 14.7071 22.7929C14.5196 22.6054 14.2652 22.5 14 22.5H5C4.20435 22.5 3.44129 22.1839 2.87868 21.6213C2.31607 21.0587 2 20.2956 2 19.5V9.5C2 9.23478 2.10536 8.98043 2.29289 8.79289C2.48043 8.60536 2.73478 8.5 3 8.5H6V10.5C6 10.7652 6.10536 11.0196 6.29289 11.2071C6.48043 11.3946 6.73478 11.5 7 11.5C7.26522 11.5 7.51957 11.3946 7.70711 11.2071C7.89464 11.0196 8 10.7652 8 10.5V8.5H16V10.5C16 10.7652 16.1054 11.0196 16.2929 11.2071C16.4804 11.3946 16.7348 11.5 17 11.5C17.2652 11.5 17.5196 11.3946 17.7071 11.2071C17.8946 11.0196 18 10.7652 18 10.5V8.5H21C21.2652 8.5 21.5196 8.60536 21.7071 8.79289C21.8946 8.98043 22 9.23478 22 9.5V14.5C22 14.7652 22.1054 15.0196 22.2929 15.2071C22.4804 15.3946 22.7348 15.5 23 15.5C23.2652 15.5 23.5196 15.3946 23.7071 15.2071C23.8946 15.0196 24 14.7652 24 14.5V9.5C24 8.70435 23.6839 7.94129 23.1213 7.37868C22.5587 6.81607 21.7956 6.5 21 6.5ZM8 6.5C8 5.43913 8.42143 4.42172 9.17157 3.67157C9.92172 2.92143 10.9391 2.5 12 2.5C13.0609 2.5 14.0783 2.92143 14.8284 3.67157C15.5786 4.42172 16 5.43913 16 6.5H8Z" fill="#CA354F"/>
</svg>
