<svg width="24" height="24" viewBox="0 0 24 24" fill="none" xmlns="http://www.w3.org/2000/svg">
<g clip-path="url(#clip0_175_1953)">
<path d="M23.12 9.91088L19.25 6.00088C19.157 5.90715 19.0464 5.83275 18.9246 5.78198C18.8027 5.73122 18.672 5.70508 18.54 5.70508C18.408 5.70508 18.2773 5.73122 18.1554 5.78198C18.0336 5.83275 17.923 5.90715 17.83 6.00088C17.6437 6.18824 17.5392 6.44169 17.5392 6.70588C17.5392 6.97006 17.6437 7.22351 17.83 7.41088L21.39 11.0009H1C0.734784 11.0009 0.48043 11.1062 0.292893 11.2938C0.105357 11.4813 0 11.7357 0 12.0009H0C0 12.2661 0.105357 12.5204 0.292893 12.708C0.48043 12.8955 0.734784 13.0009 1 13.0009H21.45L17.83 16.6109C17.7363 16.7038 17.6619 16.8144 17.6111 16.9363C17.5603 17.0582 17.5342 17.1889 17.5342 17.3209C17.5342 17.4529 17.5603 17.5836 17.6111 17.7055C17.6619 17.8273 17.7363 17.9379 17.83 18.0309C17.923 18.1246 18.0336 18.199 18.1554 18.2498C18.2773 18.3005 18.408 18.3267 18.54 18.3267C18.672 18.3267 18.8027 18.3005 18.9246 18.2498C19.0464 18.199 19.157 18.1246 19.25 18.0309L23.12 14.1509C23.6818 13.5884 23.9974 12.8259 23.9974 12.0309C23.9974 11.2359 23.6818 10.4734 23.12 9.91088Z" fill="black"/>
</g>
<defs>
<clipPath id="clip0_175_1953">
<rect width="24" height="24" fill="white"/>
</clipPath>
</defs>
</svg>
