<svg width="24" height="24" viewBox="0 0 24 24" fill="none" xmlns="http://www.w3.org/2000/svg">
<path d="M0.879313 14.0889L4.74931 17.9989C4.84228 18.0927 4.95288 18.167 5.07474 18.2178C5.1966 18.2686 5.3273 18.2947 5.45931 18.2947C5.59133 18.2947 5.72203 18.2686 5.84389 18.2178C5.96575 18.167 6.07635 18.0927 6.16931 17.9989C6.26304 17.906 6.33744 17.7954 6.3882 17.6735C6.43897 17.5516 6.46511 17.4209 6.46511 17.2889C6.46511 17.1569 6.43897 17.0262 6.3882 16.9043C6.33744 16.7825 6.26304 16.6719 6.16931 16.5789L2.60931 12.9989H22.9993C23.2645 12.9989 23.5189 12.8936 23.7064 12.706C23.894 12.5185 23.9993 12.2641 23.9993 11.9989C23.9993 11.7337 23.894 11.4794 23.7064 11.2918C23.5189 11.1043 23.2645 10.9989 22.9993 10.9989H2.54931L6.16931 7.37892C6.3466 7.19295 6.4455 6.94586 6.4455 6.68892C6.4455 6.43198 6.3466 6.1849 6.16931 5.99892C6.07635 5.90519 5.96575 5.8308 5.84389 5.78003C5.72203 5.72926 5.59133 5.70312 5.45931 5.70312C5.3273 5.70312 5.1966 5.72926 5.07474 5.78003C4.95288 5.8308 4.84228 5.90519 4.74931 5.99892L0.879313 9.84892C0.317511 10.4114 0.00195313 11.1739 0.00195312 11.9689C0.00195312 12.7639 0.317511 13.5264 0.879313 14.0889Z" fill="black"/>
</svg>
