<svg width="871.000000" height="871.000000" viewBox="0 0 871 871" fill="none" xmlns="http://www.w3.org/2000/svg" xmlns:xlink="http://www.w3.org/1999/xlink">
	<desc>
			Created with Pixso.
	</desc>
	<defs/>
	<path d="M300.93 871C245.88 871 194.81 859.83 151.4 837.17C77.2 798.39 28.2 727.06 9.69 630.52C-10.1 526.8 0.59 412.86 40.01 309.46C81.03 201.75 151.09 113.19 237.26 60.05C314.82 12.18 411.69 -8.09 509.99 2.92C607.82 13.93 697.98 54.78 763.57 118.29C878.47 229.2 902.09 371.69 830.12 519.46C771.39 640.41 652.66 754.67 520.36 817.7C446.32 853.12 370.52 871 300.93 871ZM457.81 21.43C381.68 21.43 308.76 41.06 248.11 78.4C165.77 129.14 98.74 214.04 59.48 317.28C21.66 416.85 11.29 526.64 30.28 626.37C47.67 717.49 91.56 781.95 160.82 818.02C251.94 865.57 386.31 857.91 511.43 798.23C639.58 737.11 754.48 626.53 811.45 509.72C859.17 411.75 887.25 266.85 749.21 133.77C686.81 73.61 600.96 34.68 507.6 24.15C491.16 22.39 474.4 21.43 457.81 21.43ZM297.58 842.27C248.59 842.27 203.11 832.22 164.49 812.11C98.74 777.81 55.33 714.45 38.9 629.24C21.34 537.65 30.6 436.8 65.07 345.21C74.96 319.04 86.77 293.82 100.34 270.05C136.08 207.97 184.28 156.75 239.65 122.28C308.6 79.2 394.77 60.69 482.06 69.94C568.72 79.36 648.67 115.26 706.92 171.27C760.86 223.13 792.14 282.18 800.28 346.8C807.46 403.93 796.29 464.41 767.24 526.32C715.38 636.74 609.41 739.99 490.68 795.68C425.57 826.63 358.86 842.27 297.58 842.27ZM438.02 86.86C369.72 86.86 303.97 104.73 249.71 138.72C196.89 171.59 150.92 220.42 116.77 279.78C103.69 302.44 92.2 326.85 82.78 352.07C49.43 440.31 40.33 537.33 57.41 625.41C72.89 705.84 111.83 762.96 173.11 794.88C254.82 837.64 370.67 831.26 483.02 778.12C596.17 724.99 701.18 622.86 750.49 517.86C791.66 430.42 815.12 301.64 694.15 185.31C638.78 132.18 562.81 98.03 480.15 89.09C466.11 87.66 451.9 86.86 438.02 86.86ZM294.07 813.23C250.99 813.23 210.93 804.45 177.1 786.74C120.12 756.74 82.3 701.85 67.94 627.97C52.46 548.5 60.28 460.74 90.12 380.79C98.58 357.81 108.95 335.63 120.76 314.73C151.72 260.15 193.69 215 242.21 184.36C302.53 146.06 377.85 129.3 454.3 136.96C529.94 144.78 599.52 175.9 650.43 224.41C761.82 331 741.39 451.16 704.69 533.18C660.16 632.43 566.96 724.51 461.48 773.5C404.83 799.99 347.06 813.23 294.07 813.23ZM418.07 152.28C357.43 152.28 299.18 168.4 250.99 198.88C204.86 228.08 164.81 271.01 135.28 323.18C123.95 343.13 114.06 364.51 105.92 386.69C77.2 463.61 69.7 548.02 84.54 624.46C98.1 694.03 131.93 743.5 184.92 771.42C255.77 808.6 356.63 803.66 454.62 758.02C556.75 710.63 646.76 621.74 689.52 526.16C724 449.25 743.31 336.59 639.1 237.02C590.9 191.06 524.67 161.54 452.7 154.2C441.05 152.92 429.56 152.28 418.07 152.28ZM290.56 784.35C253.38 784.35 218.91 776.69 189.86 761.37C141.51 735.84 109.43 689.24 96.99 626.53C83.74 559.19 90.12 484.51 115.18 416.37C122.36 396.59 130.98 377.44 141.03 359.41C167.2 312.33 202.95 273.24 244.44 246.59C296.31 212.92 360.94 197.92 426.37 204.14C490.68 210.21 550.05 236.38 593.77 277.55C667.82 348.08 684.42 438.87 641.81 540.2C604.63 628.45 524.19 709.51 431.79 751.64C384.08 773.34 335.41 784.35 290.56 784.35ZM397.8 217.71C345.14 217.71 294.39 232.07 252.42 259.2C213 284.57 178.85 321.91 153.8 366.75C144.22 384.14 135.77 402.49 128.9 421.48C104.8 487.07 98.58 558.87 111.35 623.5C123 682.38 151.72 724.35 196.57 748.12C256.57 779.72 342.27 775.89 425.89 737.91C513.66 697.86 593.14 618.07 628.4 534.3C668.94 437.92 653.94 355.26 583.88 288.56C542.55 249.46 486.21 224.89 425.09 218.98C416 218.19 406.9 217.71 397.8 217.71ZM287.21 755.47C255.93 755.47 227.05 749.08 202.95 736.16C163.21 714.93 136.72 676.64 126.19 625.09C115.02 570.04 120.12 508.61 140.23 451.8C146.14 435.04 153.32 418.93 161.46 403.93C182.84 364.35 212.52 331.32 247 308.5C290.4 279.62 344.18 266.22 398.6 270.85C451.9 275.31 501.06 296.38 537.28 330.36C598.4 387.65 612.44 460.42 579.09 546.9C549.25 624.3 481.59 694.19 402.43 729.3C363.33 746.85 323.6 755.47 287.21 755.47ZM377.69 282.97C333.01 282.97 289.6 295.58 253.86 319.35C220.98 341.06 192.9 372.49 172.47 410.15C164.65 424.51 157.79 439.99 152.2 456.11C132.57 510.84 127.78 569.88 138.48 622.54C148.21 670.73 171.83 705.2 208.69 724.83C257.85 751 328.38 748.28 397.48 717.65C472.49 684.3 539.2 615.52 567.44 542.44C598.56 461.37 585.64 393.4 528.82 340.1C494.67 308.18 448.07 288.24 397.64 283.93C390.94 283.29 384.24 282.97 377.69 282.97ZM283.86 726.74C258.65 726.74 235.19 721.48 215.88 711.1C184.28 694.03 163.85 664.83 155.23 623.98C146.3 581.21 149.81 532.7 165.29 487.7C169.92 474.14 175.5 461.05 181.72 448.93C198.32 417.01 221.62 390.05 249.39 371.06C284.34 346.96 327.43 335.31 370.67 338.34C412.8 341.22 451.9 357.33 480.63 383.82C528.34 427.86 539.99 483.55 516.22 554.25C493.87 620.79 438.98 679.51 372.91 707.59C342.59 720.2 312.11 726.74 283.86 726.74ZM357.43 348.4C320.72 348.4 284.82 359.41 255.13 379.83C228.96 397.86 206.62 423.56 190.98 453.87C184.92 465.52 179.65 477.97 175.18 491.05C160.34 534.3 156.99 580.73 165.45 621.59C173.27 659.24 191.94 686.05 220.66 701.53C258.96 722.11 314.34 720.52 368.76 697.38C432.11 670.41 484.78 614.09 506.32 550.42C528.5 484.19 517.81 432.17 473.61 391.48C446.64 366.59 409.77 351.43 370.04 348.72C365.73 348.56 361.58 348.4 357.43 348.4ZM280.67 698.02C261.36 698.02 243.48 694.03 228.96 686.05C205.98 673.44 190.98 652.06 184.44 622.54C177.74 591.9 179.81 556.48 190.34 523.13C193.69 512.76 197.52 502.7 201.99 493.45C213.8 469.03 231.04 448.13 251.62 432.97C277.95 413.66 310.19 403.77 342.59 405.04C373.55 406.32 402.43 417.49 423.82 436.64C458.13 467.28 467.54 506.85 453.18 560.95C438.5 616.64 396.37 664.19 343.07 685.25C322 693.71 300.62 698.02 280.67 698.02ZM337 413.66C308.28 413.66 279.87 422.92 256.57 440.15C236.94 454.51 220.66 474.3 209.49 497.44C205.18 506.37 201.35 515.95 198.32 526C188.11 557.92 186.19 591.59 192.58 620.95C198.48 647.91 212.05 667.38 232.95 678.71C260.56 693.71 300.62 693.39 340.35 677.6C391.1 657.49 431.32 612.01 445.36 559.03C458.77 508.45 450.15 471.75 418.55 443.5C398.6 425.63 371.63 415.26 342.43 413.98C340.67 413.66 338.76 413.66 337 413.66ZM277.79 669.62C264.55 669.62 252.42 666.74 242.37 661.16C227.85 653.02 218.11 639.62 213.48 621.27C208.85 602.28 209.49 580.73 215.4 558.87C217.31 551.69 219.71 544.83 222.42 538.29C229.44 521.37 240.45 506.53 254.18 495.36C271.73 480.84 293.27 472.7 314.82 472.38C334.77 472.07 353.28 478.29 367.32 489.94C394.93 512.92 393.81 545.47 390.62 567.97C384.24 612.17 354.08 649.67 313.86 663.39C301.41 667.54 289.28 669.62 277.79 669.62ZM314.82 478.61C294.71 478.93 274.44 486.59 258.01 500.31C245.08 511 234.71 525.04 228.16 540.84C225.61 547.06 223.38 553.61 221.46 560.63C215.88 581.53 215.24 601.96 219.55 619.83C223.7 636.43 232.31 648.39 245.4 655.73C262.63 665.31 286.89 665.94 311.79 657.33C349.77 644.24 378.18 608.82 384.24 567.01C389.18 533.34 382.64 511 363.17 494.88C350.57 484.03 333.33 478.29 314.82 478.61ZM275.56 642.01C265.82 642.01 257.05 638.66 250.83 632.59C244.76 626.69 237.9 615.2 240.61 594.62C241.09 590.95 241.89 587.12 242.85 583.13C248.43 561.43 266.62 543.39 286.89 539.4C296.94 537.33 305.88 539.09 313.06 544.51C321.2 550.58 326.15 561.11 327.75 574.83C331.89 612.33 309.07 636.58 284.34 641.37C281.15 641.85 278.27 642.01 275.56 642.01ZM244.6 595.09C242.69 610.09 245.88 621.9 253.7 629.56C260.88 636.58 271.89 639.3 283.54 637.06C313.7 631.32 326.47 601.64 323.6 575.15C322.16 562.54 317.69 553.13 310.67 547.86C304.45 543.23 296.63 541.8 287.69 543.55C268.86 547.38 252.1 563.98 246.84 584.25C245.72 587.92 244.92 591.59 244.6 595.09Z" fill="#FFFFFF" fill-opacity="0.100000" fill-rule="nonzero"/>
</svg>
