<svg width="51" height="50" viewBox="0 0 51 50" fill="none" xmlns="http://www.w3.org/2000/svg">
<path d="M50.0736 21.3746C49.9174 22.377 49.7872 23.3924 49.5789 24.3947C47.9647 32.1661 41.2477 38.5447 33.4373 39.7423C27.1499 40.7055 21.5914 39.1304 16.7619 34.9909C16.7229 34.9649 16.6838 34.9388 16.6838 34.9258C15.7987 35.824 14.9135 36.7222 13.9632 37.6855C14.3407 38.05 14.8093 38.4535 15.2389 38.8961C15.7856 39.4429 15.7987 39.9636 15.2519 40.5103C12.4792 43.283 9.70648 46.0557 6.93377 48.8284C6.30893 49.4663 5.51487 49.7787 4.68175 50C4.29123 50 3.9007 50 3.51018 50C3.40604 49.9609 3.30191 49.9219 3.19777 49.8959C1.90904 49.5574 0.9848 48.7894 0.438068 47.5788C0.294876 47.2533 0.216766 46.9149 0.0996094 46.5764C0.0996094 46.1859 0.0996094 45.7954 0.0996094 45.4048C0.333923 44.1552 1.11497 43.27 1.98714 42.4108C4.48649 39.9505 6.95981 37.4512 9.44614 34.9649C10.1751 34.2359 10.6047 34.2359 11.3337 34.9779C11.7242 35.3684 12.0887 35.785 12.4402 36.1625C13.3904 35.2122 14.2626 34.327 15.1348 33.4548C14.4969 32.5827 13.794 31.7105 13.1952 30.7732C6.25687 19.9037 11.2686 5.40224 23.4399 1.1195C25.028 0.559751 26.6552 0.20828 28.3344 0.0781055C28.4646 0.065088 28.5818 0.0260349 28.712 0C29.6232 0 30.5344 0 31.4456 0C32.0965 0.0911221 32.7604 0.182246 33.4113 0.286385C41.2738 1.49701 47.9908 7.84952 49.605 15.634C49.8132 16.6363 49.9304 17.6386 50.0996 18.654C50.0736 19.5522 50.0736 20.4634 50.0736 21.3746ZM11.9976 19.9818C11.9715 29.9662 20.0163 38.05 30.0137 38.089C39.9981 38.1151 48.0819 30.0833 48.134 20.0859C48.173 10.1015 40.1022 1.97865 30.0918 1.96563C20.0944 1.9396 12.0236 9.98438 11.9976 19.9818ZM10.2923 36.7613C10.1881 36.9045 10.084 37.0737 9.9408 37.2039C7.88405 39.2606 5.82729 41.3174 3.77053 43.3871C3.38001 43.7777 2.97647 44.1552 2.59896 44.5717C2.05223 45.1575 1.89602 45.8474 2.14335 46.6025C2.39068 47.3575 2.9244 47.8261 3.70544 47.9953C4.48649 48.1515 5.12435 47.8651 5.6841 47.3054C8.11836 44.8581 10.5526 42.4239 12.9999 39.9896C13.091 39.8985 13.1691 39.7943 13.2472 39.7162C12.2839 38.7529 11.3207 37.7896 10.2923 36.7613Z" fill="black"/>
<path d="M30.0527 35.7465C22.1511 35.7465 15.4731 29.8887 14.4578 22.0522C13.3383 13.4607 19.3784 5.59815 27.9959 4.42658C35.4549 3.41122 42.6796 7.95431 44.9967 15.1269C45.205 15.7648 44.9837 16.3115 44.45 16.4938C43.8772 16.689 43.3825 16.4026 43.1482 15.7257C41.7293 11.6643 39.0738 8.77441 35.0774 7.18628C26.9545 3.95795 17.8683 9.15191 16.4885 17.7825C15.2518 25.4237 20.4067 32.4792 28.087 33.6638C34.4526 34.6401 40.8311 30.839 42.992 24.7859C43.0701 24.5776 43.1352 24.3563 43.2263 24.148C43.4476 23.6273 43.9683 23.393 44.463 23.5752C44.9577 23.7575 45.205 24.2652 45.0358 24.8119C44.463 26.6343 43.5778 28.2876 42.4062 29.7846C39.3862 33.5726 34.8952 35.7465 30.0527 35.7465Z" fill="#660096"/>
<path d="M28.8169 18.8235C29.0122 18.6412 29.1423 18.5241 29.2725 18.3939C30.405 17.2614 31.5115 16.1289 32.657 15.0093C33.9588 13.7467 35.9114 13.7336 37.1871 14.9573C38.4758 16.1939 38.5539 18.2116 37.2782 19.5134C35.0653 21.7914 32.8133 24.0174 30.5482 26.2434C29.5719 27.2067 28.153 27.1937 27.1767 26.2304C25.7187 24.8115 24.2868 23.3796 22.8679 21.9216C21.6183 20.6329 21.6313 18.6412 22.8679 17.3915C24.1306 16.1158 26.1093 16.0898 27.437 17.3525C27.9057 17.8211 28.3483 18.3158 28.8169 18.8235ZM23.8963 19.9039C24.0004 20.0731 24.1436 20.4376 24.404 20.698C25.6927 22.0258 27.0205 23.3275 28.3222 24.6423C28.8169 25.1369 28.921 25.1369 29.4287 24.6423C31.4985 22.5725 33.5683 20.5027 35.638 18.4329C35.7682 18.3028 35.8984 18.1856 36.0025 18.0294C36.3019 17.5868 36.328 17.1182 36.0546 16.6495C35.7812 16.1809 35.3517 15.9336 34.831 16.0377C34.5055 16.1028 34.1671 16.2981 33.9197 16.5324C32.5399 17.8862 31.1731 19.2661 29.8062 20.6329C29.1293 21.3098 28.6607 21.3228 27.9838 20.6459C27.3459 20.0211 26.7211 19.3702 26.0832 18.7584C25.6667 18.3679 25.172 18.2637 24.6383 18.511C24.1436 18.7454 23.8963 19.1489 23.8963 19.9039Z" fill="#660096"/>
<path d="M45.7788 20.0339C45.7658 20.5806 45.2971 21.0102 44.7634 20.9841C44.2427 20.9581 43.8262 20.5155 43.8262 19.9948C43.8392 19.4611 44.3078 19.0185 44.8415 19.0315C45.3622 19.0706 45.7918 19.5132 45.7788 20.0339Z" fill="#660096"/>
</svg>
