<svg width="50" height="50" viewBox="0 0 50 50" fill="none" xmlns="http://www.w3.org/2000/svg">
<path d="M8.27159 49.999L8.20747 49.9734C7.54063 49.7426 6.86096 49.4604 6.48907 48.7551C6.19413 48.1909 6.04024 47.6779 6.04024 47.2291L6.02742 45.4722C6.00177 40.8813 5.97612 36.1237 6.04024 31.4558C6.06589 28.8141 7.39957 26.8264 9.98998 25.5697C10.0926 25.5184 10.1823 25.4543 10.2336 25.4158C10.2336 25.326 10.2465 25.2363 10.2593 25.1593C10.2977 24.8516 10.2977 24.8003 10.1182 24.6977C9.47703 24.3514 9.09231 23.6974 9.07948 22.8895C9.06666 22.3253 9.05384 21.7482 9.07948 21.184C9.13078 19.9529 10.0413 19.0552 11.2467 19.0296C12.4393 19.0167 13.6576 19.0039 14.8502 19.0039C16.0428 19.0039 17.2611 19.0167 18.4537 19.0296C19.6848 19.0424 20.6081 19.9785 20.6466 21.2609C20.6594 21.62 20.6466 21.979 20.6466 22.3253C20.6466 22.5048 20.6466 22.6843 20.6466 22.8639C20.6466 23.6076 20.3131 24.2488 19.7489 24.5951C19.4924 24.749 19.4411 24.8644 19.4668 25.2106C19.4796 25.3004 19.4796 25.3902 19.4796 25.4671C20.7748 25.9929 21.8007 26.8008 22.5445 27.9036C23.3139 29.0193 23.6986 30.2889 23.6986 31.6866V46.6905C23.6986 48.5499 23.237 49.2553 21.5442 49.9734L21.4673 49.999H8.27159ZM7.64322 47.165C7.64322 47.9216 8.10487 48.3704 8.86148 48.3704H20.8774C21.634 48.3704 22.0828 47.9088 22.0828 47.1521C22.0956 46.3186 22.0828 45.4722 22.0828 44.6515C22.0828 44.2411 22.0828 43.8308 22.0828 43.4204C17.2739 43.4076 12.5804 43.4076 7.64322 43.4076V47.165ZM22.0572 41.7277V33.3281H7.66887V41.7277H22.0572ZM22.07 31.6225C22.0956 30.4684 21.6596 29.3014 20.8517 28.3781C19.9925 27.3907 18.7999 26.788 17.5817 26.7367C16.8892 26.711 16.1454 26.6854 15.2862 26.6854C14.4911 26.6854 13.6832 26.6982 12.8882 26.711L12.3624 26.7238C11.9648 26.7238 11.5417 26.8264 11.1313 26.929C9.11795 27.442 7.59192 29.5322 7.64322 31.6225H22.07ZM12.5676 20.6582C12.1828 20.6582 11.7981 20.6582 11.4134 20.6582C10.9261 20.6582 10.7081 20.8762 10.6953 21.3507C10.6825 21.8123 10.6825 22.2868 10.6953 22.7613C10.7209 23.4281 11.1698 23.4281 11.3236 23.4281C12.4906 23.4281 13.6832 23.4409 14.8502 23.4409C16.0172 23.4409 17.2098 23.4409 18.3767 23.4281C18.8769 23.4281 18.9923 23.0562 18.9923 22.7485C19.0051 22.2996 19.0051 21.8636 18.9923 21.4148C18.9795 20.8505 18.7743 20.6454 18.21 20.6454H14.8758C14.4911 20.6454 14.1064 20.6454 13.7217 20.6454C13.337 20.671 12.9523 20.6582 12.5676 20.6582Z" fill="black"/>
<path d="M41.6383 28.6997C41.0869 28.6997 40.5611 28.4817 40.1379 28.0713C39.2274 27.1736 38.3041 26.2503 37.4193 25.3527L28.4426 16.376C28.4298 16.3632 28.4041 16.3375 28.3913 16.3247C27.8014 16.9146 27.25 17.466 26.6986 18.0303C26.3523 18.3765 26.1087 18.6202 25.7753 18.6202C25.4418 18.6202 25.1982 18.3765 24.8519 18.0303L21.0048 14.1831C20.7483 13.9267 20.5432 13.6958 20.5432 13.4009C20.5432 13.0931 20.7483 12.8751 21.0048 12.6314C21.0689 12.5673 21.1459 12.4904 21.2356 12.4263C20.8766 12.0416 20.774 11.5927 20.6842 11.2208C20.6586 11.1182 20.6329 11.0156 20.6073 10.9259C20.5175 10.6438 20.4021 10.4001 20.261 10.259C19.4275 9.41267 18.5811 8.5663 17.7476 7.73275C17.1192 7.10438 16.478 6.47602 15.8496 5.83483C15.6958 5.68094 15.5803 5.46294 15.4906 5.18082C15.4136 4.91152 15.3623 4.64222 15.2982 4.38574C15.2341 4.07797 15.1572 3.75738 15.0674 3.44961C14.875 2.80842 15.17 2.41088 15.4521 2.12876C15.9009 1.69275 16.3498 1.23109 16.773 0.795077C16.991 0.564249 17.209 0.346243 17.427 0.128238L17.5296 0.0256492L17.6706 0.0128285C17.8117 4.69602e-06 17.9912 0 18.1708 0H18.2092L18.2477 0.0128285C18.4016 0.0512999 18.5683 0.0897697 18.7222 0.115417C19.171 0.218008 19.6327 0.320595 20.0687 0.448833C20.3764 0.5386 20.6714 0.705314 20.8766 0.910495C22.2615 2.28264 23.6978 3.70608 25.0956 5.12952C25.3777 5.41164 25.6214 5.53989 25.9163 5.56553H25.9548C26.4549 5.604 27.0576 5.6553 27.5321 6.11695C27.6732 5.96307 27.8014 5.82201 27.9297 5.69377C28.1733 5.42447 28.4298 5.36035 28.5965 5.36035C28.7504 5.36035 28.9812 5.41165 29.2249 5.62965C30.1866 6.59144 31.1613 7.55322 32.0974 8.48936C32.5719 8.96384 33.0464 9.43832 33.5208 9.9128C33.7132 10.1052 33.8158 10.3232 33.803 10.5412C33.803 10.7848 33.6875 11.0156 33.4439 11.2465C32.8027 11.8748 32.1487 12.5289 31.5203 13.1572C31.5588 13.1957 31.5973 13.2342 31.6357 13.2726L31.6486 13.2855C35.4059 17.0428 39.2916 20.9284 43.113 24.7371C43.7286 25.3527 43.9722 26.0067 43.8825 26.7376C43.7542 27.6225 43.2285 28.2765 42.3821 28.5586C42.1513 28.6612 41.8948 28.6997 41.6383 28.6997ZM29.5711 15.1962C29.5968 15.209 29.6096 15.2347 29.6224 15.2475C33.3413 18.9664 37.1884 22.8135 40.9843 26.5966C41.2792 26.8915 41.5485 27.0454 41.7665 27.0454C41.8948 27.0454 41.9974 26.9941 42.1128 26.8915C42.3051 26.712 42.3051 26.5709 42.3051 26.5196C42.3051 26.3144 42.1513 26.0451 41.8435 25.7374C40.5868 24.4806 39.3428 23.2367 38.0861 21.98C35.6111 19.505 33.0464 16.9402 30.5201 14.414C30.4944 14.3883 30.4559 14.3498 30.4303 14.3242C30.2123 14.5422 29.9943 14.7602 29.7763 14.9782C29.6993 15.068 29.6352 15.1321 29.5711 15.1962ZM22.6591 13.3239C23.7491 14.414 24.775 15.4655 25.7881 16.4786L31.7127 10.554C31.3921 10.2334 31.0715 9.9128 30.7509 9.5922C30.0456 8.87407 29.3146 8.14311 28.5965 7.41216C26.6345 9.34855 24.6083 11.3619 22.6591 13.3239ZM22.1846 10.3103C22.2102 10.4386 22.2359 10.5668 22.2487 10.6822C22.2744 10.8746 22.3 11.0156 22.3385 11.1311C22.7489 10.7207 23.172 10.3103 23.5824 9.89998C24.4672 9.01513 25.3777 8.11746 26.2626 7.2198C26.1728 7.19415 26.0574 7.19415 25.9035 7.18133C25.7753 7.1685 25.6342 7.15569 25.4931 7.13004C25.4418 7.13004 25.3521 7.1685 25.288 7.2198C24.2492 8.23288 23.2105 9.28443 22.2103 10.2975C22.1974 10.2847 22.1846 10.2975 22.1846 10.3103ZM21.2228 8.75865C21.6588 8.33547 22.082 7.89946 22.518 7.46345C22.954 7.02744 23.39 6.60426 23.8132 6.16825C23.2105 5.55271 22.595 4.93716 21.9794 4.32162C21.3639 3.70608 20.7612 3.09053 20.1456 2.47499C19.5301 3.09053 18.9145 3.71891 18.3118 4.3088C18.0553 4.55245 17.8117 4.80893 17.568 5.05258L21.2228 8.75865ZM18.3503 1.67992C18.2349 1.67992 18.0938 1.78251 17.7347 2.14158C17.6834 2.19287 17.645 2.24417 17.5937 2.29546C17.4654 2.4237 17.3372 2.57758 17.1577 2.693C16.8499 2.89818 16.7217 3.11619 16.7345 3.41114L18.4401 1.70556C18.4144 1.69274 18.3759 1.67992 18.3503 1.67992Z" fill="#660096"/>
<path d="M41.5224 38.7787C40.4067 38.7659 39.4449 38.3427 38.8294 37.5733C38.2138 36.8038 37.9958 35.8036 38.2266 34.7264C38.6242 32.8541 39.7783 31.4178 40.9581 30.1611C41.112 30.0072 41.3557 29.9688 41.5224 29.9688C41.6762 29.9688 41.9584 29.9944 42.1251 30.1611C43.292 31.405 44.4334 32.8156 44.8309 34.7007C45.0617 35.8036 44.8437 36.8295 44.2154 37.5989C43.5998 38.3555 42.638 38.7787 41.5224 38.7787ZM41.5352 31.9436C40.8042 32.8285 40.1502 33.7389 39.8553 34.8546C39.6501 35.6625 39.7655 36.2139 40.2272 36.6628C40.5221 36.9577 41.0094 37.1373 41.5224 37.1373C41.8814 37.1373 42.2277 37.0603 42.5226 36.9064C43.151 36.573 43.4331 35.9062 43.2792 35.0983C43.0227 33.8672 42.3046 32.8669 41.5352 31.9436Z" fill="black"/>
</svg>
