<svg width="50" height="50" viewBox="0 0 50 50" fill="none" xmlns="http://www.w3.org/2000/svg">
<path d="M43.1582 31.3443C41.3893 31.3889 39.7541 30.8834 38.0892 30.378C37.1675 30.0956 36.231 29.8429 35.2945 29.6645C33.362 29.2929 31.5336 29.7983 29.72 30.378C28.2633 30.8388 26.8065 31.2699 25.2753 31.3145C23.4915 31.374 21.8266 30.8686 20.1617 30.3483C19.2549 30.0807 18.3481 29.828 17.4116 29.6496C15.7467 29.3226 14.1264 29.6496 12.5358 30.155C10.4398 30.824 8.35871 31.4632 6.11406 31.2997C4.27077 31.1659 2.44235 31.0172 0.688248 30.4077C0.420674 30.3186 0.108506 29.9618 0.0490455 29.6794C0.00444981 29.4266 0.212568 29.0104 0.435547 28.8469C0.64366 28.6982 1.03015 28.728 1.31259 28.7726C2.8883 29.0104 4.44915 29.3077 6.03973 29.501C7.98707 29.7388 9.83037 29.1739 11.6588 28.5645C13.5764 27.9253 15.5386 27.4942 17.5752 27.8658C18.8982 28.1185 20.2212 28.4604 21.4996 28.8915C23.8631 29.6794 26.1673 29.6496 28.5457 28.8915C30.0917 28.4009 31.6971 27.9996 33.3026 27.7766C35.1607 27.5239 36.9743 28.0144 38.6986 28.6685C41.9839 29.9023 45.2542 29.6199 48.5543 28.7874C48.7624 28.728 49.0002 28.6388 49.2084 28.6685C49.6692 28.7131 49.9367 29.0401 49.9813 29.4861C50.0408 29.9618 49.7881 30.3037 49.3421 30.3929C48.0191 30.6753 46.6961 30.9429 45.3583 31.1659C44.615 31.3145 43.8866 31.2997 43.1582 31.3443Z" fill="#660096"/>
<path d="M42.356 26.9002C41.4195 26.9448 39.7546 26.4245 38.0897 25.9191C37.168 25.6367 36.2315 25.384 35.295 25.2056C33.3625 24.8339 31.5341 25.3542 29.7205 25.934C28.0556 26.4691 26.361 27.0489 24.6069 26.8408C23.1055 26.6624 21.6339 26.2313 20.1622 25.9042C19.2406 25.6961 18.3338 25.3988 17.4121 25.2204C15.7472 24.8934 14.1269 25.2204 12.5363 25.7407C10.4403 26.4097 8.3592 27.0489 6.11455 26.8853C4.301 26.7516 2.48744 26.6029 0.748211 25.9934C0.465772 25.8894 0.138737 25.5772 0.0792761 25.2948C0.0198152 25.0421 0.213061 24.611 0.421174 24.4475C0.644153 24.2839 1.04551 24.3137 1.35768 24.3583C2.94826 24.5812 4.53885 24.8934 6.12943 25.0867C8.0619 25.3096 9.87546 24.7448 11.689 24.1501C13.6066 23.5109 15.5837 23.0798 17.6054 23.4663C18.9284 23.7191 20.2514 24.0758 21.5298 24.492C23.8785 25.2799 26.1826 25.2799 28.5165 24.492C29.78 24.061 31.0733 23.7191 32.3814 23.4663C34.4477 23.065 36.4694 23.4515 38.4018 24.1799C41.8208 25.4732 45.2398 25.2799 48.6886 24.3583C49.3575 24.1799 49.8183 24.388 49.967 24.9529C50.1008 25.4731 49.8332 25.8894 49.1642 26.0826C47.202 26.6178 45.2101 26.811 42.356 26.9002Z" fill="#660096"/>
<path d="M17.8438 14.7699C17.8587 13.9969 18.1114 12.882 18.6614 11.8415C20.4749 8.43733 22.2736 5.01833 24.1169 1.62905C24.2656 1.34662 24.6372 1.09391 24.9494 1.01958C25.3656 0.915523 25.6481 1.24256 25.8562 1.61419C27.6697 5.03319 29.5427 8.43733 31.3117 11.8861C33.8239 16.8065 30.1968 22.5444 24.7115 22.3958C20.9209 22.2917 17.8289 19.0214 17.8438 14.7699ZM24.9791 3.78451C23.4183 6.71296 21.9169 9.53735 20.4155 12.3469C20.2966 12.555 20.1776 12.7631 20.0884 12.9861C19.2411 15.0821 19.4938 17.0592 20.9804 18.7538C22.4372 20.4336 24.325 20.9836 26.4656 20.3741C29.7211 19.4673 31.282 15.7362 29.7063 12.6591C28.74 10.7563 27.7143 8.89815 26.7035 7.01026C26.1535 5.98456 25.6035 4.944 24.9791 3.78451Z" fill="black"/>
<path d="M6.24798 16.5246C6.24798 16.1083 6.24798 15.6773 6.24798 15.261C6.24798 12.4218 6.24798 9.58251 6.24798 6.72839C6.24798 6.56487 6.23311 6.38649 6.26284 6.22297C6.33717 5.73242 6.64934 5.46484 7.13989 5.46484C7.63044 5.46484 7.95748 5.73242 8.01694 6.22297C8.06154 6.5946 8.03181 6.96623 8.03181 7.33786C8.03181 10.2217 8.03181 13.0907 8.03181 15.9746C8.03181 16.1529 8.03181 16.3313 8.03181 16.5246C8.09127 16.5692 8.13586 16.6138 8.19532 16.6584C8.68587 16.1232 9.17642 15.5881 9.68184 15.0529C9.81563 14.9043 9.96429 14.7556 10.1129 14.6218C10.5143 14.2948 10.9603 14.2948 11.317 14.6367C11.6738 14.9786 11.7332 15.4691 11.3913 15.8259C10.1873 17.0597 8.96832 18.2935 7.7345 19.4976C7.36287 19.8544 6.90205 19.8247 6.53042 19.4679C5.32634 18.2787 4.12225 17.0895 2.9479 15.8854C2.57627 15.4989 2.606 14.9935 2.97763 14.6516C3.34926 14.2948 3.82495 14.2799 4.22631 14.6664C4.88038 15.3056 5.50472 15.9597 6.12906 16.6138C6.15879 16.5692 6.20338 16.5543 6.24798 16.5246Z" fill="black"/>
<path d="M43.843 16.5981C44.4376 15.9887 45.0322 15.3792 45.6268 14.7846C46.1322 14.294 46.6376 14.2494 47.039 14.6805C47.4255 15.0819 47.3809 15.5576 46.9052 16.0481C45.82 17.1482 44.7349 18.2333 43.6349 19.3185C43.0551 19.8982 42.624 19.8982 42.0591 19.3333C40.9591 18.2482 39.874 17.163 38.7888 16.063C38.2834 15.5576 38.2388 15.067 38.655 14.6508C39.0564 14.2494 39.5469 14.294 40.0672 14.7994C40.6618 15.3941 41.2415 15.9887 41.9551 16.5535C41.9551 16.3603 41.9551 16.1819 41.9551 15.9887C41.9551 12.9264 41.9551 9.86419 41.9551 6.78709C41.9551 6.63844 41.9551 6.48978 41.9551 6.34113C41.9848 5.79112 42.3267 5.46408 42.8321 5.44922C43.3375 5.44922 43.6943 5.77626 43.724 6.3114C43.7389 6.56411 43.724 6.83168 43.724 7.08439C43.724 10.221 43.724 13.3575 43.724 16.4941C43.7686 16.5387 43.8132 16.5684 43.843 16.5981Z" fill="black"/>
<path d="M7.16957 40.4128C7.06552 42.3007 6.48577 43.5642 5.07357 44.3223C3.11136 45.3778 0.703201 44.1588 0.138322 41.8101C-0.129252 40.7249 -0.0103301 39.6695 0.509953 38.6735C1.22348 37.3357 1.95188 35.9978 2.66541 34.6599C2.85866 34.2883 3.0965 34.0059 3.54245 34.0059C4.01814 34.0059 4.25599 34.3032 4.4641 34.6897C5.16277 35.9978 5.90602 37.2911 6.56009 38.6141C6.88713 39.2681 7.03579 39.9965 7.16957 40.4128ZM3.57219 36.7559C3.00731 37.8262 2.47216 38.733 2.01134 39.6844C1.59511 40.5466 1.69917 41.4236 2.26405 42.2115C2.96271 43.1777 4.19653 43.1628 4.89519 42.1966C5.40061 41.4831 5.54926 40.6655 5.1925 39.8776C4.73168 38.8519 4.16679 37.8708 3.57219 36.7559Z" fill="black"/>
<path d="M17.9765 45.1847C17.8278 46.0915 17.6048 46.9091 17.0994 47.6226C16.267 48.7672 15.1521 49.3618 13.7399 49.0942C12.1642 48.7969 11.2722 47.7415 10.856 46.255C10.5587 45.1698 10.7074 44.1144 11.2425 43.1333C11.956 41.7954 12.6844 40.4576 13.398 39.1197C13.5912 38.7481 13.8439 38.4805 14.2899 38.4805C14.7358 38.4805 14.9885 38.7629 15.1818 39.1345C15.8953 40.4724 16.6534 41.7954 17.3224 43.163C17.6197 43.7725 17.7535 44.5009 17.9765 45.1847ZM14.275 41.1859C13.6655 42.3454 13.0858 43.3563 12.625 44.4117C12.3277 45.0806 12.4615 45.7942 12.8182 46.4482C13.1453 47.0131 13.6209 47.3847 14.2899 47.3699C14.9439 47.355 15.4048 46.9982 15.7169 46.4482C16.0886 45.809 16.2224 45.0955 15.9102 44.4117C15.4494 43.3711 14.8845 42.3603 14.275 41.1859Z" fill="black"/>
<path d="M49.9972 40.3975C49.8932 42.3002 49.2985 43.5935 47.8715 44.3368C45.8795 45.3773 43.4714 44.0692 42.9511 41.7056C42.7133 40.6204 42.847 39.6096 43.3822 38.6285C44.0957 37.3055 44.8092 35.9825 45.5079 34.6595C45.7012 34.273 45.9687 34.0352 46.4147 34.0352C46.8458 34.0352 47.1134 34.2879 47.3066 34.6744C48.0053 35.9974 48.7634 37.3055 49.4323 38.6582C49.7296 39.2974 49.8783 40.011 49.9972 40.3975ZM46.4147 36.7704C45.9539 37.6177 45.5674 38.3312 45.1809 39.0447C45.062 39.2677 44.9282 39.4907 44.8241 39.7285C44.4822 40.561 44.5417 41.3637 45.0322 42.1218C45.7458 43.207 47.0836 43.1921 47.7823 42.107C48.2431 41.3934 48.362 40.5907 48.0053 39.8177C47.5445 38.8218 46.9796 37.8555 46.4147 36.7704Z" fill="black"/>
<path d="M39.3833 45.1389C39.2495 46.0754 39.0265 46.9079 38.4914 47.6363C37.6589 48.7809 36.544 49.3755 35.1169 49.093C33.5264 48.7809 32.6345 47.6957 32.248 46.1795C31.9804 45.1092 32.1439 44.0835 32.6642 43.1024C33.3777 41.7794 34.0913 40.4563 34.7899 39.1333C34.9832 38.7617 35.2507 38.4941 35.6818 38.4941C36.1129 38.4941 36.3805 38.7469 36.5886 39.1185C37.2873 40.4415 38.0454 41.7496 38.6995 43.1024C39.0265 43.7416 39.1603 44.47 39.3833 45.1389ZM35.6967 41.2145C35.117 42.2996 34.5669 43.251 34.1061 44.2321C33.7494 44.9754 33.8385 45.7632 34.2548 46.4768C34.9534 47.6809 36.4251 47.6809 37.1238 46.4768C37.54 45.7632 37.6292 44.9902 37.2724 44.2321C36.8116 43.251 36.2764 42.2996 35.6967 41.2145Z" fill="black"/>
<path d="M28.5911 40.3975C28.4871 42.3002 27.8925 43.5935 26.4505 44.3368C24.4437 45.3773 22.0504 44.0692 21.5301 41.7056C21.2923 40.6204 21.4409 39.6096 21.9612 38.6285C22.6748 37.3055 23.3883 35.9825 24.087 34.6595C24.2802 34.273 24.5626 34.0352 24.9937 34.0352C25.4248 34.0352 25.6924 34.3027 25.8856 34.6744C26.5843 35.9974 27.3424 37.3055 27.9965 38.6582C28.3235 39.2974 28.4573 40.011 28.5911 40.3975ZM24.9789 36.7555C24.3843 37.8852 23.8045 38.8664 23.3437 39.9069C23.0167 40.6353 23.1504 41.4083 23.5964 42.0921C24.3099 43.207 25.6775 43.1921 26.3762 42.0772C26.8668 41.2894 26.9113 40.4569 26.51 39.6393C26.064 38.7028 25.5437 37.8109 24.9789 36.7555Z" fill="black"/>
<path d="M24.83 18.8289C23.0165 18.7843 21.411 17.1194 21.4259 15.291C21.4259 14.7112 21.7529 14.3545 22.2732 14.3247C22.8084 14.3099 23.1354 14.622 23.1948 15.2166C23.3138 16.3315 23.8935 16.941 24.9341 17.0451C25.5584 17.1045 25.9003 17.4613 25.8706 17.9964C25.8409 18.5316 25.4544 18.8438 24.83 18.8289Z" fill="black"/>
</svg>
