<svg width="52" height="56" viewBox="0 0 52 56" fill="none" xmlns="http://www.w3.org/2000/svg">
<path d="M0.517373 55.5281C0.0113896 55.1667 -0.0898125 54.7185 0.069211 54.1113C0.416171 52.7235 1.09564 51.5381 2.15098 50.5695C2.25217 50.4683 2.36783 50.3815 2.46902 50.2803C4.33394 48.6612 4.97003 47.042 3.69784 44.0495C3.03284 42.4593 2.54131 40.869 2.57022 39.1342C2.59914 37.3561 3.20631 35.8236 4.40621 34.5081C5.17242 33.6696 5.92417 32.8022 6.02536 31.5878C6.1121 30.4891 6.01091 29.3904 5.50493 28.4218C4.49296 26.4991 4.20382 24.4752 4.31948 22.3356C4.49296 18.8081 5.10013 15.3819 6.57472 12.1436C9.62508 5.50799 14.7861 1.59024 21.9711 0.332506C22.7662 0.187939 23.5758 0.115653 24.3709 0C25.4551 0 26.5394 0 27.6236 0C28.5344 0.13011 29.4452 0.202394 30.3415 0.375874C38.336 1.9372 43.5838 6.66453 46.2583 14.2977C47.3859 17.5215 47.7473 20.8754 47.6606 24.2728C47.6317 25.5883 47.1835 26.8027 46.6631 28.017C46.3306 28.7977 46.0993 29.6506 45.9547 30.4891C45.6945 32.0215 46.374 33.2648 47.4148 34.3346C49.4966 36.4887 49.7279 39.0475 49.0774 41.7943C48.9617 42.3002 48.5135 42.5749 48.0654 42.4737C47.6028 42.3725 47.357 41.9677 47.4004 41.4473C47.4727 40.392 47.6028 39.3222 47.5449 38.2813C47.4871 37.2404 46.9811 36.3296 46.2294 35.6213C43.9019 33.4238 43.6561 30.359 44.8994 27.699C45.68 26.0076 46.0125 24.3017 45.9258 22.4512C45.7523 18.7648 45.0729 15.2084 43.3381 11.9123C40.4467 6.38985 35.8929 3.10819 29.7632 2.05285C25.6142 1.34447 21.5374 1.69143 17.663 3.38286C12.4586 5.6381 9.16247 9.64261 7.34093 14.9338C6.3145 17.9263 5.96754 21.02 6.03983 24.1571C6.06874 25.2992 6.44461 26.3401 6.93613 27.3665C7.76016 29.0579 8.07821 30.8506 7.49995 32.6721C7.22527 33.525 6.80603 34.4358 6.18439 35.0574C3.8135 37.385 3.88577 40.0016 5.05676 42.7918C5.50492 43.8905 5.90971 44.9747 6.02536 46.1602C6.24221 48.4443 5.2447 50.1791 3.56773 51.5959C2.6425 52.3621 2.06424 53.3162 1.74619 54.4728C1.64499 54.8486 1.35586 55.1667 1.16792 55.5136C0.951074 55.5281 0.734223 55.5281 0.517373 55.5281Z" fill="black"/>
<path d="M16.1454 55.5277C15.3069 54.7904 15.4226 54.1688 16.4635 53.7351C17.8947 53.1279 18.7187 51.9858 19.2681 50.5835C19.7596 49.3113 19.9909 47.9813 19.9331 46.6079C19.9331 46.4489 19.8174 46.2176 19.6873 46.1453C16.4924 44.2949 14.4829 41.4614 13.0083 38.1942C11.2302 34.2619 10.3194 30.084 9.87124 25.8192C9.69776 24.2579 9.62547 22.6821 9.55319 21.1208C9.50982 20.2968 9.78449 20.051 10.623 19.9643C14.96 19.5161 19.1813 18.6487 23.1136 16.6826C25.4122 15.5405 27.4072 14.0226 28.7517 11.7674C28.8962 11.536 29.301 11.3626 29.6046 11.3337C30.0238 11.3047 30.2407 11.6662 30.3708 12.0565C31.0647 14.066 32.2068 15.7719 33.8404 17.1452C35.98 18.9668 38.4665 19.9065 41.2856 19.9788C42.2831 20.0077 42.5289 20.2534 42.5144 21.2509C42.3843 25.8626 41.6615 30.3731 40.317 34.7824C40.1291 35.404 39.7098 35.6932 39.2183 35.5486C38.6834 35.3896 38.4665 34.927 38.6545 34.2764C39.5653 31.255 40.1869 28.1901 40.5194 25.053C40.635 23.9543 40.6929 22.8556 40.7796 21.7136C35.5607 21.222 31.7442 18.6777 29.4167 14.1961C28.8384 14.7165 28.2312 15.2514 27.624 15.7863C25.1953 17.8825 22.3329 19.1258 19.3114 20.0655C16.796 20.8317 14.2372 21.3377 11.6205 21.6124C11.5338 21.6268 11.447 21.6413 11.3024 21.6702C11.3747 22.6532 11.4326 23.6218 11.5193 24.5904C11.8807 28.248 12.5457 31.8477 13.789 35.3173C14.6564 37.746 15.7985 40.0302 17.4899 42.0107C19.8319 44.7286 22.7955 46.102 26.4097 46.0152C26.5398 46.0152 26.6554 46.0008 26.7856 46.0152C27.3638 46.0152 27.7252 46.3188 27.7541 46.8103C27.7831 47.3163 27.4216 47.7067 26.8289 47.7356C25.2965 47.8223 23.793 47.6777 22.3184 47.2585C22.1305 47.2007 21.9426 47.1573 21.798 47.1139C21.5811 48.2416 21.4366 49.3692 21.133 50.439C20.4824 52.7665 19.1958 54.5736 16.8538 55.4699C16.8249 55.4843 16.8104 55.5277 16.796 55.5566C16.5791 55.5277 16.3623 55.5277 16.1454 55.5277Z" fill="black"/>
<path d="M5.73563 55.5282C5.2441 55.1668 5.12845 54.7186 5.28748 54.1114C5.64889 52.738 6.29944 51.5671 7.32586 50.6129C7.4126 50.5262 7.5138 50.4394 7.615 50.3671C9.59556 48.6902 10.1883 47.0132 8.90165 44.0207C8.17881 42.3437 7.73065 40.6523 7.80293 38.8307C7.8463 37.8332 8.07761 36.908 8.5836 36.0406C8.82936 35.6069 9.29198 35.4768 9.69676 35.6792C10.1305 35.896 10.3329 36.3442 10.1015 36.8212C9.10404 38.903 9.47991 40.9414 10.3473 42.9364C10.7955 43.9773 11.1424 45.0182 11.2581 46.1458C11.4894 48.4444 10.5063 50.2081 8.80045 51.6249C7.86076 52.4055 7.28249 53.3886 6.96445 54.5596C6.86325 54.9065 6.58857 55.2101 6.38618 55.5426C6.16933 55.5282 5.95248 55.5282 5.73563 55.5282Z" fill="black"/>
<path d="M10.9407 55.529C10.4492 55.1676 10.3335 54.7194 10.4926 54.1122C10.854 52.7099 11.5334 51.51 12.6032 50.5414C12.9357 50.2378 13.2538 49.9198 13.5718 49.6017C14.3959 48.7777 14.8006 47.7947 14.7284 46.6237C14.7139 46.4502 14.7139 46.2623 14.7139 46.0888C14.7139 45.525 15.0319 45.1491 15.5235 45.1346C15.9861 45.1057 16.3764 45.4238 16.4342 45.9442C16.5933 47.4622 16.3909 48.9078 15.3934 50.1366C14.9597 50.6715 14.4971 51.1775 13.9766 51.6257C13.0658 52.4208 12.4731 53.3894 12.1551 54.5604C12.0539 54.9073 11.7792 55.2109 11.5768 55.5434C11.3744 55.529 11.1576 55.529 10.9407 55.529Z" fill="black"/>
<path d="M50.8403 55.5281C50.6524 55.1956 50.3777 54.892 50.2765 54.5451C49.9585 53.3741 49.3802 52.391 48.4405 51.6104C48.2526 51.4514 48.0502 51.2779 47.8912 51.0899C47.5876 50.7141 47.602 50.2225 47.9345 49.9189C48.2815 49.5864 48.7007 49.5575 49.0622 49.8611C50.45 50.9887 51.5343 52.3332 51.939 54.1258C52.0836 54.733 51.9824 55.1812 51.4764 55.5281C51.274 55.5281 51.0572 55.5281 50.8403 55.5281Z" fill="black"/>
<path d="M37.1793 55.5284C36.4853 55.3549 35.777 55.2248 35.0975 55.0079C30.9629 53.6201 28.2306 49.4855 28.6354 45.2497C29.0691 40.6524 32.4664 37.1105 36.9624 36.5323C42.0801 35.8817 46.9086 39.5248 47.5881 44.5413C48.3109 49.9047 44.7256 54.7332 39.4923 55.4416C39.3767 55.4561 39.2466 55.5139 39.1309 55.5428C38.4804 55.5284 37.8298 55.5284 37.1793 55.5284ZM38.1768 53.7936C42.4848 53.7936 45.9689 50.2806 45.9689 45.9436C45.9544 41.6933 42.4415 38.1803 38.1912 38.1803C33.8542 38.1803 30.3412 41.6789 30.3557 45.9725C30.3557 50.3095 33.8542 53.7936 38.1768 53.7936Z" fill="#660096"/>
<path d="M37.5 46.5L33 44.5L37.5 50L43.5 41L37.5 46.5Z" fill="#660096"/>
</svg>
