<svg width="56" height="54" viewBox="0 0 56 54" fill="none" xmlns="http://www.w3.org/2000/svg">
<path d="M54.8018 30.7147C45.7788 30.7147 36.7559 30.7147 27.7329 30.7147C18.8832 30.7147 10.0479 30.7147 1.19825 30.7147C0.851764 30.7147 0.346479 30.6569 0.0433084 30.1372L0 30.065V29.4731L0.0433084 29.4009C0.375353 28.8956 0.866201 28.8379 1.19825 28.8379C10.1779 28.8379 19.1575 28.8379 28.1371 28.8379C37.0302 28.8379 45.9087 28.8379 54.8018 28.8379C55.1482 28.8379 55.6391 28.8956 55.9567 29.4009L56 29.4731V30.065L55.9567 30.1372C55.6391 30.6569 55.1482 30.7147 54.8018 30.7147Z" fill="black"/>
<path d="M54.8018 37.6444C45.7788 37.6444 36.7559 37.6444 27.7329 37.6444C18.8832 37.6444 10.0479 37.6444 1.19825 37.6444C0.851764 37.6444 0.346479 37.5866 0.0433084 37.0669L0 36.9947V36.4028L0.0433084 36.3306C0.375353 35.8253 0.866201 35.7676 1.19825 35.7676C10.1779 35.7676 19.1575 35.7676 28.1371 35.7676C37.0302 35.7676 45.9087 35.7676 54.8018 35.7676C55.1482 35.7676 55.6391 35.8253 55.9567 36.3306L56 36.4028V36.9947L55.9567 37.0669C55.6391 37.5866 55.1482 37.6444 54.8018 37.6444Z" fill="black"/>
<path d="M28.0074 25.4086C27.762 25.4086 27.531 25.3797 27.3145 25.322C23.5754 24.3114 20.8757 22.4491 19.0567 19.6339C17.9162 17.8582 17.382 16.0969 17.4398 14.2346C17.4975 12.1124 17.4831 9.9469 17.4686 7.85357C17.4686 6.91519 17.4542 5.9768 17.4542 5.05285C17.4542 4.04228 17.7141 3.76798 18.7391 3.72467C21.843 3.60918 24.687 2.48311 27.199 0.389791C27.5022 0.144367 27.7187 0 27.993 0C28.2529 0 28.4839 0.144367 28.787 0.389791C31.3712 2.52642 34.1575 3.62362 37.3047 3.73911C38.2431 3.76798 38.5318 4.07115 38.5318 5.00954C38.5318 6.23666 38.5318 7.44934 38.5318 8.67647V10.2068C38.5318 10.6254 38.5318 11.0441 38.5174 11.4627C38.5029 12.3723 38.4885 13.3251 38.5462 14.249C38.6473 16.0536 38.1565 17.7572 36.9726 19.6195C35.1681 22.4491 32.4828 24.3114 28.7437 25.3509C28.4983 25.3653 28.2529 25.4086 28.0074 25.4086ZM27.993 2.15107C27.9353 2.19438 27.892 2.22325 27.8342 2.26656C25.2789 4.21552 22.4782 5.31271 19.4898 5.52926C19.3743 5.5437 19.331 5.55813 19.331 5.55813C19.3165 5.58701 19.3165 5.71694 19.3165 5.80356C19.3165 6.46765 19.3165 7.1173 19.3165 7.78139C19.3165 10.0046 19.331 12.3145 19.3021 14.5811C19.2877 15.5772 19.5042 16.5156 19.9662 17.4684C21.4532 20.5001 24.0373 22.4924 27.8631 23.5463C27.8919 23.5463 27.9208 23.5607 27.9497 23.5607C27.993 23.5607 28.0363 23.5607 28.0796 23.5463C31.6455 22.579 34.143 20.7456 35.6878 17.9593C36.1497 17.1219 36.6262 16.0969 36.6262 14.942C36.6117 12.8054 36.6117 10.6254 36.6117 8.51766C36.6117 7.66589 36.6117 6.79969 36.6117 5.94793V5.57257C33.4501 5.31271 30.6061 4.18665 27.993 2.15107Z" fill="#660096"/>
<path fill-rule="evenodd" clip-rule="evenodd" d="M23.293 12.6073C23.6836 12.2168 24.3167 12.2168 24.7073 12.6073L26.8286 14.7287L31.7783 9.77892C32.1689 9.38839 32.802 9.3884 33.1925 9.77892C33.5831 10.1694 33.5831 10.8026 33.1925 11.1931L26.8286 17.5571L23.293 14.0216C22.9025 13.631 22.9025 12.9979 23.293 12.6073Z" fill="#660096"/>
<path d="M7.20375 46.8548C6.42417 46.8548 5.68789 46.5516 5.15373 46.003C4.61958 45.4544 4.31641 44.7326 4.31641 43.953C4.31641 42.3794 5.61571 41.0801 7.18931 41.0801C7.95446 41.0801 8.69073 41.3832 9.23933 41.9318C9.78792 42.4804 10.0911 43.2167 10.0911 43.9819C10.0767 45.5699 8.79179 46.8548 7.20375 46.8548ZM7.18931 42.9569C6.66959 42.9569 6.20762 43.4044 6.19318 43.9385C6.19318 44.2128 6.2798 44.4727 6.46748 44.6604C6.65515 44.8481 6.90058 44.9636 7.17487 44.9636C7.75234 44.9636 8.19988 44.516 8.19988 43.9674C8.19988 43.7076 8.09882 43.4477 7.89671 43.2456C7.70903 43.0723 7.44917 42.9569 7.18931 42.9569V42.6681V42.9569Z" fill="black"/>
<path d="M34.9367 46.854C34.1571 46.854 33.4208 46.5508 32.8722 45.9878C32.3236 45.4392 32.0349 44.7174 32.0493 43.9522C32.0638 42.3786 33.3631 41.0938 34.9367 41.0938C35.7018 41.0938 36.4381 41.3969 36.9723 41.9455C37.5209 42.4941 37.824 43.2304 37.824 44.01C37.8096 45.5691 36.5103 46.854 34.9367 46.854ZM34.9223 42.9561C34.6624 42.9561 34.4025 43.0716 34.2149 43.2737C34.0272 43.4758 33.9117 43.7357 33.9261 43.9955C33.9406 44.5297 34.3881 44.9772 34.9223 44.9772C35.211 44.9772 35.4564 44.8762 35.6441 44.6885C35.8318 44.5008 35.9328 44.2554 35.9328 43.9811C35.9328 43.4325 35.4708 42.9561 34.9223 42.9561V42.6674V42.9561Z" fill="black"/>
<path d="M21.034 46.8548C20.2544 46.8403 19.5326 46.5372 18.9984 45.9741C18.4643 45.4255 18.1755 44.6893 18.19 43.9097C18.2188 42.3505 19.5037 41.0801 21.0629 41.0801H21.1062C22.7087 41.109 23.9791 42.4227 23.9502 44.0252C23.9213 45.5843 22.6365 46.8403 21.0629 46.8403L21.034 46.8548ZM21.0484 42.9569C20.5143 42.9569 20.0667 43.4188 20.0523 43.953C20.0523 44.2273 20.1389 44.4727 20.3266 44.6748C20.5143 44.8769 20.7741 44.978 21.0484 44.978C21.3372 44.978 21.5826 44.8769 21.7703 44.6893C21.958 44.5016 22.059 44.2562 22.059 43.9819C22.0735 43.4188 21.6115 42.9569 21.0484 42.9569V42.6681V42.9569Z" fill="black"/>
<path d="M14.1491 53.4387C13.3695 53.4387 12.6476 53.1356 12.099 52.587C11.5505 52.0384 11.2617 51.3165 11.2617 50.537C11.2762 48.9634 12.561 47.6785 14.1346 47.6641C14.9142 47.6641 15.636 47.9672 16.1846 48.5158C16.7332 49.0644 17.0364 49.8007 17.0364 50.5658C17.022 52.1539 15.7227 53.4387 14.1491 53.4387ZM14.1202 49.5553C13.8603 49.5553 13.6005 49.6708 13.4128 49.8584C13.2251 50.0606 13.1096 50.306 13.1241 50.5803C13.1385 51.1144 13.586 51.562 14.1202 51.562C14.3945 51.562 14.6543 51.4609 14.842 51.2588C15.0297 51.0711 15.1308 50.8257 15.1308 50.5514C15.1452 50.0172 14.6688 49.5553 14.1202 49.5553V49.2665V49.5553Z" fill="black"/>
<path d="M28.0065 53.438C27.2269 53.438 26.5051 53.1348 25.9565 52.5862C25.4079 52.0376 25.1191 51.3158 25.1191 50.5506C25.1191 48.977 26.404 47.6777 27.992 47.6777C29.5945 47.6777 30.8938 48.977 30.8938 50.5795C30.8794 52.1531 29.5945 53.438 28.0065 53.438ZM27.9632 49.5545C27.429 49.5689 26.9959 50.0309 26.9959 50.5651C26.9959 50.8249 27.097 51.0848 27.2991 51.2725C27.4868 51.4602 27.7466 51.5756 28.0065 51.5756C28.2808 51.5756 28.5406 51.4602 28.7283 51.258C28.916 51.0559 29.0171 50.8105 29.0171 50.5506C29.0026 50.002 28.5551 49.5545 28.0065 49.5545H27.9632Z" fill="black"/>
<path d="M41.8522 53.438C41.0726 53.438 40.3508 53.1204 39.8022 52.5718C39.2536 52.0232 38.9648 51.2869 38.9648 50.5218C38.9793 48.9482 40.2786 47.6777 41.8522 47.6777C42.6318 47.6777 43.3536 47.9809 43.9022 48.5295C44.4508 49.0781 44.754 49.8144 44.7395 50.5939C44.7251 52.1675 43.4402 53.438 41.8522 53.438ZM41.8378 49.5545C41.5779 49.5545 41.3325 49.67 41.1304 49.8577C40.9427 50.0598 40.8416 50.3196 40.8416 50.5795C40.8561 51.1137 41.3036 51.5612 41.8378 51.5612C42.112 51.5612 42.3719 51.4602 42.5596 51.258C42.7473 51.0704 42.8483 50.8105 42.8483 50.5506C42.8483 50.0165 42.3863 49.5545 41.8378 49.5545L41.8522 49.2658L41.8378 49.5545Z" fill="black"/>
<path d="M48.81 46.8548C48.0304 46.8548 47.2941 46.5516 46.7455 45.9886C46.1969 45.44 45.9082 44.7181 45.9082 43.953C45.9226 42.3794 47.2075 41.0945 48.7811 41.0801C49.5607 41.0801 50.2825 41.3832 50.8311 41.9318C51.3797 42.4804 51.6685 43.2167 51.6685 43.9819C51.6829 45.5699 50.398 46.8548 48.81 46.8548ZM48.7955 42.9569C48.5357 42.9569 48.2903 43.0723 48.0882 43.26C47.9005 43.4477 47.785 43.7076 47.785 43.9674C47.785 44.5016 48.2325 44.9491 48.7667 44.9636H48.7955C49.3586 44.9636 49.7917 44.5449 49.8061 43.9819C49.8061 43.4333 49.3586 42.9713 48.7955 42.9569Z" fill="black"/>
</svg>
