<svg width="20" height="20" viewBox="0 0 20 20" fill="none" xmlns="http://www.w3.org/2000/svg">
<path d="M19.0568 14.617L18.7893 17.0243C18.686 17.954 17.9468 18.6701 17.0193 18.5491C15.0114 18.2871 11.345 17.2395 7.41676 13.3113C3.48856 9.38305 2.44041 5.71621 2.17812 3.70798C2.05695 2.78026 2.77305 2.04083 3.70292 1.93751L6.10984 1.67008C6.9025 1.582 7.67171 1.97328 8.06731 2.66578L9.01499 4.32468C9.46232 5.10773 9.33028 6.09329 8.6926 6.73097L8.46768 6.95589C7.99484 7.42873 7.795 8.11114 8.09779 8.70737C8.39535 9.2933 8.90773 10.0882 9.77321 10.9537C10.6387 11.8191 11.4336 12.3315 12.0195 12.6291C12.6157 12.9319 13.2981 12.732 13.771 12.2592L13.9959 12.0343C14.6336 11.3966 15.6191 11.2645 16.4022 11.7119L18.0611 12.6596C18.7536 13.0552 19.1449 13.8244 19.0568 14.617Z" stroke="black" stroke-width="1.5" stroke-linecap="round" stroke-linejoin="round"/>
</svg>
