<svg width="20" height="12" viewBox="0 0 20 12" fill="none" xmlns="http://www.w3.org/2000/svg">
<path d="M19.8939 10.6002C19.8697 10.548 19.8471 10.5047 19.8262 10.47C19.4792 9.84507 18.8161 9.07798 17.8372 8.16854L17.8166 8.14772L17.8062 8.13751L17.7957 8.12704H17.7852C17.341 7.70356 17.0597 7.41882 16.9419 7.27304C16.7263 6.99533 16.678 6.71424 16.7959 6.42943C16.8791 6.21424 17.1917 5.75979 17.733 5.06547C18.0178 4.6975 18.2433 4.40258 18.4098 4.18039C19.6109 2.58363 20.1316 1.56327 19.9719 1.11893L19.9098 1.01509C19.8681 0.952579 19.7606 0.89539 19.5872 0.843235C19.4134 0.791189 19.1914 0.782581 18.9206 0.817267L15.9216 0.837983C15.8731 0.820768 15.8037 0.822373 15.7133 0.843235C15.623 0.864097 15.5779 0.874565 15.5779 0.874565L15.5257 0.900643L15.4843 0.931972C15.4495 0.952689 15.4114 0.989125 15.3697 1.04121C15.3282 1.09311 15.2935 1.15402 15.2658 1.22342C14.9393 2.06342 14.5681 2.84441 14.1515 3.56634C13.8946 3.99683 13.6587 4.3699 13.4432 4.68579C13.2281 5.00157 13.0476 5.23423 12.9019 5.38336C12.756 5.53264 12.6244 5.65224 12.5061 5.74258C12.388 5.83296 12.2979 5.87114 12.2355 5.85717C12.173 5.84321 12.1141 5.82935 12.0583 5.81549C11.9612 5.75297 11.883 5.66796 11.8241 5.56036C11.765 5.45277 11.7252 5.31735 11.7043 5.1542C11.6836 4.99095 11.6714 4.85054 11.6679 4.73247C11.6646 4.61456 11.6661 4.44777 11.6732 4.23258C11.6804 4.01729 11.6836 3.87162 11.6836 3.79524C11.6836 3.5314 11.6888 3.24505 11.6991 2.93613C11.7096 2.62721 11.7181 2.38244 11.7252 2.20213C11.7323 2.02162 11.7356 1.83065 11.7356 1.62933C11.7356 1.428 11.7233 1.27011 11.6991 1.15551C11.6752 1.04106 11.6384 0.929966 11.59 0.822263C11.5413 0.71467 11.4701 0.631439 11.3766 0.572354C11.2829 0.513342 11.1664 0.466511 11.0277 0.431716C10.6598 0.34845 10.1912 0.303406 9.62183 0.296404C8.33067 0.282544 7.50103 0.36592 7.1331 0.546422C6.98732 0.622686 6.8554 0.726888 6.73745 0.858699C6.61245 1.01148 6.59502 1.09486 6.68525 1.10857C7.10184 1.17098 7.39676 1.32026 7.57033 1.55627L7.63288 1.68134C7.68153 1.77157 7.73012 1.93132 7.77873 2.16036C7.82728 2.38941 7.85861 2.64279 7.87239 2.92034C7.90704 3.4272 7.90704 3.86107 7.87239 4.22201C7.83764 4.58308 7.80481 4.86418 7.77348 5.0655C7.74215 5.26683 7.69532 5.42997 7.63288 5.55489C7.57033 5.67985 7.52872 5.75622 7.50785 5.78394C7.48703 5.81166 7.46967 5.82913 7.45588 5.83598C7.36565 5.87056 7.2718 5.88818 7.17468 5.88818C7.0774 5.88818 6.95945 5.83952 6.82064 5.74229C6.68186 5.64505 6.53783 5.51149 6.38855 5.34138C6.23927 5.17124 6.07091 4.93347 5.88341 4.62805C5.69605 4.32263 5.50165 3.96167 5.30032 3.54515L5.13375 3.24309C5.02962 3.04876 4.88738 2.76581 4.70688 2.39448C4.52627 2.02301 4.36663 1.66368 4.22785 1.31657C4.17237 1.17079 4.08904 1.05981 3.97798 0.983435L3.92586 0.952105C3.89121 0.924386 3.83559 0.894953 3.75929 0.863586C3.68288 0.832257 3.60315 0.809789 3.51977 0.795966L0.66657 0.816683C0.37501 0.816683 0.177183 0.882734 0.0730178 1.01466L0.0313298 1.07706C0.0105041 1.11182 0 1.16733 0 1.24374C0 1.32011 0.0208258 1.41385 0.0625138 1.52483C0.479029 2.50375 0.93198 3.44784 1.42137 4.35725C1.91075 5.26665 2.33602 5.9992 2.69692 6.55424C3.05789 7.10968 3.42582 7.63389 3.80072 8.12664C4.17562 8.61956 4.42378 8.93545 4.5452 9.07423C4.66676 9.21326 4.76224 9.31721 4.83165 9.38661L5.09203 9.63649C5.25863 9.80313 5.50329 10.0027 5.82611 10.2352C6.149 10.4679 6.50646 10.6969 6.89869 10.9227C7.29099 11.1482 7.74737 11.3321 8.26808 11.4744C8.78873 11.6168 9.29548 11.674 9.7884 11.6464H10.9859C11.2288 11.6254 11.4128 11.5491 11.5379 11.4173L11.5793 11.3651C11.6072 11.3236 11.6333 11.2593 11.6573 11.1726C11.6817 11.0859 11.6938 10.9903 11.6938 10.8863C11.6867 10.5878 11.7094 10.3188 11.7613 10.0794C11.8132 9.83997 11.8724 9.65946 11.9386 9.5379C12.0047 9.41645 12.0793 9.31396 12.1624 9.23088C12.2456 9.14761 12.3049 9.09717 12.3397 9.07981C12.3743 9.06234 12.4019 9.05048 12.4227 9.04337C12.5893 8.98786 12.7854 9.04162 13.0112 9.20491C13.2369 9.36805 13.4485 9.56949 13.6465 9.80889C13.8444 10.0485 14.0821 10.3174 14.3597 10.6158C14.6375 10.9144 14.8804 11.1363 15.0886 11.2823L15.2968 11.4073C15.4358 11.4906 15.6163 11.567 15.8385 11.6364C16.0603 11.7058 16.2546 11.7231 16.4215 11.6885L19.0872 11.6469C19.3508 11.6469 19.556 11.6032 19.7015 11.5166C19.8473 11.4298 19.9339 11.3342 19.9619 11.2303C19.9897 11.1262 19.9912 11.0081 19.9672 10.876C19.9425 10.7443 19.9181 10.6522 19.8939 10.6002Z" fill="white"/>
</svg>
