<svg width="20" height="20" viewBox="0 0 20 20" fill="none" xmlns="http://www.w3.org/2000/svg">
<path d="M16.9643 2.94643C15.1339 1.07143 12.6339 0 9.95536 0C4.50893 0 0.0446429 4.46429 0.0446429 9.91072C0.0446429 11.6964 0.535714 13.3929 1.38393 14.8661L0 20L5.22321 18.6607C6.69643 19.4196 8.30357 19.8661 9.95536 19.8661C15.4464 19.8661 20 15.4018 20 9.95536C20 7.27679 18.8393 4.82143 16.9643 2.94643ZM9.95536 18.1696C8.48214 18.1696 7.05357 17.7679 5.75893 17.0089L5.49107 16.8304L2.36607 17.6786L3.21429 14.6429L2.99107 14.3304C2.1875 12.9911 1.74107 11.4732 1.74107 9.91072C1.74107 5.40179 5.44643 1.69643 10 1.69643C12.1875 1.69643 14.2411 2.54464 15.8036 4.10714C17.3661 5.66964 18.3036 7.72321 18.3036 9.95536C18.3036 14.4643 14.5089 18.1696 9.95536 18.1696ZM14.5089 12.0089C14.2411 11.875 13.0357 11.2946 12.8125 11.2054C12.5893 11.1161 12.4107 11.0714 12.2321 11.3393C12.0982 11.5625 11.6071 12.1429 11.4732 12.3214C11.2946 12.4554 11.1607 12.5 10.9375 12.3661C9.46429 11.6518 8.52679 11.0714 7.54464 9.41964C7.27679 8.97322 7.8125 9.01786 8.25893 8.08036C8.34821 7.90179 8.30357 7.76786 8.25893 7.63393C8.21429 7.5 7.67857 6.29464 7.5 5.80357C7.27679 5.3125 7.09821 5.35714 6.91964 5.35714C6.78571 5.35714 6.60714 5.35714 6.47321 5.35714C6.29464 5.35714 6.02679 5.40179 5.80357 5.66964C5.58036 5.9375 4.95536 6.51786 4.95536 7.72321C4.95536 8.97322 5.80357 10.1339 5.9375 10.3125C6.07143 10.4464 7.67857 12.9464 10.1786 14.0179C11.7411 14.7321 12.3661 14.7768 13.1696 14.6429C13.6161 14.5982 14.5982 14.0625 14.8214 13.4821C15.0446 12.9018 15.0446 12.4107 14.9554 12.3214C14.9107 12.1875 14.7321 12.1429 14.5089 12.0089Z" fill="black"/>
</svg>
