<svg width="34" height="31" viewBox="0 0 34 31" fill="none" xmlns="http://www.w3.org/2000/svg">
<g clip-path="url(#clip0_175_1776)">
<path d="M21 12.5H18C18 10.9087 17.3679 9.38258 16.2426 8.25736C15.1174 7.13214 13.5913 6.5 12 6.5C10.4087 6.5 8.88258 7.13214 7.75736 8.25736C6.63214 9.38258 6 10.9087 6 12.5H3C2.20435 12.5 1.44129 12.8161 0.87868 13.3787C0.31607 13.9413 0 14.7044 0 15.5L0 25.5C0.00158786 26.8256 0.528882 28.0964 1.46622 29.0338C2.40356 29.9711 3.67441 30.4984 5 30.5H19C20.3256 30.4984 21.5964 29.9711 22.5338 29.0338C23.4711 28.0964 23.9984 26.8256 24 25.5V15.5C24 14.7044 23.6839 13.9413 23.1213 13.3787C22.5587 12.8161 21.7956 12.5 21 12.5ZM12 8.5C13.0609 8.5 14.0783 8.92143 14.8284 9.67157C15.5786 10.4217 16 11.4391 16 12.5H8C8 11.4391 8.42143 10.4217 9.17157 9.67157C9.92172 8.92143 10.9391 8.5 12 8.5ZM22 25.5C22 26.2956 21.6839 27.0587 21.1213 27.6213C20.5587 28.1839 19.7956 28.5 19 28.5H5C4.20435 28.5 3.44129 28.1839 2.87868 27.6213C2.31607 27.0587 2 26.2956 2 25.5V15.5C2 15.2348 2.10536 14.9804 2.29289 14.7929C2.48043 14.6054 2.73478 14.5 3 14.5H6V16.5C6 16.7652 6.10536 17.0196 6.29289 17.2071C6.48043 17.3946 6.73478 17.5 7 17.5C7.26522 17.5 7.51957 17.3946 7.70711 17.2071C7.89464 17.0196 8 16.7652 8 16.5V14.5H16V16.5C16 16.7652 16.1054 17.0196 16.2929 17.2071C16.4804 17.3946 16.7348 17.5 17 17.5C17.2652 17.5 17.5196 17.3946 17.7071 17.2071C17.8946 17.0196 18 16.7652 18 16.5V14.5H21C21.2652 14.5 21.5196 14.6054 21.7071 14.7929C21.8946 14.9804 22 15.2348 22 15.5V25.5Z" fill="black"/>
</g>
<circle cx="24" cy="10.5" r="8.5" fill="#CA354F" stroke="white" stroke-width="3"/>
<path d="M23.9996 14.1385C23.4148 14.1385 22.9129 13.9905 22.4939 13.6946C22.0772 13.3963 21.7564 12.9666 21.5315 12.4055C21.309 11.8421 21.1977 11.1638 21.1977 10.3707C21.2001 9.57765 21.3125 8.90294 21.5351 8.34659C21.76 7.78788 22.0808 7.36174 22.4974 7.06818C22.9165 6.77462 23.4172 6.62784 23.9996 6.62784C24.5819 6.62784 25.0827 6.77462 25.5017 7.06818C25.9207 7.36174 26.2415 7.78788 26.464 8.34659C26.689 8.9053 26.8014 9.58002 26.8014 10.3707C26.8014 11.1662 26.689 11.8456 26.464 12.4091C26.2415 12.9702 25.9207 13.3987 25.5017 13.6946C25.085 13.9905 24.5843 14.1385 23.9996 14.1385ZM23.9996 13.027C24.4541 13.027 24.8128 12.8033 25.0756 12.3558C25.3407 11.906 25.4733 11.2443 25.4733 10.3707C25.4733 9.79309 25.4129 9.30777 25.2922 8.91477C25.1714 8.52178 25.001 8.22585 24.7808 8.02699C24.5606 7.82576 24.3002 7.72514 23.9996 7.72514C23.5474 7.72514 23.1899 7.95005 22.9271 8.39986C22.6643 8.8473 22.5318 9.50426 22.5294 10.3707C22.527 10.9508 22.585 11.4384 22.7034 11.8338C22.8241 12.2292 22.9946 12.5275 23.2148 12.7287C23.4349 12.9276 23.6965 13.027 23.9996 13.027Z" fill="white"/>
<defs>
<clipPath id="clip0_175_1776">
<rect width="24" height="24" fill="white" transform="translate(0 6.5)"/>
</clipPath>
</defs>
</svg>
