<svg width="24" height="25" viewBox="0 0 24 25" fill="none" xmlns="http://www.w3.org/2000/svg">
<g clip-path="url(#clip0_175_1767)">
<path d="M12 12.5C13.1867 12.5 14.3467 12.1481 15.3334 11.4888C16.3201 10.8295 17.0892 9.89246 17.5433 8.7961C17.9974 7.69975 18.1162 6.49335 17.8847 5.32946C17.6532 4.16557 17.0818 3.09648 16.2426 2.25736C15.4035 1.41825 14.3344 0.846802 13.1705 0.615291C12.0067 0.38378 10.8003 0.5026 9.7039 0.956725C8.60754 1.41085 7.67047 2.17989 7.01118 3.16658C6.35189 4.15328 6 5.31331 6 6.5C6.00159 8.09081 6.63424 9.61601 7.75911 10.7409C8.88399 11.8658 10.4092 12.4984 12 12.5ZM12 2.5C12.7911 2.5 13.5645 2.7346 14.2223 3.17412C14.8801 3.61365 15.3928 4.23836 15.6955 4.96927C15.9983 5.70017 16.0775 6.50444 15.9231 7.28036C15.7688 8.05629 15.3878 8.76902 14.8284 9.32843C14.269 9.88784 13.5563 10.2688 12.7804 10.4231C12.0044 10.5775 11.2002 10.4983 10.4693 10.1955C9.73836 9.89277 9.11365 9.38008 8.67412 8.72228C8.2346 8.06449 8 7.29113 8 6.5C8 5.43914 8.42143 4.42172 9.17157 3.67158C9.92172 2.92143 10.9391 2.5 12 2.5Z" fill="black"/>
<path d="M12 14.5C9.61386 14.5026 7.32622 15.4517 5.63896 17.139C3.95171 18.8262 3.00265 21.1139 3 23.5C3 23.7652 3.10536 24.0196 3.29289 24.2071C3.48043 24.3946 3.73478 24.5 4 24.5C4.26522 24.5 4.51957 24.3946 4.70711 24.2071C4.89464 24.0196 5 23.7652 5 23.5C5 21.6435 5.7375 19.863 7.05025 18.5503C8.36301 17.2375 10.1435 16.5 12 16.5C13.8565 16.5 15.637 17.2375 16.9497 18.5503C18.2625 19.863 19 21.6435 19 23.5C19 23.7652 19.1054 24.0196 19.2929 24.2071C19.4804 24.3946 19.7348 24.5 20 24.5C20.2652 24.5 20.5196 24.3946 20.7071 24.2071C20.8946 24.0196 21 23.7652 21 23.5C20.9974 21.1139 20.0483 18.8262 18.361 17.139C16.6738 15.4517 14.3861 14.5026 12 14.5Z" fill="black"/>
</g>
<defs>
<clipPath id="clip0_175_1767">
<rect width="24" height="24" fill="white" transform="translate(0 0.5)"/>
</clipPath>
</defs>
</svg>
