<svg width="35" height="31" viewBox="0 0 35 31" fill="none" xmlns="http://www.w3.org/2000/svg">
<g clip-path="url(#clip0_175_1770)">
<path d="M17.5009 8.41602C16.3749 8.43353 15.2734 8.74787 14.3077 9.32729C13.342 9.9067 12.5463 10.7307 12.0009 11.716C11.4556 10.7307 10.6599 9.9067 9.69417 9.32729C8.72848 8.74787 7.62698 8.43353 6.50094 8.41602C4.70588 8.49401 3.01464 9.27927 1.79672 10.6002C0.578794 11.9212 -0.0668157 13.6705 0.000934853 15.466C0.000934853 20.013 4.78693 24.979 8.80093 28.346C9.69715 29.0991 10.8303 29.512 12.0009 29.512C13.1716 29.512 14.3047 29.0991 15.2009 28.346C19.2149 24.979 24.0009 20.013 24.0009 15.466C24.0687 13.6705 23.4231 11.9212 22.2052 10.6002C20.9872 9.27927 19.296 8.49401 17.5009 8.41602ZM13.9159 26.816C13.3799 27.2674 12.7017 27.5149 12.0009 27.5149C11.3002 27.5149 10.622 27.2674 10.0859 26.816C4.94793 22.505 2.00093 18.369 2.00093 15.466C1.93258 14.2007 2.3673 12.9597 3.2103 12.0137C4.0533 11.0677 5.23617 10.4934 6.50094 10.416C7.7657 10.4934 8.94857 11.0677 9.79157 12.0137C10.6346 12.9597 11.0693 14.2007 11.0009 15.466C11.0009 15.7312 11.1063 15.9856 11.2938 16.1731C11.4814 16.3607 11.7357 16.466 12.0009 16.466C12.2662 16.466 12.5205 16.3607 12.708 16.1731C12.8956 15.9856 13.0009 15.7312 13.0009 15.466C12.9326 14.2007 13.3673 12.9597 14.2103 12.0137C15.0533 11.0677 16.2362 10.4934 17.5009 10.416C18.7657 10.4934 19.9486 11.0677 20.7916 12.0137C21.6346 12.9597 22.0693 14.2007 22.0009 15.466C22.0009 18.369 19.0539 22.505 13.9159 26.812V26.816Z" fill="black"/>
</g>
<circle cx="25" cy="10.5" r="8.5" fill="#CA354F" stroke="white" stroke-width="3"/>
<path d="M25.0107 14.0994C24.5372 14.0994 24.1134 14.0107 23.7393 13.8331C23.3653 13.6532 23.0682 13.407 22.848 13.0945C22.6302 12.782 22.5142 12.4245 22.5 12.022H23.7784C23.8021 12.3203 23.9311 12.5642 24.1655 12.7536C24.3999 12.9406 24.6816 13.0341 25.0107 13.0341C25.2687 13.0341 25.4983 12.9749 25.6996 12.8565C25.9008 12.7382 26.0594 12.5736 26.1754 12.3629C26.2914 12.1522 26.3482 11.9119 26.3459 11.642C26.3482 11.3674 26.2902 11.1236 26.1719 10.9105C26.0535 10.6974 25.8913 10.5305 25.6854 10.4098C25.4794 10.2867 25.2427 10.2251 24.9751 10.2251C24.7573 10.2228 24.5431 10.263 24.3324 10.3459C24.1217 10.4287 23.9548 10.5376 23.8317 10.6726L22.642 10.4773L23.022 6.72727H27.2408V7.82812H24.1122L23.9027 9.75639H23.9453C24.0803 9.59777 24.2708 9.46638 24.517 9.36222C24.7633 9.25568 25.0331 9.20241 25.3267 9.20241C25.767 9.20241 26.16 9.30658 26.5057 9.51491C26.8513 9.72088 27.1236 10.005 27.3224 10.3672C27.5213 10.7294 27.6207 11.1437 27.6207 11.6101C27.6207 12.0907 27.5095 12.5192 27.2869 12.8956C27.0668 13.2696 26.7602 13.5644 26.3672 13.7798C25.9766 13.9929 25.5244 14.0994 25.0107 14.0994Z" fill="white"/>
<defs>
<clipPath id="clip0_175_1770">
<rect width="24" height="24" fill="white" transform="translate(0 6.5)"/>
</clipPath>
</defs>
</svg>
