<svg width="27" height="27" viewBox="0 0 27 27" fill="none" xmlns="http://www.w3.org/2000/svg">
<path d="M7.31116 11.9234C6.76778 11.9234 6.22441 11.8626 5.69453 11.7377C5.01278 11.5791 4.38841 11.2315 3.89228 10.7354C3.39616 10.2392 3.04853 9.61486 2.88653 8.93311C2.63678 7.86999 2.63678 6.75286 2.88653 5.69648C3.04516 5.01473 3.39278 4.39036 3.88891 3.89423C4.38503 3.39811 5.00941 3.05048 5.69116 2.88848C6.75428 2.63873 7.87141 2.63873 8.92778 2.88848C9.60953 3.04711 10.2339 3.39473 10.73 3.89086C11.2262 4.38698 11.5738 5.01136 11.7358 5.69311C11.9855 6.75623 11.9855 7.87336 11.7358 8.92973C11.5772 9.61149 11.2295 10.2359 10.7334 10.732C10.2373 11.2281 9.61291 11.5757 8.93116 11.7377C8.40128 11.8626 7.85791 11.9234 7.31116 11.9234ZM7.31453 4.38698C6.89941 4.38698 6.48428 4.43423 6.08266 4.52873C5.30978 4.71098 4.71241 5.30836 4.53016 6.08123C4.34116 6.88448 4.34116 7.73836 4.53016 8.54498C4.71241 9.31786 5.30978 9.91524 6.08266 10.0975C6.88591 10.2865 7.73978 10.2865 8.54641 10.0975C9.31928 9.91524 9.91666 9.31786 10.0989 8.54498C10.2879 7.74173 10.2879 6.88786 10.0989 6.08123C9.91666 5.30836 9.31928 4.71098 8.54641 4.52873C8.14478 4.43423 7.72966 4.38698 7.31453 4.38698Z" fill="black"/>
<path d="M7.31116 24.2964C6.76778 24.2964 6.22441 24.2357 5.69453 24.1108C5.01278 23.9522 4.38841 23.6045 3.89228 23.1084C3.39616 22.6123 3.04853 21.9879 2.88653 21.3062C2.63678 20.2498 2.63678 19.1293 2.88653 18.0695C3.04516 17.3878 3.39278 16.7634 3.88891 16.2673C4.38503 15.7712 5.00941 15.4235 5.69116 15.2615C6.75428 15.0118 7.87141 15.0118 8.92778 15.2615C9.60953 15.4202 10.2339 15.7678 10.73 16.2639C11.2262 16.76 11.5738 17.3844 11.7358 18.0662C11.9855 19.1293 11.9855 20.2464 11.7358 21.3028C11.5772 21.9845 11.2295 22.6089 10.7334 23.105C10.2373 23.6012 9.61291 23.9488 8.93116 24.1108C8.40128 24.2357 7.85791 24.2964 7.31116 24.2964ZM4.53016 18.4543C4.34116 19.2609 4.34116 20.1148 4.53016 20.918C4.71241 21.6943 5.30978 22.2883 6.08266 22.4705C6.88591 22.6595 7.73978 22.6595 8.54641 22.4705C9.31928 22.2883 9.91666 21.6909 10.0989 20.918C10.2879 20.1148 10.2879 19.2609 10.0989 18.4543C9.91666 17.6814 9.31928 17.084 8.54641 16.9018C7.74316 16.7128 6.88928 16.7128 6.08266 16.9018C5.30641 17.0874 4.71241 17.6814 4.53016 18.4543Z" fill="#CA354F"/>
<path d="M19.6862 11.9234C19.1428 11.9234 18.5994 11.8626 18.0695 11.7377C17.3878 11.5791 16.7634 11.2315 16.2673 10.7354C15.7712 10.2392 15.4235 9.61486 15.2615 8.93311C15.0118 7.86999 15.0118 6.75286 15.2615 5.69648C15.4202 5.01473 15.7678 4.39036 16.2639 3.89423C16.76 3.39811 17.3844 3.05048 18.0662 2.88848C19.1293 2.63873 20.2464 2.63873 21.3028 2.88848C21.9845 3.04711 22.6089 3.39473 23.105 3.89086C23.6012 4.38698 23.9488 5.01136 24.1108 5.69311C24.3605 6.75623 24.3605 7.87336 24.1108 8.92973C23.9522 9.61149 23.6045 10.2359 23.1084 10.732C22.6123 11.2281 21.9879 11.5757 21.3062 11.7377C20.7763 11.8626 20.2329 11.9234 19.6862 11.9234ZM19.6895 4.38698C19.2744 4.38698 18.8593 4.43423 18.4577 4.52873C17.6848 4.71098 17.0874 5.30836 16.9052 6.08123C16.7162 6.88448 16.7162 7.73836 16.9052 8.54498C17.0874 9.31786 17.6848 9.91524 18.4577 10.0975C19.2609 10.2865 20.1148 10.2865 20.9214 10.0975C21.6943 9.91524 22.2917 9.31786 22.4739 8.54498C22.6629 7.74173 22.6629 6.88786 22.4739 6.08123C22.2917 5.30836 21.6943 4.71098 20.9214 4.52873C20.5198 4.43423 20.1047 4.38698 19.6895 4.38698Z" fill="black"/>
<path d="M19.6862 24.2964C19.1428 24.2964 18.5994 24.2357 18.0695 24.1108C17.3878 23.9522 16.7634 23.6045 16.2673 23.1084C15.7712 22.6123 15.4235 21.9879 15.2615 21.3062C15.0118 20.2498 15.0118 19.1293 15.2615 18.0695C15.4202 17.3878 15.7678 16.7634 16.2639 16.2673C16.76 15.7712 17.3844 15.4235 18.0662 15.2615C19.1293 15.0118 20.2464 15.0118 21.3028 15.2615C21.9845 15.4202 22.6089 15.7678 23.105 16.2639C23.6012 16.76 23.9488 17.3844 24.1108 18.0662C24.3605 19.1293 24.3605 20.2464 24.1108 21.3028C23.9522 21.9845 23.6045 22.6089 23.1084 23.105C22.6123 23.6012 21.9879 23.9488 21.3062 24.1108C20.7763 24.2357 20.2329 24.2964 19.6862 24.2964ZM16.9052 18.4543C16.7162 19.2609 16.7162 20.1148 16.9052 20.918C17.0874 21.6943 17.6848 22.2883 18.4577 22.4705C19.2609 22.6595 20.1148 22.6595 20.9214 22.4705C21.6943 22.2883 22.2917 21.6909 22.4739 20.918C22.6629 20.1148 22.6629 19.2609 22.4739 18.4543C22.2917 17.6814 21.6943 17.084 20.9214 16.9018C20.1182 16.7128 19.2643 16.7128 18.4577 16.9018C17.6814 17.0874 17.0874 17.6814 16.9052 18.4543Z" fill="black"/>
</svg>
