<svg width="133" height="56" viewBox="0 0 133 56" fill="none" xmlns="http://www.w3.org/2000/svg">
<path d="M19.1429 56C15.6407 56 12.3923 55.2818 9.63112 53.825C4.91076 51.3319 1.79433 46.7459 0.616779 40.5389C-0.641983 33.8702 0.0381563 26.5449 2.54552 19.8968C5.1544 12.9716 9.61082 7.27758 15.0925 3.86116C20.026 0.783267 26.1879 -0.51969 32.441 0.188216C38.6638 0.896122 44.3992 3.5226 48.5714 7.60588C55.8803 14.7362 57.3827 23.898 52.8045 33.3983C49.0688 41.175 41.5163 48.5208 33.1009 52.5733C28.3907 54.8509 23.5688 56 19.1429 56ZM29.1216 1.37832C24.2794 1.37832 19.6403 2.64024 15.7828 5.04101C10.5447 8.30353 6.28119 13.7616 3.78398 20.3995C1.37812 26.8014 0.718292 33.86 1.92629 40.2722C3.03278 46.1304 5.82438 50.2752 10.23 52.5938C16.0264 55.6512 24.5738 55.1587 32.5324 51.3217C40.6839 47.3923 47.9928 40.2824 51.6168 32.7725C54.652 26.4731 56.4387 17.1575 47.6578 8.60106C43.6887 4.73322 38.2273 2.22986 32.2888 1.55273C31.2432 1.43988 30.1773 1.37832 29.1216 1.37832ZM18.9297 54.1533C15.8133 54.1533 12.9201 53.5069 10.4635 52.2142C6.28119 50.0084 3.52004 45.9354 2.47446 40.4568C1.35782 34.5679 1.9466 28.0839 4.13927 22.1949C4.76865 20.5123 5.51985 18.8913 6.3827 17.3627C8.65659 13.3717 11.7223 10.0784 15.2448 7.86237C19.6301 5.0923 25.1118 3.9022 30.6646 4.49725C36.1767 5.10256 41.2625 7.41095 44.9677 11.012C48.3988 14.3464 50.3885 18.1424 50.9062 22.2975C51.363 25.9704 50.6524 29.8588 48.8049 33.8395C45.5057 40.939 38.7653 47.5769 31.2127 51.1575C27.071 53.1479 22.8278 54.1533 18.9297 54.1533ZM27.8628 5.58476C23.5181 5.58476 19.3357 6.73382 15.8843 8.9191C12.5242 11.0326 9.60067 14.172 7.42829 17.9885C6.59588 19.4454 5.86499 21.0151 5.26606 22.6361C3.14445 28.3096 2.56582 34.5474 3.65201 40.2106C4.63668 45.3814 7.1136 49.0543 11.0117 51.1062C16.2092 53.8558 23.579 53.4454 30.7255 50.029C37.9227 46.6125 44.6023 40.0465 47.739 33.2957C50.358 27.6735 51.8503 19.3941 44.1556 11.9149C40.6331 8.49846 35.8011 6.30293 30.5428 5.72839C29.6494 5.63606 28.746 5.58476 27.8628 5.58476ZM18.7064 52.2861C15.9655 52.2861 13.4175 51.7218 11.2655 50.583C7.64146 48.6542 5.23561 45.1249 4.32199 40.3748C3.33732 35.2655 3.83473 29.6228 5.73302 24.4828C6.27104 23.0054 6.93087 21.5793 7.68207 20.2353C9.65143 16.7266 12.3212 13.8231 15.4072 11.8533C19.2444 9.39104 24.0358 8.31379 28.8982 8.80625C33.7099 9.30896 38.1359 11.3096 41.3742 14.4285C48.4598 21.2818 47.1604 29.0072 44.8256 34.2806C41.9934 40.662 36.065 46.5818 29.3551 49.7314C25.7514 51.4345 22.0766 52.2861 18.7064 52.2861ZM26.5939 9.79116C22.7364 9.79116 19.0312 10.8274 15.9655 12.7869C13.0318 14.6644 10.4838 17.4242 8.60583 20.7791C7.88509 22.0615 7.25571 23.4363 6.738 24.8624C4.91077 29.8075 4.43366 35.2347 5.37773 40.1491C6.24059 44.6222 8.39266 47.8027 11.7629 49.5981C16.2701 51.9885 22.6857 51.6705 28.9185 48.7363C35.4154 45.6892 41.1407 39.9746 43.8612 33.8292C46.0539 28.8841 47.2822 21.6409 40.6534 15.239C37.5877 12.2842 33.375 10.3862 28.7967 9.91427C28.0557 9.8322 27.3248 9.79116 26.5939 9.79116ZM18.483 50.4291C16.1178 50.4291 13.9251 49.9366 12.0776 48.9517C9.00173 47.3102 6.96133 44.3144 6.16953 40.2824C5.32697 35.9529 5.73302 31.1515 7.32677 26.7706C7.78358 25.4985 8.33175 24.2673 8.97128 23.108C10.6361 20.0814 12.91 17.5679 15.5493 15.8545C18.8485 13.6898 22.9597 12.7254 27.1218 13.1255C31.2127 13.5154 34.989 15.1979 37.7705 17.8449C42.4807 22.3796 43.5364 28.2172 40.826 34.732C38.4608 40.4055 33.3445 45.6174 27.4669 48.3259C24.4317 49.7212 21.3355 50.4291 18.483 50.4291ZM25.3047 13.9976C21.9548 13.9976 18.7267 14.9209 16.0569 16.665C13.5495 18.2963 11.3771 20.697 9.78339 23.5799C9.17431 24.6982 8.63629 25.8781 8.19978 27.099C6.66694 31.3156 6.27104 35.9324 7.08314 40.0875C7.82419 43.8733 9.65143 46.5715 12.5039 48.1002C16.3208 50.1316 21.772 49.8853 27.0913 47.4436C32.6745 44.8684 37.7299 39.7387 39.9733 34.3524C42.5517 28.1557 41.5975 22.8413 37.1411 18.5528C34.5119 16.0392 30.9285 14.4592 27.0406 14.0796C26.4619 14.0283 25.8833 13.9976 25.3047 13.9976ZM18.2699 48.5721C16.2802 48.5721 14.4428 48.1617 12.91 47.3307C10.3823 45.9662 8.6972 43.5039 8.02721 40.1901C7.31662 36.6506 7.64146 32.7006 8.92052 29.0483C9.29613 27.971 9.75294 26.9348 10.2707 25.9704C11.6309 23.426 13.5191 21.3023 15.7117 19.8352C18.4729 17.9782 21.8939 17.1164 25.3555 17.414C28.746 17.7012 31.8726 19.0555 34.1769 21.2408C38.0648 24.9239 38.9582 29.6023 36.8365 35.1629C34.9383 40.1388 30.6341 44.6325 25.5991 46.8896C23.112 48.0181 20.5844 48.5721 18.2699 48.5721ZM24.0256 18.1937C21.1833 18.1937 18.4221 19.0042 16.1482 20.5329C14.0571 21.9282 12.2705 23.9493 10.9711 26.3705C10.4737 27.2939 10.0372 28.2891 9.68188 29.3253C8.43326 32.8443 8.12872 36.6403 8.80886 40.0259C9.4281 43.1243 10.9305 45.3404 13.2754 46.6023C16.402 48.2848 20.8889 48.1104 25.2844 46.1406C30.0555 43.9964 34.2987 39.5745 36.0955 34.8757C38.075 29.6638 37.2527 25.2933 33.6389 21.8666C31.4665 19.8147 28.5023 18.5323 25.2945 18.2553C24.8682 18.2142 24.4418 18.1937 24.0256 18.1937ZM18.0567 46.7254C16.4528 46.7254 14.9605 46.3868 13.7322 45.72C11.7223 44.6222 10.4229 42.7447 9.87475 40.1183C9.30628 37.3687 9.52961 34.2498 10.5143 31.3567C10.8087 30.4846 11.164 29.6433 11.5599 28.8636C12.6156 26.8117 14.0977 25.0778 15.864 23.8569C18.0871 22.3078 20.828 21.5588 23.579 21.7537C26.2589 21.9384 28.746 22.9746 30.5732 24.6777C33.6084 27.5093 34.3495 31.0899 32.8369 35.6349C31.4158 39.9131 27.9237 43.6886 23.7211 45.4943C21.7924 46.3048 19.8535 46.7254 18.0567 46.7254ZM22.7364 22.4001C20.4016 22.4001 18.1176 23.108 16.2295 24.4212C14.5646 25.5805 13.1435 27.2323 12.1486 29.1816C11.7629 29.9306 11.4279 30.7308 11.1437 31.5721C10.1996 34.3524 9.98642 37.3379 10.5244 39.9644C11.0218 42.3856 12.2095 44.1092 14.0368 45.1044C16.4731 46.4279 19.9956 46.3253 23.4572 44.8377C27.4872 43.1038 30.8371 39.4822 32.2076 35.3886C33.6186 31.1309 32.9385 27.7863 30.1266 25.1702C28.411 23.5697 26.066 22.595 23.5384 22.4206C23.2643 22.4104 23.0004 22.4001 22.7364 22.4001ZM17.8537 44.8787C16.6254 44.8787 15.4884 44.6222 14.5646 44.1092C13.1029 43.2987 12.1486 41.924 11.7324 40.0259C11.3061 38.0561 11.438 35.7785 12.108 33.6343C12.3212 32.9674 12.5648 32.321 12.8491 31.726C13.6003 30.1563 14.6966 28.8123 16.0061 27.8376C17.6811 26.5962 19.7316 25.9601 21.7924 26.0422C23.7617 26.1243 25.5991 26.8425 26.9594 28.0736C29.1419 30.0434 29.7408 32.5878 28.8272 36.0658C27.8933 39.6463 25.2133 42.7037 21.8228 44.0579C20.4828 44.6017 19.1226 44.8787 17.8537 44.8787ZM21.4371 26.5962C19.6098 26.5962 17.8029 27.1913 16.3208 28.2993C15.0722 29.2227 14.0368 30.4949 13.3262 31.9825C13.0521 32.557 12.8085 33.1726 12.6156 33.8189C11.9659 35.8708 11.8441 38.0356 12.2502 39.9233C12.6257 41.6572 13.4886 42.9089 14.8184 43.6373C16.5746 44.6017 19.1226 44.5812 21.6502 43.5655C24.8783 42.2728 27.4365 39.3488 28.3298 35.9427C29.1825 32.6904 28.6343 30.3307 26.6244 28.5148C25.3555 27.3657 23.6399 26.6988 21.7822 26.6168C21.6705 26.5962 21.5487 26.5962 21.4371 26.5962ZM17.6709 43.0525C16.8284 43.0525 16.0569 42.8678 15.4173 42.5087C14.4936 41.9855 13.8744 41.1237 13.58 39.9439C13.2856 38.723 13.3262 37.3379 13.7018 35.9324C13.8236 35.4707 13.9759 35.0296 14.1484 34.6089C14.5951 33.5214 15.2955 32.5673 16.1685 31.8491C17.2852 30.9155 18.6556 30.3923 20.026 30.3717C21.2949 30.3512 22.4725 30.7513 23.3658 31.5003C25.122 32.9777 25.0509 35.0706 24.8479 36.5172C24.4418 39.3591 22.5232 41.7701 19.9651 42.6524C19.1733 42.9191 18.4018 43.0525 17.6709 43.0525ZM20.026 30.7719C18.747 30.7924 17.4578 31.2848 16.4122 32.1672C15.5899 32.8545 14.9301 33.7574 14.5139 34.7731C14.3515 35.1732 14.2093 35.5938 14.0875 36.0452C13.7322 37.3892 13.6916 38.7025 13.9657 39.8515C14.2297 40.9185 14.7778 41.688 15.6102 42.1599C16.7066 42.7755 18.2496 42.8165 19.8332 42.2625C22.2492 41.4212 24.0561 39.1436 24.4418 36.4556C24.7565 34.2909 24.3403 32.8545 23.1019 31.8183C22.2999 31.1207 21.2036 30.7513 20.026 30.7719ZM17.5288 41.2776C16.9096 41.2776 16.3513 41.0622 15.9554 40.6723C15.5696 40.2927 15.1331 39.554 15.3057 38.2305C15.3361 37.9946 15.3869 37.7483 15.4478 37.4918C15.8031 36.0965 16.9603 34.9372 18.2496 34.6807C18.8891 34.5474 19.4576 34.6602 19.9144 35.009C20.4321 35.3989 20.7468 36.076 20.8483 36.9583C21.1122 39.3693 19.6606 40.9288 18.0871 41.2366C17.8841 41.2673 17.7014 41.2776 17.5288 41.2776ZM15.5595 38.2613C15.4377 39.2257 15.6407 39.9849 16.1381 40.4774C16.5949 40.9288 17.2953 41.1032 18.0364 40.9596C19.955 40.5902 20.7671 38.6819 20.5844 36.9789C20.493 36.1684 20.2088 35.5631 19.7621 35.2245C19.3662 34.927 18.8688 34.8346 18.3003 34.9475C17.1025 35.1937 16.0366 36.2607 15.7016 37.5637C15.6305 37.7996 15.5798 38.0356 15.5595 38.2613Z" fill="black"/>
<path d="M76.4684 5.22461H73.1484V27.6211H76.4684V5.22461Z" fill="black"/>
<path d="M100.292 18.2644L105.632 27.6211H103.247C102.455 27.6211 101.724 27.1902 101.328 26.5028L96.8509 18.6646H89.1867V27.6211H85.8672V5.22461H86.9737H89.1867H98.0386C101.704 5.22461 104.678 8.23065 104.678 11.9446C104.688 14.8583 102.861 17.3308 100.292 18.2644ZM89.1968 16.4177H96.9422C99.3785 16.4177 101.369 14.4069 101.369 11.9343C101.369 9.46179 99.3785 7.45092 96.9422 7.45092H89.1968V16.4177Z" fill="black"/>
<path d="M118.28 23.0766C114.646 19.4037 114.646 13.4429 118.28 9.77004C121.915 6.09713 127.132 6.09713 130.767 9.77004L133 8.18997C128.503 3.64501 120.108 3.64501 115.621 8.18997C111.124 12.7349 111.124 20.1116 115.621 24.6669C120.118 29.2118 128.513 29.2118 133 24.6669L130.767 23.0869C127.132 26.7495 121.904 26.7495 118.28 23.0766Z" fill="black"/>
<path d="M131.294 45.5449H125.365V46.3759L130.147 46.3862L126.299 51.1466H127.426L131.274 46.3862V45.5449H131.294Z" fill="black"/>
<path d="M79.1487 50.2951H74.3058C74.5495 49.7924 75.0267 49.4231 75.7374 49.1871C76.4887 48.9819 77.0572 48.8383 77.443 48.7562C78.4786 48.4792 79.0065 47.9662 79.0065 47.2173C79.0065 46.6941 78.7629 46.2632 78.2755 45.9246C77.7882 45.586 77.1486 45.4219 76.377 45.4219C75.3211 45.4219 74.3363 45.7604 73.4327 46.4273L74.052 47.0531C74.7424 46.5196 75.514 46.2632 76.3567 46.2632C76.8542 46.2632 77.2501 46.3452 77.5242 46.5094C77.8085 46.6735 77.9405 46.889 77.9405 47.1557C77.9405 47.4122 77.7984 47.6174 77.5141 47.761C77.3313 47.8636 77.0471 47.956 76.6714 48.0586C75.9912 48.233 75.6358 48.3253 75.6054 48.3356C74.0317 48.8075 73.2195 49.7309 73.1484 51.1364H79.1487V50.2951Z" fill="black"/>
<path d="M105.206 49.2076H103.856V45.5449H102.881L98.9922 49.2076V50.0386H102.881V51.1364H103.856V50.0386H105.206V49.2076ZM100.038 49.1973L102.881 46.5093V49.2076L100.038 49.1973Z" fill="black"/>
</svg>
