<svg width="20" height="19" viewBox="0 0 20 19" fill="none" xmlns="http://www.w3.org/2000/svg">
<path d="M14.5835 0.59668C13.6451 0.611275 12.7272 0.873224 11.9224 1.35607C11.1177 1.83892 10.4546 2.52557 10.0001 3.34668C9.54566 2.52557 8.88257 1.83892 8.07783 1.35607C7.27308 0.873224 6.35517 0.611275 5.41679 0.59668C3.92091 0.661672 2.51155 1.31606 1.49661 2.41687C0.481678 3.51769 -0.0563308 4.97545 0.000128002 6.47168C0.000128002 10.2608 3.98846 14.3992 7.33346 17.205C8.08031 17.8326 9.02459 18.1767 10.0001 18.1767C10.9757 18.1767 11.9199 17.8326 12.6668 17.205C16.0118 14.3992 20.0001 10.2608 20.0001 6.47168C20.0566 4.97545 19.5186 3.51769 18.5036 2.41687C17.4887 1.31606 16.0793 0.661672 14.5835 0.59668ZM11.596 15.93C11.1493 16.3062 10.5841 16.5124 10.0001 16.5124C9.41617 16.5124 8.85098 16.3062 8.40429 15.93C4.12263 12.3375 1.66679 8.89085 1.66679 6.47168C1.60983 5.41728 1.9721 4.38312 2.6746 3.59476C3.37709 2.8064 4.36282 2.3278 5.41679 2.26335C6.47077 2.3278 7.45649 2.8064 8.15899 3.59476C8.86149 4.38312 9.22376 5.41728 9.16679 6.47168C9.16679 6.69269 9.25459 6.90465 9.41087 7.06094C9.56715 7.21722 9.77911 7.30501 10.0001 7.30501C10.2211 7.30501 10.4331 7.21722 10.5894 7.06094C10.7457 6.90465 10.8335 6.69269 10.8335 6.47168C10.7765 5.41728 11.1388 4.38312 11.8413 3.59476C12.5438 2.8064 13.5295 2.3278 14.5835 2.26335C15.6374 2.3278 16.6232 2.8064 17.3257 3.59476C18.0282 4.38312 18.3904 5.41728 18.3335 6.47168C18.3335 8.89085 15.8776 12.3375 11.596 15.9267V15.93Z" fill="#CA354F"/>
</svg>
