<svg width="24" height="24" viewBox="0 0 24 24" fill="none" xmlns="http://www.w3.org/2000/svg">
<g clip-path="url(#clip0_175_1652)">
<path d="M0.879313 14.0909L4.74931 18.0009C4.84228 18.0946 4.95288 18.169 5.07474 18.2198C5.1966 18.2705 5.3273 18.2967 5.45931 18.2967C5.59133 18.2967 5.72203 18.2705 5.84389 18.2198C5.96575 18.169 6.07635 18.0946 6.16931 18.0009C6.26304 17.9079 6.33744 17.7973 6.3882 17.6755C6.43897 17.5536 6.46511 17.4229 6.46511 17.2909C6.46511 17.1589 6.43897 17.0282 6.3882 16.9063C6.33744 16.7844 6.26304 16.6738 6.16931 16.5809L2.60931 13.0009H22.9993C23.2645 13.0009 23.5189 12.8955 23.7064 12.708C23.894 12.5204 23.9993 12.2661 23.9993 12.0009C23.9993 11.7357 23.894 11.4813 23.7064 11.2938C23.5189 11.1062 23.2645 11.0009 22.9993 11.0009H2.54931L6.16931 7.38088C6.3466 7.1949 6.4455 6.94782 6.4455 6.69088C6.4455 6.43394 6.3466 6.18685 6.16931 6.00088C6.07635 5.90715 5.96575 5.83275 5.84389 5.78198C5.72203 5.73122 5.59133 5.70508 5.45931 5.70508C5.3273 5.70508 5.1966 5.73122 5.07474 5.78198C4.95288 5.83275 4.84228 5.90715 4.74931 6.00088L0.879313 9.85088C0.317511 10.4134 0.00195313 11.1759 0.00195312 11.9709C0.00195312 12.7659 0.317511 13.5284 0.879313 14.0909Z" fill="black"/>
</g>
<defs>
<clipPath id="clip0_175_1652">
<rect width="24" height="24" fill="white"/>
</clipPath>
</defs>
</svg>
