<svg width="101" height="100" viewBox="0 0 101 100" fill="none" xmlns="http://www.w3.org/2000/svg">
<path fill-rule="evenodd" clip-rule="evenodd" d="M45.8615 77.8435C45.6723 77.833 45.4872 77.7848 45.317 77.7017C45.1468 77.6186 44.9949 77.5023 44.8702 77.3597C44.7455 77.2171 44.6506 77.051 44.5911 76.8712C44.5315 76.6914 44.5084 76.5015 44.5233 76.3127C44.5381 76.1239 44.5905 75.9399 44.6775 75.7716C44.7644 75.6033 44.8841 75.4541 45.0295 75.3327C45.1749 75.2113 45.3431 75.1202 45.5242 75.0648C45.7054 75.0093 45.8957 74.9906 46.0842 75.0097C50.6981 75.3778 55.329 74.551 59.5305 72.609C63.732 70.6671 67.3624 67.6755 70.0717 63.9227C78.7815 51.8626 76.063 35.0037 64.0029 26.2924C60.3563 23.6578 56.108 21.9783 51.6457 21.4071C47.1833 20.836 42.649 21.3914 38.4564 23.0226C38.2818 23.0929 38.095 23.1278 37.9068 23.1253C37.7186 23.1229 37.5328 23.0831 37.3602 23.0082C37.1875 22.9334 37.0314 22.825 36.9009 22.6893C36.7705 22.5537 36.6682 22.3935 36.6002 22.218C36.5321 22.0426 36.4995 21.8554 36.5044 21.6672C36.5092 21.4791 36.5514 21.2938 36.6284 21.1221C36.7054 20.9503 36.8158 20.7956 36.953 20.6669C37.0903 20.5382 37.2518 20.4379 37.4281 20.3721C42.0625 18.569 47.0747 17.9553 52.0072 18.5869C56.9398 19.2184 61.6356 21.0752 65.6662 23.9878C78.9995 33.6232 82.0054 52.2622 72.3763 65.5876C69.3814 69.7356 65.3685 73.0423 60.7244 75.1889C56.0803 77.3356 50.9615 78.2498 45.8615 77.8435Z" fill="black"/>
<path fill-rule="evenodd" clip-rule="evenodd" d="M35.2628 74.9742C33.692 74.2126 32.1914 73.3141 30.7784 72.2889C19.5491 64.181 15.6476 49.6867 20.4416 37.3502C20.5782 36.9987 20.8488 36.7159 21.1939 36.5639C21.539 36.412 21.9303 36.4033 22.2818 36.5399C22.6333 36.6765 22.9161 36.9471 23.0681 37.2922C23.22 37.6373 23.2287 38.0286 23.0921 38.3801C18.7546 49.5414 22.2897 62.6519 32.4432 69.9843C33.7216 70.9149 35.0795 71.731 36.5012 72.4232C36.834 72.5913 37.0874 72.8834 37.2068 73.2366C37.3263 73.5898 37.3022 73.9758 37.1398 74.3114C36.9774 74.647 36.6896 74.9053 36.3385 75.0308C35.9874 75.1562 35.6011 75.1388 35.2628 74.9821V74.9742Z" fill="black"/>
<path fill-rule="evenodd" clip-rule="evenodd" d="M61.8386 84.1119C59.0603 82.1109 56.9282 79.3408 55.7051 76.1429C55.5704 75.7906 55.5812 75.3992 55.7351 75.0548C55.889 74.7105 56.1734 74.4413 56.5257 74.3067C56.878 74.172 57.2694 74.1827 57.6138 74.3366C57.9581 74.4905 58.2273 74.7749 58.3619 75.1272C59.4374 77.9293 61.341 80.3371 63.8192 82.0303C66.2974 83.7234 69.2325 84.6214 72.2338 84.6047C72.6108 84.6022 72.9734 84.7496 73.2418 85.0144C73.5102 85.2792 73.6624 85.6398 73.6649 86.0169C73.6674 86.3939 73.5201 86.7565 73.2552 87.0249C72.9904 87.2933 72.6298 87.4454 72.2528 87.448C68.5145 87.4746 64.8656 86.3057 61.8386 84.1119Z" fill="black"/>
<path fill-rule="evenodd" clip-rule="evenodd" d="M87.7073 74.5788C87.5246 74.5402 87.3514 74.4659 87.1974 74.3602C87.0435 74.2546 86.9119 74.1197 86.8101 73.9632C86.7083 73.8067 86.6383 73.6317 86.6042 73.4481C86.57 73.2646 86.5723 73.0761 86.611 72.8934C87.4013 69.159 86.7173 65.2635 84.7019 62.0218C82.6865 58.78 79.4959 56.4428 75.7972 55.4991C75.4317 55.4065 75.118 55.1725 74.925 54.8486C74.732 54.5247 74.6756 54.1374 74.7681 53.7718C74.8607 53.4063 75.0947 53.0926 75.4186 52.8996C75.7426 52.7066 76.1299 52.6502 76.4954 52.7427C80.9076 53.8655 84.7146 56.6511 87.12 60.5167C89.5253 64.3823 90.3425 69.0283 89.4006 73.4826C89.3619 73.6661 89.2874 73.8401 89.1812 73.9946C89.0751 74.1492 88.9394 74.2812 88.782 74.3831C88.6246 74.485 88.4487 74.5547 88.2642 74.5883C88.0797 74.6219 87.8905 74.6187 87.7073 74.5788Z" fill="black"/>
<path fill-rule="evenodd" clip-rule="evenodd" d="M13.4138 35.8427C10.8077 33.9609 8.81811 31.3485 7.69675 28.3359C6.57538 25.3233 6.37256 22.0459 7.11394 18.918C7.85532 15.7902 9.5076 12.9524 11.8618 10.7636C14.216 8.57485 17.1664 7.13338 20.3399 6.62148C23.5134 6.10957 26.7674 6.55024 29.6905 7.88776C32.6135 9.22528 35.0743 11.3996 36.7615 14.1357C38.4488 16.8718 39.2868 20.0468 39.1696 23.2591C39.0523 26.4715 37.9851 29.577 36.1028 32.1828C33.5787 35.6759 29.7707 38.0237 25.516 38.71C21.2613 39.3963 16.9083 38.3649 13.4138 35.8427ZM33.7998 30.5179C35.3525 28.3679 36.2328 25.8057 36.3293 23.1554C36.4258 20.5051 35.7343 17.8857 34.3421 15.6284C32.95 13.3712 30.9197 11.5774 28.5081 10.474C26.0965 9.37059 23.4118 9.00707 20.7936 9.42945C18.1754 9.85183 15.7412 11.0411 13.7989 12.8469C11.8566 14.6527 10.4934 16.9939 9.88168 19.5745C9.26996 22.155 9.43721 24.859 10.3623 27.3445C11.2873 29.83 12.9286 31.9854 15.0787 33.5381C17.9623 35.6185 21.5539 36.469 25.0643 35.9027C28.5747 35.3364 31.7167 33.3996 33.7998 30.5179Z" fill="black"/>
<path fill-rule="evenodd" clip-rule="evenodd" d="M32.6773 61.5336C32.5111 61.4484 32.3634 61.3312 32.2424 61.1889C32.1215 61.0465 32.0298 60.8818 31.9726 60.704C31.9154 60.5262 31.8938 60.3389 31.909 60.1527C31.9242 59.9666 31.976 59.7853 32.0613 59.6191L46.9883 30.4759C47.0685 30.3016 47.1831 30.1454 47.3252 30.0166C47.4674 29.8878 47.6341 29.7891 47.8154 29.7264C47.9967 29.6638 48.1889 29.6384 48.3802 29.652C48.5715 29.6655 48.7582 29.7176 48.9288 29.8052C49.0995 29.8928 49.2507 30.014 49.3733 30.1616C49.4958 30.3091 49.5873 30.4799 49.6421 30.6637C49.697 30.8476 49.714 31.0406 49.6923 31.2312C49.6705 31.4217 49.6105 31.606 49.5156 31.7727L34.5902 60.916C34.4184 61.2515 34.1204 61.505 33.7616 61.6208C33.4029 61.7366 33.0129 61.7053 32.6773 61.5336Z" fill="black"/>
<path fill-rule="evenodd" clip-rule="evenodd" d="M61.9175 60.916L46.9905 31.7727C46.8957 31.606 46.8356 31.4217 46.8138 31.2312C46.7921 31.0406 46.8092 30.8476 46.864 30.6637C46.9188 30.4799 47.0103 30.3091 47.1329 30.1616C47.2555 30.014 47.4066 29.8928 47.5773 29.8052C47.748 29.7176 47.9346 29.6655 48.1259 29.652C48.3173 29.6384 48.5094 29.6638 48.6907 29.7264C48.872 29.7891 49.0387 29.8878 49.1809 30.0166C49.323 30.1454 49.4376 30.3016 49.5178 30.4759L64.4448 59.6191C64.5396 59.7859 64.5997 59.9701 64.6215 60.1607C64.6432 60.3513 64.6261 60.5443 64.5713 60.7281C64.5165 60.9119 64.425 61.0827 64.3024 61.2303C64.1799 61.3778 64.0287 61.499 63.858 61.5866C63.6873 61.6742 63.5007 61.7263 63.3094 61.7398C63.118 61.7534 62.9259 61.7281 62.7446 61.6654C62.5633 61.6028 62.3966 61.504 62.2544 61.3752C62.1123 61.2464 61.9977 61.0902 61.9175 60.916Z" fill="black"/>
<path fill-rule="evenodd" clip-rule="evenodd" d="M36.502 52.8025C36.502 52.4254 36.6517 52.0638 36.9183 51.7972C37.1849 51.5306 37.5465 51.3809 37.9236 51.3809H59.2937C59.6707 51.3809 60.0323 51.5306 60.2989 51.7972C60.5655 52.0638 60.7153 52.4254 60.7153 52.8025C60.7153 53.1795 60.5655 53.5411 60.2989 53.8077C60.0323 54.0743 59.6707 54.2241 59.2937 54.2241H37.9236C37.5465 54.2241 37.1849 54.0743 36.9183 53.8077C36.6517 53.5411 36.502 53.1795 36.502 52.8025Z" fill="black"/>
<path fill-rule="evenodd" clip-rule="evenodd" d="M75.3065 92.1552C73.3718 90.7579 71.8948 88.8183 71.0624 86.5816C70.23 84.345 70.0796 81.9117 70.6301 79.5895C71.1807 77.2673 72.4075 75.1605 74.1554 73.5356C75.9033 71.9107 78.0938 70.8406 80.4499 70.4606C82.806 70.0806 85.2219 70.4078 87.392 71.4009C89.5621 72.3939 91.389 74.0082 92.6417 76.0396C93.8944 78.0709 94.5165 80.4281 94.4295 82.8131C94.3424 85.1981 93.5501 87.5036 92.1527 89.4383C90.2782 92.0314 87.4508 93.7742 84.292 94.2836C81.1331 94.7931 77.9012 94.0275 75.3065 92.1552ZM89.8481 87.7734C90.9162 86.2946 91.5217 84.5323 91.5882 82.7093C91.6546 80.8863 91.179 79.0846 90.2215 77.5319C89.2639 75.9792 87.8674 74.7454 86.2086 73.9864C84.5499 73.2274 82.7032 72.9773 80.9023 73.2678C79.1014 73.5583 77.4271 74.3764 76.0911 75.6185C74.7551 76.8605 73.8174 78.4709 73.3967 80.2459C72.9759 82.0209 73.0909 83.8808 73.7272 85.5904C74.3635 87.3001 75.4925 88.7826 76.9714 89.8506C78.9548 91.2814 81.4252 91.8663 83.8396 91.4768C86.2541 91.0873 88.4152 89.7553 89.8481 87.7734Z" fill="black"/>
<path fill-rule="evenodd" clip-rule="evenodd" d="M10.7781 90.7462C8.84361 89.3488 7.3669 87.4091 6.53473 85.1725C5.70256 82.9358 5.55231 80.5026 6.10297 78.1806C6.65363 75.8585 7.88048 73.7519 9.62838 72.1271C11.3763 70.5023 13.5667 69.4323 15.9227 69.0523C18.2788 68.6724 20.6945 68.9996 22.8646 69.9926C25.0346 70.9856 26.8615 72.5998 28.1142 74.631C29.3668 76.6623 29.9891 79.0194 29.9022 81.4042C29.8153 83.7891 29.0231 86.0947 27.6259 88.0294C25.7514 90.6229 22.9237 92.366 19.7644 92.8754C16.6052 93.3849 13.3729 92.619 10.7781 90.7462ZM25.3213 86.3645C26.3892 84.8856 26.9945 83.1233 27.0609 81.3004C27.1272 79.4775 26.6515 77.6759 25.6939 76.1234C24.7364 74.5708 23.3399 73.3371 21.6812 72.5781C20.0225 71.8192 18.176 71.5692 16.3752 71.8596C14.5743 72.1501 12.9001 72.968 11.5641 74.2099C10.2281 75.4519 9.29038 77.0621 8.8695 78.837C8.44862 80.6119 8.56348 82.4717 9.19955 84.1813C9.83563 85.8909 10.9644 87.3735 12.443 88.4416C14.4259 89.8738 16.8963 90.4601 19.3112 90.0714C21.7261 89.6828 23.8879 88.3512 25.3213 86.3692V86.3645Z" fill="black"/>
<path fill-rule="evenodd" clip-rule="evenodd" d="M30.1662 21.921C29.7224 18.446 28.0085 16.4999 25.5855 15.2062C25.4153 15.1216 25.2638 15.0037 25.14 14.8596C25.0162 14.7154 24.9226 14.5479 24.8646 14.3669C24.8066 14.1859 24.7856 13.9951 24.8026 13.8058C24.8196 13.6166 24.8745 13.4326 24.9638 13.2649C25.0532 13.0972 25.1752 12.9491 25.3228 12.8294C25.4704 12.7096 25.6405 12.6207 25.823 12.5678C26.0056 12.515 26.1969 12.4992 26.3856 12.5216C26.5743 12.5439 26.7566 12.6039 26.9218 12.6979C30.0809 14.3801 32.4171 17.0828 32.9905 21.5593C33.0385 21.9334 32.9359 22.3112 32.7053 22.6097C32.4747 22.9081 32.1349 23.1028 31.7608 23.1507C31.3867 23.1987 31.0089 23.0961 30.7104 22.8655C30.412 22.6349 30.2174 22.2951 30.1694 21.921H30.1662Z" fill="black"/>
<path fill-rule="evenodd" clip-rule="evenodd" d="M68.3933 44.8827C67.3555 36.77 63.2755 32.1023 57.5874 29.0695C57.4173 28.9849 57.2658 28.867 57.142 28.7229C57.0182 28.5787 56.9245 28.4111 56.8665 28.2302C56.8086 28.0492 56.7875 27.8584 56.8046 27.6691C56.8216 27.4799 56.8764 27.2959 56.9658 27.1282C57.0551 26.9605 57.1772 26.8124 57.3248 26.6926C57.4724 26.5729 57.6424 26.484 57.825 26.4311C58.0075 26.3782 58.1988 26.3625 58.3875 26.3849C58.5763 26.4072 58.7586 26.4671 58.9237 26.5611C65.3416 29.9825 70.0471 35.4068 71.2144 44.521C71.2382 44.7062 71.2252 44.8943 71.1763 45.0745C71.1273 45.2548 71.0434 45.4236 70.9292 45.5714C70.6986 45.8698 70.3589 46.0644 69.9847 46.1124C69.6106 46.1604 69.2328 46.0578 68.9344 45.8271C68.6359 45.5965 68.4413 45.2568 68.3933 44.8827Z" fill="black"/>
<path fill-rule="evenodd" clip-rule="evenodd" d="M86.432 83.0077C86.1619 80.8927 85.1383 79.7333 83.6614 78.9466C83.3285 78.7692 83.0798 78.4669 82.9699 78.1061C82.86 77.7452 82.8979 77.3556 83.0754 77.0227C83.2528 76.6899 83.5551 76.4411 83.916 76.3312C84.2768 76.2213 84.6665 76.2593 84.9993 76.4367C87.2107 77.6119 88.8535 79.5248 89.2531 82.6476C89.3009 83.0217 89.198 83.3995 88.9673 83.6978C88.7365 83.9961 88.3967 84.1905 88.0226 84.2382C87.6485 84.286 87.2707 84.1832 86.9724 83.9524C86.6741 83.7217 86.4797 83.3818 86.432 83.0077Z" fill="black"/>
<path fill-rule="evenodd" clip-rule="evenodd" d="M75.0574 27.045C73.1229 25.6476 71.6462 23.708 70.814 21.4713C69.9819 19.2346 69.8316 16.8015 70.3823 14.4794C70.9329 12.1574 72.1598 10.0507 73.9077 8.42593C75.6556 6.80113 77.846 5.7311 80.202 5.35117C82.5581 4.97124 84.9738 5.29846 87.1439 6.29146C89.3139 7.28446 91.1408 8.89865 92.3935 10.9299C93.6461 12.9611 94.2684 15.3182 94.1815 17.7031C94.0946 20.088 93.3024 22.3935 91.9052 24.3282C90.0304 26.9214 87.2028 28.6642 84.0436 29.1736C80.8845 29.683 77.6524 28.9174 75.0574 27.045ZM89.599 22.6665C90.6671 21.1876 91.2726 19.4253 91.3391 17.6023C91.4056 15.7793 90.9299 13.9776 89.9724 12.4249C89.0148 10.8723 87.6184 9.63842 85.9596 8.87943C84.3008 8.12043 82.4542 7.87038 80.6533 8.16088C78.8523 8.45139 77.178 9.2694 75.842 10.5115C74.506 11.7536 73.5684 13.3639 73.1476 15.1389C72.7268 16.9139 72.8419 18.7739 73.4782 20.4835C74.1145 22.1931 75.2434 23.6756 76.7223 24.7436C78.7059 26.174 81.1761 26.7587 83.5904 26.3692C86.0048 25.9798 88.1658 24.648 89.599 22.6665Z" fill="black"/>
<path fill-rule="evenodd" clip-rule="evenodd" d="M86.1843 17.8882C85.9142 15.7732 84.8891 14.6138 83.4138 13.8271C83.249 13.7394 83.103 13.6201 82.9844 13.4759C82.8657 13.3318 82.7765 13.1657 82.7221 12.9871C82.6676 12.8085 82.6488 12.621 82.6668 12.4351C82.6848 12.2493 82.7392 12.0688 82.8269 11.904C82.9147 11.7392 83.034 11.5933 83.1782 11.4746C83.3223 11.3559 83.4884 11.2668 83.667 11.2123C83.8456 11.1578 84.0331 11.139 84.219 11.157C84.4048 11.175 84.5853 11.2294 84.7501 11.3172C86.9615 12.4924 88.6058 14.4053 89.0039 17.5281C89.0323 17.7154 89.023 17.9066 88.9765 18.0903C88.9299 18.274 88.8472 18.4466 88.733 18.5978C88.6188 18.7491 88.4756 18.8759 88.3116 18.971C88.1477 19.0661 87.9664 19.1275 87.7785 19.1515C87.5905 19.1755 87.3996 19.1617 87.2171 19.1108C87.0345 19.06 86.8639 18.9732 86.7154 18.8555C86.5669 18.7378 86.4434 18.5916 86.3522 18.4255C86.261 18.2594 86.2039 18.0767 86.1843 17.8882Z" fill="black"/>
</svg>
