<svg width="100" height="100" viewBox="0 0 100 100" fill="none" xmlns="http://www.w3.org/2000/svg">
<path fill-rule="evenodd" clip-rule="evenodd" d="M30.5006 77.1828C28.7876 74.6522 27.6553 71.7742 27.1847 68.7548C26.7142 65.7354 26.917 62.6493 27.7788 59.7174C28.6405 56.7856 30.1398 54.0805 32.1693 51.7959C34.1988 49.5114 36.7083 47.7038 39.5182 46.5026C42.3281 45.3014 45.3688 44.7363 48.4226 44.8478C51.4764 44.9593 54.4678 45.7446 57.1826 47.1475C59.8974 48.5504 62.2685 50.5362 64.126 52.9627C65.9835 55.3892 67.2816 58.1963 67.9272 61.1832C67.983 61.5414 67.8999 61.9074 67.6948 62.2063C67.4897 62.5052 67.1782 62.7145 66.824 62.7913C66.4697 62.8682 66.0995 62.8068 65.789 62.6198C65.4784 62.4327 65.2511 62.1341 65.1535 61.785C64.5953 59.209 63.4746 56.7881 61.8717 54.6957C60.2688 52.6033 58.2231 50.891 55.8812 49.6814C53.5393 48.4718 50.959 47.7948 48.3249 47.6988C45.6908 47.6028 43.0681 48.0902 40.6443 49.1261C38.2206 50.162 36.0558 51.7208 34.3048 53.691C32.5537 55.6612 31.2598 57.994 30.5156 60.5226C29.7714 63.0512 29.5953 65.713 29.9998 68.3176C30.4044 70.9223 31.3796 73.4052 32.8558 75.589C33.0535 75.9014 33.1217 76.2785 33.046 76.6404C32.9703 77.0023 32.7566 77.3204 32.4502 77.5273C32.1438 77.7342 31.7689 77.8137 31.4049 77.7488C31.041 77.6838 30.7166 77.4797 30.5006 77.1796V77.1828Z" fill="black" fill-opacity="0.75"/>
<path fill-rule="evenodd" clip-rule="evenodd" d="M37.5825 83.674C37.2616 83.4862 37.027 83.1801 36.9291 82.8214C36.8312 82.4626 36.8777 82.0798 37.0587 81.755C37.2397 81.4302 37.5408 81.1892 37.8974 81.0838C38.2539 80.9783 38.6376 81.0168 38.9662 81.1909C41.7152 82.7218 44.8194 83.5005 47.9655 83.4483C51.1115 83.3962 54.1882 82.5151 56.885 80.8939C57.045 80.7892 57.2246 80.7179 57.4129 80.6843C57.6012 80.6506 57.7943 80.6553 57.9808 80.6981C58.1672 80.7408 58.3431 80.8208 58.4979 80.9331C58.6527 81.0454 58.7833 81.1879 58.8818 81.3518C58.9802 81.5158 59.0446 81.698 59.071 81.8874C59.0974 82.0769 59.0853 82.2697 59.0355 82.4544C58.9856 82.639 58.899 82.8117 58.7808 82.9621C58.6626 83.1125 58.5153 83.2375 58.3476 83.3296C55.2225 85.2083 51.6572 86.2294 48.0113 86.2899C44.3655 86.3504 40.7682 85.448 37.5825 83.674Z" fill="black" fill-opacity="0.75"/>
<path fill-rule="evenodd" clip-rule="evenodd" d="M60.0239 85.6218C57.7762 83.9985 56.0604 81.7452 55.0933 79.1468C54.1263 76.5484 53.9514 73.7216 54.5908 71.0238C55.2303 68.326 56.6553 65.8784 58.6858 63.9905C60.7162 62.1026 63.2609 60.8591 65.998 60.4174C68.7351 59.9756 71.5418 60.3554 74.0631 61.5087C76.5843 62.662 78.707 64.537 80.1627 66.8966C81.6184 69.2563 82.3417 71.9946 82.2412 74.7653C82.1407 77.536 81.2209 80.2147 79.598 82.4627C77.4207 85.4765 74.1356 87.5024 70.465 88.0948C66.7944 88.6872 63.0388 87.7977 60.0239 85.6218ZM77.2918 80.8025C78.586 79.0107 79.3197 76.8754 79.4003 74.6665C79.4808 72.4577 78.9046 70.2746 77.7444 68.3932C76.5842 66.5119 74.8922 65.0168 72.8823 64.0971C70.8725 63.1774 68.635 62.8743 66.4529 63.2262C64.2708 63.5781 62.242 64.5692 60.6232 66.0741C59.0043 67.579 57.8681 69.5302 57.3581 71.6809C56.8482 73.8315 56.9874 76.0851 57.7583 78.1567C58.5291 80.2282 59.8969 82.0246 61.6887 83.3188C64.0921 85.0526 67.0854 85.7614 70.011 85.2896C72.9366 84.8178 75.5554 83.2039 77.2918 80.8025Z" fill="black" fill-opacity="0.75"/>
<path fill-rule="evenodd" clip-rule="evenodd" d="M21.1848 61.7493C19.5219 60.5483 18.1681 58.9694 17.2348 57.1428C16.3015 55.3161 15.8153 53.294 15.8164 51.2427C15.8175 49.1915 16.3057 47.1698 17.2409 45.3441C18.1761 43.5185 19.5316 41.941 21.1956 40.7416C22.8597 39.5423 24.7849 38.7553 26.8126 38.4455C28.8403 38.1357 30.9126 38.3119 32.8589 38.9596C34.8052 39.6073 36.5699 40.708 38.0076 42.1711C39.4453 43.6342 40.515 45.4178 41.1285 47.3752C41.1854 47.5537 41.2065 47.7417 41.1905 47.9284C41.1745 48.1151 41.1218 48.2968 41.0354 48.463C40.9489 48.6293 40.8304 48.7768 40.6868 48.8971C40.5431 49.0174 40.3771 49.1081 40.1982 49.164C40.0194 49.2199 39.8312 49.2399 39.6446 49.2228C39.458 49.2057 39.2767 49.152 39.1109 49.0646C38.9452 48.9771 38.7984 48.8578 38.6789 48.7135C38.5594 48.5691 38.4697 48.4026 38.4148 48.2234C37.8618 46.4616 36.8369 44.8849 35.4512 43.6644C34.0654 42.4439 32.3719 41.6262 30.5543 41.3002C28.7368 40.9742 26.8646 41.1522 25.1411 41.8149C23.4175 42.4777 21.9085 43.5998 20.7776 45.0596C19.6467 46.5194 18.9373 48.261 18.7263 50.0955C18.5153 51.93 18.8108 53.7872 19.5807 55.4656C20.3506 57.1441 21.5655 58.5795 23.0936 59.6163C24.6217 60.653 26.4045 61.2514 28.2486 61.3466C28.4353 61.3559 28.6183 61.4019 28.7873 61.482C28.9562 61.562 29.1076 61.6746 29.2331 61.8132C29.3585 61.9518 29.4553 62.1138 29.5182 62.2898C29.581 62.4659 29.6085 62.6526 29.5992 62.8393C29.5898 63.026 29.5438 63.209 29.4638 63.3779C29.3837 63.5468 29.2711 63.6983 29.1325 63.8237C28.9939 63.9491 28.832 64.046 28.6559 64.1088C28.4799 64.1716 28.2932 64.1991 28.1065 64.1898C25.6115 64.0642 23.2068 63.2163 21.1848 61.7493Z" fill="black" fill-opacity="0.75"/>
<path fill-rule="evenodd" clip-rule="evenodd" d="M73.8262 63.5626C73.7817 62.4505 73.6656 61.3425 73.4787 60.2454L72.7142 57.0263L70.5691 51.5514C65.3218 39.087 58.7081 29.3236 52.077 18.7783C50.4658 16.2147 49.0031 15.4296 47.9085 15.4612C46.7886 15.4881 45.2737 16.3758 43.5962 19.0753C39.3124 25.9717 34.8959 32.6913 30.8664 40.1548C30.6871 40.4866 30.3833 40.7336 30.0219 40.8414C29.6605 40.9492 29.2711 40.9091 28.9393 40.7298C28.6075 40.5504 28.3605 40.2467 28.2527 39.8853C28.1449 39.5239 28.185 39.1345 28.3643 38.8027C32.4555 31.2349 36.9446 24.389 41.1811 17.5715C43.0055 14.6351 45.239 12.6748 47.8421 12.6148C50.4706 12.5516 52.7025 14.4345 54.4764 17.2651C61.9936 29.2178 69.7556 40.5402 75.4042 56.1006L75.4279 56.1686C76.1498 58.532 76.5665 60.9781 76.6679 63.4473C76.6754 63.6339 76.6462 63.8203 76.5817 63.9957C76.5173 64.1711 76.4189 64.332 76.2923 64.4694C76.1656 64.6068 76.0131 64.7178 75.8436 64.7963C75.674 64.8747 75.4906 64.919 75.3039 64.9265C75.1172 64.9341 74.9309 64.9048 74.7555 64.8404C74.5801 64.7759 74.4191 64.6776 74.2818 64.5509C74.1444 64.4243 74.0334 64.2718 73.9549 64.1022C73.8765 63.9326 73.8322 63.7493 73.8246 63.5626H73.8262Z" fill="black" fill-opacity="0.75"/>
<path fill-rule="evenodd" clip-rule="evenodd" d="M31.1487 87.8802C26.8069 84.7435 23.4281 80.4557 21.3937 75.5007C19.3593 70.5457 18.7502 65.1207 19.6352 59.8379C19.698 59.4659 19.9061 59.1341 20.2136 58.9155C20.3658 58.8073 20.5379 58.7301 20.72 58.6883C20.9021 58.6466 21.0906 58.6411 21.2748 58.6722C21.459 58.7033 21.6353 58.7704 21.7935 58.8697C21.9518 58.9689 22.089 59.0983 22.1972 59.2506C22.3055 59.4028 22.3827 59.5749 22.4244 59.757C22.4662 59.9391 22.4716 60.1276 22.4405 60.3118C21.5885 65.4018 22.2773 70.6302 24.4183 75.3259C26.5594 80.0216 30.0551 83.9701 34.4565 86.6647C38.858 89.3592 43.9644 90.6767 49.1201 90.448C54.2758 90.2194 59.2455 88.455 63.3911 85.3813C63.5411 85.2701 63.7115 85.1896 63.8926 85.1442C64.0737 85.0989 64.262 85.0897 64.4466 85.1171C64.6313 85.1446 64.8088 85.2081 64.9689 85.3041C65.129 85.4001 65.2686 85.5267 65.3798 85.6767C65.491 85.8267 65.5716 85.9971 65.6169 86.1782C65.6622 86.3593 65.6714 86.5476 65.644 86.7322C65.6166 86.9169 65.553 87.0943 65.457 87.2545C65.361 87.4146 65.2344 87.5542 65.0844 87.6654C55.3005 94.9267 41.5519 95.3943 31.1487 87.8802Z" fill="black" fill-opacity="0.75"/>
<path fill-rule="evenodd" clip-rule="evenodd" d="M75.7228 44.5988C74.166 43.4735 72.9931 41.8965 72.3632 40.0818C71.7334 38.2671 71.677 36.3025 72.2019 34.4547L72.2146 34.4105L72.2288 34.3694C74.0469 29.2231 76.8096 25.6406 79.0004 21.7328C79.152 21.4457 79.3411 21.1801 79.5628 20.943C80.4394 20.03 81.6857 19.9952 82.6256 20.834C82.8958 21.0849 83.1274 21.3745 83.3127 21.6933C85.6062 25.5064 88.2726 29.1173 90.1191 34.2067L90.1317 34.2399L90.1412 34.2762C90.7164 36.1499 90.6885 38.1569 90.0613 40.0139C89.4341 41.8708 88.2394 43.4838 86.6459 44.625C85.0524 45.7662 83.1406 46.3779 81.1806 46.3738C79.2207 46.3696 77.3115 45.7498 75.7228 44.6019V44.5988ZM86.4782 40.8283C86.9954 40.1136 87.3615 39.301 87.5541 38.4401C87.7466 37.5791 87.7616 36.688 87.5981 35.821L87.4259 35.1323L86.7657 33.4611C85.3551 30.1646 83.6065 27.563 81.7868 24.6455L81.1724 23.6441L80.6337 24.5792C78.8962 27.503 77.0228 30.2135 75.5885 33.5828L74.9314 35.2698L74.7403 36.2175C74.5655 37.6505 74.8717 39.1009 75.6108 40.3409C76.35 41.581 77.4802 42.5402 78.8239 43.068C80.1675 43.5958 81.6484 43.6623 83.0339 43.2568C84.4194 42.8514 85.631 41.9972 86.4782 40.8283Z" fill="black" fill-opacity="0.75"/>
<path fill-rule="evenodd" clip-rule="evenodd" d="M15.5695 29.5029C14.0119 28.3775 12.8385 26.8 12.2085 24.9846C11.5786 23.1692 11.5228 21.2039 12.0486 19.3556L12.0597 19.313L12.0755 19.2704C13.8936 14.1241 16.6563 10.5416 18.8471 6.63372C18.9984 6.34652 19.1876 6.08089 19.4095 5.84393C20.2861 4.93251 21.5324 4.88828 22.4707 5.73494C22.7411 5.98612 22.9731 6.27564 23.1594 6.59423C25.4529 10.4089 28.1193 14.0183 29.9658 19.1077L29.9768 19.1424L29.9879 19.1772C30.5631 21.0508 30.5352 23.0579 29.908 24.9148C29.2808 26.7718 28.0861 28.3847 26.4926 29.5259C24.8991 30.6671 22.9873 31.2788 21.0273 31.2747C19.0673 31.2706 17.1582 30.6508 15.5695 29.5029ZM26.3233 25.7324C26.8413 25.0184 27.2079 24.2061 27.4008 23.3453C27.5936 22.4846 27.6086 21.5935 27.4448 20.7267L27.2758 20.0364L26.6108 18.3668C25.2002 15.0687 23.4516 12.4671 21.6319 9.54962L21.0175 8.54817L20.4741 9.48486C18.7366 12.4071 16.8632 15.1176 15.4289 18.4806L14.7718 20.1676L14.5807 21.1074C14.4004 22.5422 14.7028 23.9962 15.4404 25.2401C16.1779 26.484 17.3086 27.4469 18.654 27.977C19.9994 28.5071 21.483 28.5743 22.8708 28.1679C24.2586 27.7614 25.4716 26.9046 26.3185 25.7324H26.3233Z" fill="black" fill-opacity="0.75"/>
<path fill-rule="evenodd" clip-rule="evenodd" d="M80.8753 40.2507C80.7641 40.1007 80.6836 39.9303 80.6382 39.7492C80.5929 39.5681 80.5837 39.3798 80.6111 39.1952C80.6386 39.0105 80.7021 38.833 80.7981 38.6729C80.8941 38.5128 81.0207 38.3732 81.1707 38.262C81.9115 37.7123 82.1643 37.1026 82.1532 36.3033C82.1406 35.3872 81.7725 34.2025 81.0475 32.6703C80.9614 32.5006 80.9103 32.3154 80.8971 32.1256C80.8839 31.9358 80.9089 31.7453 80.9707 31.5654C81.0325 31.3855 81.1298 31.2198 81.2568 31.0781C81.3838 30.9365 81.5379 30.8217 81.71 30.7407C81.8822 30.6598 82.0688 30.6141 82.2589 30.6066C82.449 30.599 82.6387 30.6297 82.8167 30.6968C82.9947 30.7639 83.1575 30.8661 83.2953 30.9972C83.4331 31.1284 83.5432 31.2859 83.6191 31.4603C84.3757 33.0668 84.9727 34.7127 84.9949 36.2686C85.017 37.9382 84.363 39.4277 82.8624 40.5508C82.5591 40.7744 82.1794 40.8683 81.8067 40.8121C81.4341 40.7558 81.0991 40.5539 80.8753 40.2507Z" fill="black" fill-opacity="0.75"/>
<path fill-rule="evenodd" clip-rule="evenodd" d="M20.4515 25.146C20.3403 24.996 20.2597 24.8256 20.2144 24.6445C20.1691 24.4634 20.1599 24.2751 20.1873 24.0904C20.2147 23.9058 20.2783 23.7283 20.3743 23.5682C20.4703 23.4081 20.5969 23.2685 20.7469 23.1573C21.4877 22.6076 21.7404 21.9963 21.7294 21.197C21.7167 20.2809 21.3487 19.0978 20.6237 17.564C20.4632 17.2221 20.4451 16.8306 20.5734 16.4754C20.7017 16.1202 20.9658 15.8305 21.3076 15.6701C21.6495 15.5096 22.0411 15.4915 22.3962 15.6198C22.7514 15.7481 23.0411 16.0122 23.2015 16.354C23.9582 17.9605 24.5552 19.608 24.5774 21.1623C24.5995 22.8335 23.9534 24.3214 22.4449 25.4461C22.2945 25.5578 22.1235 25.6386 21.9418 25.684C21.76 25.7294 21.5711 25.7383 21.3858 25.7105C21.2006 25.6826 21.0227 25.6183 20.8623 25.5215C20.702 25.4246 20.5624 25.297 20.4515 25.146Z" fill="black" fill-opacity="0.75"/>
<path fill-rule="evenodd" clip-rule="evenodd" d="M73.8501 74.3253C73.4694 71.3541 72.0099 69.6923 69.9312 68.5851C69.7633 68.499 69.6143 68.3804 69.4927 68.2362C69.3712 68.0919 69.2796 67.9249 69.2232 67.7449C69.1668 67.5649 69.1468 67.3755 69.1644 67.1877C69.1819 66.9999 69.2367 66.8175 69.3255 66.651C69.4142 66.4846 69.5352 66.3375 69.6814 66.2183C69.8276 66.0991 69.9961 66.0102 70.177 65.9567C70.3579 65.9033 70.5476 65.8863 70.7351 65.9069C70.9226 65.9275 71.1041 65.9852 71.2691 66.0767C74.0744 67.5726 76.1658 69.9846 76.6712 73.9635C76.7192 74.3376 76.6166 74.7155 76.386 75.0139C76.1553 75.3124 75.8156 75.507 75.4415 75.555C75.0674 75.6029 74.6896 75.5003 74.3911 75.2697C74.0927 75.0391 73.8981 74.6994 73.8501 74.3253Z" fill="black" fill-opacity="0.75"/>
<path fill-rule="evenodd" clip-rule="evenodd" d="M56.0613 35.0965C53.7773 30.9896 51.2168 26.9649 48.4794 22.8738C48.3757 22.7182 48.3036 22.5437 48.2673 22.3603C48.231 22.1769 48.2312 21.9881 48.2679 21.8047C48.3046 21.6214 48.377 21.4471 48.481 21.2917C48.5851 21.1363 48.7187 21.003 48.8743 20.8993C49.0298 20.7956 49.2043 20.7235 49.3877 20.6872C49.5712 20.6509 49.7599 20.6511 49.9433 20.6878C50.1266 20.7245 50.301 20.7969 50.4563 20.9009C50.6117 21.005 50.745 21.1386 50.8487 21.2942C53.6067 25.4169 56.2193 29.508 58.5523 33.7176C58.6483 33.881 58.7105 34.062 58.7355 34.2498C58.7604 34.4377 58.7476 34.6286 58.6977 34.8115C58.6478 34.9943 58.5618 35.1653 58.4449 35.3144C58.328 35.4635 58.1824 35.5877 58.0167 35.6798C57.8511 35.7718 57.6687 35.8298 57.4803 35.8503C57.2919 35.8709 57.1013 35.8535 56.9197 35.7994C56.7381 35.7452 56.5692 35.6552 56.4229 35.5348C56.2766 35.4144 56.1558 35.2659 56.0677 35.0981L56.0613 35.0965Z" fill="black" fill-opacity="0.75"/>
</svg>
