<svg width="100" height="100" viewBox="0 0 100 100" fill="none" xmlns="http://www.w3.org/2000/svg">
<path fill-rule="evenodd" clip-rule="evenodd" d="M30.011 74.4103C24.7033 70.5883 20.7 65.2257 18.5447 59.0505C18.4202 58.6944 18.4424 58.3035 18.6062 57.9637C18.77 57.6239 19.0621 57.3631 19.4182 57.2387C19.7743 57.1143 20.1652 57.1364 20.505 57.3002C20.8448 57.4641 21.1056 57.7561 21.23 58.1122C23.1937 63.738 26.8413 68.6231 31.6775 72.1041C44.7313 81.5326 62.9805 78.5899 72.4092 65.5347C81.8378 52.4794 78.8934 34.2321 65.8396 24.8036C52.7857 15.3751 34.535 18.3274 25.1079 31.3731C21.3232 36.5972 19.3858 42.9329 19.6014 49.3803C19.6074 49.567 19.5766 49.753 19.5107 49.9278C19.4448 50.1026 19.3452 50.2627 19.2174 50.3989C19.0897 50.5352 18.9363 50.645 18.7661 50.722C18.596 50.799 18.4123 50.8417 18.2256 50.8477C18.0389 50.8537 17.8528 50.8229 17.6781 50.7571C17.5033 50.6912 17.3432 50.5915 17.2069 50.4637C17.0706 50.336 16.9609 50.1826 16.8839 50.0125C16.8069 49.8423 16.7641 49.6586 16.7581 49.4719C16.521 42.3965 18.645 35.4434 22.7954 29.7082C33.1434 15.3814 53.1696 12.1512 67.4982 22.499C81.8268 32.8468 85.0555 52.8727 74.7075 67.2011C64.3595 81.5295 44.338 84.7566 30.011 74.4103Z" fill="black"/>
<path fill-rule="evenodd" clip-rule="evenodd" d="M67.2537 82.5052C65.0675 80.93 63.2735 78.8723 62.011 76.4918C61.9192 76.3266 61.8612 76.1446 61.8406 75.9567C61.8199 75.7688 61.8369 75.5787 61.8906 75.3974C61.9443 75.2162 62.0336 75.0475 62.1533 74.9011C62.273 74.7548 62.4207 74.6339 62.5877 74.5453C62.7548 74.4568 62.9377 74.4024 63.126 74.3854C63.3143 74.3685 63.5041 74.3892 63.6842 74.4465C63.8644 74.5037 64.0314 74.5963 64.1753 74.7189C64.3192 74.8414 64.4373 74.9915 64.5225 75.1602C65.7158 77.4024 67.467 79.2993 69.607 80.6676C71.7469 82.0359 74.2035 82.8294 76.7395 82.9718C79.2756 83.1141 81.8055 82.6003 84.0851 81.48C86.3648 80.3597 88.3171 78.6707 89.7538 76.576C91.1904 74.4814 92.0629 72.0518 92.287 69.5217C92.5111 66.9916 92.0793 64.4464 91.0331 62.1319C89.987 59.8173 88.3618 57.8115 86.3146 56.308C84.2673 54.8045 81.8671 53.854 79.3455 53.5484C78.9769 53.4971 78.6431 53.3032 78.4158 53.0085C78.1886 52.7138 78.0859 52.3417 78.13 51.9721C78.174 51.6025 78.3613 51.265 78.6515 51.032C78.9416 50.7989 79.3116 50.689 79.682 50.7257C82.3521 51.0471 84.9132 51.9753 87.1691 53.4394C89.425 54.9035 91.3158 56.8645 92.6967 59.1722C94.0777 61.48 94.912 64.0732 95.1358 66.7531C95.3596 69.4331 94.967 72.1288 93.9881 74.6336C93.0091 77.1384 91.4698 79.3859 89.488 81.2039C87.5062 83.0219 85.1346 84.3622 82.5548 85.122C79.975 85.8818 77.2555 86.041 74.6046 85.5875C71.9538 85.1339 69.442 84.0796 67.2616 82.5052H67.2537Z" fill="black"/>
<path fill-rule="evenodd" clip-rule="evenodd" d="M13.6824 32.8724C11.9942 31.6521 10.5752 30.0976 9.51343 28.3055C8.45169 26.5135 7.76999 24.5221 7.5107 22.4553C7.2514 20.3886 7.42007 18.2906 8.00621 16.2917C8.59235 14.2929 9.58344 12.4361 10.9178 10.8366C12.2522 9.23718 13.9014 7.92934 15.7628 6.99444C17.6242 6.05954 19.6581 5.51757 21.7379 5.40221C23.8177 5.28686 25.899 5.60059 27.8524 6.32391C29.8058 7.04723 31.5895 8.16468 33.0925 9.60674C33.3649 9.86774 33.5223 10.2262 33.5303 10.6033C33.5383 10.9804 33.3962 11.3452 33.1352 11.6175C32.8742 11.8898 32.5157 12.0473 32.1386 12.0553C31.7615 12.0633 31.3967 11.9212 31.1244 11.6602C30.7091 11.2616 30.2668 10.8922 29.8007 10.5545C28.2567 9.43904 26.4754 8.69605 24.5965 8.38371C22.7175 8.07136 20.7917 8.19813 18.9698 8.75408C17.148 9.31002 15.4795 10.2801 14.0951 11.5883C12.7106 12.8965 11.6477 14.5074 10.9896 16.2948C10.3315 18.0823 10.0959 19.9978 10.3015 21.8914C10.507 23.785 11.148 25.6054 12.1744 27.21C13.2007 28.8146 14.5845 30.1599 16.2174 31.1406C17.8503 32.1213 19.688 32.7108 21.5867 32.8629C21.7734 32.8775 21.9554 32.9288 22.1223 33.0137C22.2892 33.0987 22.4377 33.2157 22.5594 33.358C22.681 33.5004 22.7735 33.6653 22.8314 33.8434C22.8893 34.0214 22.9116 34.2092 22.897 34.3959C22.8824 34.5826 22.8311 34.7645 22.7462 34.9314C22.6612 35.0983 22.5442 35.2468 22.4019 35.3685C22.2595 35.4902 22.0946 35.5826 21.9165 35.6405C21.7384 35.6985 21.5507 35.7208 21.364 35.7061C18.5918 35.4849 15.9341 34.5044 13.6824 32.8724Z" fill="black"/>
<path fill-rule="evenodd" clip-rule="evenodd" d="M57.0804 65.9109H42.4849H42.3854C32.6566 65.2222 28.0852 56.9752 29.9065 49.5749L33.8176 34.2862C33.8958 33.9803 34.0737 33.7091 34.3231 33.5155C34.5725 33.3219 34.8792 33.2168 35.195 33.2168H39.9054C40.2331 33.2167 40.5508 33.3299 40.8047 33.5371C41.0586 33.7444 41.233 34.033 41.2986 34.3541C41.6145 35.8879 42.7787 36.6287 44.1039 36.6224C44.8424 36.6197 45.5609 36.3819 46.1551 35.9433C46.7493 35.5048 47.1883 34.8884 47.4085 34.1835C47.5037 33.9016 47.6849 33.6568 47.9266 33.4833C48.1683 33.3099 48.4584 33.2167 48.7559 33.2168H54.2987C54.4856 33.2168 54.6707 33.2535 54.8434 33.3251C55.016 33.3967 55.1729 33.5016 55.3049 33.6338C56.5339 34.8627 58.3062 35.0207 59.6915 33.6338C59.9579 33.3671 60.3192 33.2171 60.6961 33.2168H64.3608C64.6765 33.2168 64.9833 33.3219 65.2327 33.5155C65.4821 33.7091 65.66 33.9803 65.7382 34.2862L69.6493 49.5749C71.4769 56.9863 66.915 65.2222 57.1705 65.9109H57.0804ZM66.8961 50.2636L63.263 36.0569H61.2095L60.6945 36.4802C58.5858 37.8892 56.0947 37.6965 54.1992 36.387L53.8043 36.0569H49.6973L49.6768 36.1043C49.1416 37.1135 48.3428 37.9588 47.3654 38.5501C46.3879 39.1415 45.2685 39.4568 44.1261 39.4624C42.2606 39.4703 40.3903 38.6237 39.3083 36.9146L38.8723 36.0569H36.3086L32.6755 50.2636C31.336 55.6958 34.3231 61.7108 41.1706 62.9002L42.5638 63.0693H57.0125L58.4089 62.9018C65.2596 61.7124 68.2387 55.7068 66.8961 50.2636Z" fill="black"/>
<path fill-rule="evenodd" clip-rule="evenodd" d="M39.584 54.7425C38.7342 53.2956 38.1624 51.4791 37.6601 49.7321L33.8817 35.279C33.7965 34.9178 33.856 34.5376 34.0474 34.2197C34.2388 33.9018 34.5469 33.6713 34.9059 33.5774C35.265 33.4836 35.6465 33.5339 35.9689 33.7175C36.2914 33.9012 36.5293 34.2036 36.6318 34.5603L40.4039 48.9834C40.903 50.7352 41.3911 52.2057 42.0356 53.3035C42.1347 53.4647 42.2006 53.6439 42.2296 53.8309C42.2585 54.0178 42.2498 54.2086 42.2041 54.3922C42.1583 54.5757 42.0764 54.7483 41.9631 54.8997C41.8498 55.0512 41.7074 55.1786 41.5443 55.2743C41.3812 55.3701 41.2006 55.4323 41.0131 55.4574C40.8256 55.4825 40.635 55.4699 40.4524 55.4203C40.2699 55.3708 40.099 55.2854 39.9499 55.169C39.8008 55.0526 39.6764 54.9076 39.584 54.7425Z" fill="black"/>
<path fill-rule="evenodd" clip-rule="evenodd" d="M48.0237 64.1004C46.4946 63.061 45.3052 61.6915 44.2216 60.371C44.1006 60.2269 44.0095 60.0603 43.9534 59.8807C43.8973 59.7012 43.8774 59.5123 43.8948 59.325C43.9122 59.1377 43.9667 58.9557 44.055 58.7896C44.1432 58.6235 44.2636 58.4766 44.4091 58.3573C44.5546 58.2381 44.7223 58.1489 44.9025 58.0949C45.0827 58.0409 45.2718 58.0233 45.4589 58.0429C45.646 58.0626 45.8273 58.1192 45.9924 58.2094C46.1574 58.2997 46.3029 58.4218 46.4204 58.5687C47.4946 59.8766 48.4613 60.9602 49.6223 61.7499C50.7454 62.5129 52.0959 63.031 53.9741 63.091C54.1608 63.097 54.3444 63.1397 54.5146 63.2167C54.6848 63.2937 54.8381 63.4035 54.9659 63.5398C55.0937 63.676 55.1933 63.8361 55.2592 64.0109C55.3251 64.1857 55.3559 64.3717 55.3499 64.5584C55.3439 64.7451 55.3012 64.9288 55.2242 65.099C55.1472 65.2691 55.0374 65.4225 54.9011 65.5502C54.7648 65.678 54.6048 65.7777 54.43 65.8436C54.2552 65.9094 54.0692 65.9403 53.8825 65.9342C51.4641 65.8553 49.5907 65.1666 48.0237 64.1004Z" fill="black"/>
<path fill-rule="evenodd" clip-rule="evenodd" d="M53.4296 49.9784C52.4741 49.2886 51.7446 48.3309 51.3335 47.2266C50.9223 46.1222 50.8478 44.9207 51.1195 43.774C51.3912 42.6273 51.9968 41.5869 52.8598 40.7844C53.7228 39.9819 54.8044 39.4534 55.9678 39.2656C57.1312 39.0778 58.3242 39.2392 59.3958 39.7294C60.4675 40.2197 61.3697 41.0167 61.9884 42.0196C62.6071 43.0226 62.9144 44.1865 62.8716 45.3642C62.8287 46.5418 62.4377 47.6804 61.7478 48.6357C60.8224 49.9164 59.4264 50.7773 57.8666 51.029C56.3068 51.2808 54.7108 50.9029 53.4296 49.9784ZM59.4431 46.9772C59.8039 46.4778 60.0085 45.8826 60.031 45.2669C60.0534 44.6512 59.8929 44.0427 59.5695 43.5182C59.2461 42.9938 58.7745 42.5771 58.2143 42.3207C57.654 42.0644 57.0303 41.9799 56.4221 42.078C55.8138 42.1761 55.2483 42.4523 54.7971 42.8718C54.3459 43.2913 54.0292 43.8352 53.8871 44.4347C53.745 45.0342 53.7838 45.6623 53.9987 46.2397C54.2136 46.8171 54.595 47.3178 55.0945 47.6785C55.4264 47.9176 55.8023 48.089 56.2005 48.1829C56.5988 48.2767 57.0116 48.2912 57.4154 48.2255C57.8192 48.1598 58.2061 48.0151 58.554 47.7999C58.902 47.5846 59.2041 47.3029 59.4431 46.9709V46.9772Z" fill="black"/>
<path fill-rule="evenodd" clip-rule="evenodd" d="M47.0902 57.0003C46.439 56.5301 45.9417 55.8773 45.6615 55.1246C45.3812 54.3718 45.3305 53.5528 45.5157 52.7712C45.7009 51.9896 46.1137 51.2804 46.702 50.7335C47.2903 50.1865 48.0276 49.8263 48.8206 49.6983C49.6136 49.5704 50.4267 49.6805 51.1572 50.0147C51.8876 50.349 52.5026 50.8923 52.9242 51.576C53.3458 52.2597 53.5552 53.0531 53.5259 53.8558C53.4965 54.6586 53.2298 55.4346 52.7594 56.0857C52.1288 56.9586 51.1773 57.5453 50.1142 57.7168C49.0511 57.8884 47.9634 57.6306 47.0902 57.0003ZM50.4532 54.4208C50.5945 54.2257 50.6747 53.993 50.6836 53.7522C50.6926 53.5115 50.63 53.2735 50.5037 53.0683C50.3774 52.8632 50.193 52.7001 49.974 52.5997C49.755 52.4993 49.5112 52.4661 49.2733 52.5044C49.0354 52.5426 48.8142 52.6506 48.6377 52.8145C48.4612 52.9785 48.3373 53.1912 48.2817 53.4256C48.226 53.66 48.2412 53.9056 48.3252 54.1314C48.4092 54.3572 48.5583 54.553 48.7536 54.6941C49.0158 54.8826 49.3422 54.9592 49.661 54.9071C49.9797 54.8549 50.2647 54.6783 50.4532 54.4161V54.4208Z" fill="black"/>
<path fill-rule="evenodd" clip-rule="evenodd" d="M55.0802 93.5323C52.7976 91.8822 51.138 89.5107 50.3696 86.801C49.6011 84.0913 49.7687 81.2016 50.8453 78.5989C50.9954 78.2592 51.2726 77.9917 51.6175 77.8537C51.9624 77.7157 52.3476 77.7182 52.6907 77.8606C53.0338 78.003 53.3075 78.2741 53.4533 78.6158C53.599 78.9575 53.6052 79.3426 53.4706 79.6888C52.9335 80.9852 52.685 82.3829 52.7424 83.7849C52.7998 85.1869 53.1617 86.5597 53.8029 87.8078C54.4441 89.0559 55.3493 90.1495 56.4557 91.0126C57.562 91.8757 58.843 92.4877 60.2096 92.806C61.5762 93.1243 62.9958 93.1414 64.3697 92.856C65.7436 92.5706 67.0388 91.9896 68.1656 91.1533C69.2924 90.317 70.2236 89.2454 70.8946 88.0131C71.5656 86.7808 71.9604 85.4171 72.0515 84.0169C72.0756 83.6399 72.2484 83.2878 72.5321 83.0383C72.8157 82.7887 73.1869 82.662 73.5639 82.6861C73.941 82.7102 74.293 82.8831 74.5426 83.1667C74.7922 83.4503 74.9188 83.8215 74.8948 84.1985C74.7499 86.4293 74.0101 88.5805 72.7522 90.4284C71.4943 92.2764 69.7642 93.7536 67.742 94.7064C65.7198 95.6592 63.4792 96.0528 61.2532 95.8464C59.0273 95.6399 56.8974 94.8408 55.0849 93.5323H55.0802Z" fill="black"/>
<path fill-rule="evenodd" clip-rule="evenodd" d="M76.4066 22.796C74.8453 21.6693 73.6533 20.1048 72.9813 18.3005C72.3092 16.4962 72.1874 14.5331 72.6313 12.6596C73.0751 10.786 74.0647 9.08624 75.4747 7.77517C76.8848 6.46409 78.6521 5.60066 80.5529 5.2941C82.4538 4.98753 84.4028 5.25161 86.1536 6.05292C87.9043 6.85423 89.3781 8.15678 90.3884 9.79578C91.3988 11.4348 91.9003 13.3366 91.8296 15.2607C91.7589 17.1848 91.1191 19.0447 89.9912 20.6051C88.4792 22.6955 86.1993 24.1004 83.6523 24.5112C81.1052 24.922 78.4992 24.3051 76.4066 22.796ZM87.6914 18.9403C88.4893 17.8356 88.9418 16.519 88.9915 15.1572C89.0412 13.7953 88.686 12.4493 87.9707 11.2894C87.2554 10.1294 86.2122 9.20764 84.9731 8.64056C83.7339 8.07348 82.3544 7.8866 81.009 8.10354C79.6636 8.32048 78.4127 8.9315 77.4146 9.85934C76.4165 10.7872 75.7159 11.9901 75.4015 13.3161C75.0871 14.6421 75.1729 16.0315 75.6482 17.3087C76.1235 18.5859 76.9668 19.6935 78.0715 20.4914C79.5532 21.5605 81.3987 21.9976 83.2025 21.7068C85.0063 21.4159 86.6208 20.4209 87.6914 18.9403Z" fill="black"/>
<path fill-rule="evenodd" clip-rule="evenodd" d="M10.1915 92.3746C8.26038 90.9798 6.78623 89.0438 5.95544 86.8112C5.12466 84.5786 4.97456 82.1499 5.52414 79.832C6.07372 77.5142 7.2983 75.4113 9.043 73.7894C10.7877 72.1675 12.9742 71.0994 15.3259 70.7201C17.6777 70.3408 20.0891 70.6674 22.2553 71.6585C24.4214 72.6497 26.245 74.261 27.4954 76.2885C28.7459 78.3161 29.367 80.6689 29.2802 83.0494C29.1934 85.4299 28.4027 87.7313 27.008 89.6625C25.1366 92.2507 22.3143 93.9902 19.1611 94.4988C16.0079 95.0073 12.7817 94.2433 10.1915 92.3746ZM24.7033 87.9976C25.7689 86.5224 26.3731 84.7644 26.4396 82.9458C26.506 81.1272 26.0317 79.3298 25.0765 77.7808C24.1214 76.2318 22.7284 75.0008 21.0737 74.2435C19.419 73.4862 17.5768 73.2365 15.7802 73.5261C13.9836 73.8157 12.3132 74.6316 10.9803 75.8705C9.64733 77.1094 8.7117 78.7158 8.2917 80.4864C7.87171 82.2571 7.9862 84.1125 8.62072 85.8181C9.25523 87.5236 10.3813 89.0028 11.8564 90.0684C13.8352 91.4958 16.2996 92.0794 18.7084 91.6911C21.1172 91.3028 23.2733 89.9744 24.7033 87.9976Z" fill="black"/>
<path fill-rule="evenodd" clip-rule="evenodd" d="M32.0429 23.2401C30.7724 22.0911 29.8276 20.6271 29.3039 18.9961C28.7803 17.365 28.6962 15.6247 29.0604 13.9508C29.4245 12.277 30.2239 10.7288 31.3778 9.46267C32.5317 8.19657 33.9992 7.25738 35.6323 6.73992C37.2653 6.22246 39.006 6.14508 40.6785 6.51557C42.351 6.88607 43.8962 7.69132 45.1579 8.85002C46.4196 10.0087 47.3532 11.4799 47.8645 13.1148C48.3757 14.7498 48.4464 16.4907 48.0696 18.1618C48.0281 18.3439 47.9512 18.5161 47.8431 18.6685C47.7351 18.8208 47.5981 18.9505 47.44 19.0499C47.2819 19.1494 47.1057 19.2167 46.9216 19.2481C46.7374 19.2794 46.5489 19.2742 46.3668 19.2327C46.1846 19.1912 46.0125 19.1143 45.8601 19.0063C45.7077 18.8982 45.5781 18.7613 45.4786 18.6031C45.3792 18.445 45.3118 18.2689 45.2805 18.0847C45.2491 17.9006 45.2543 17.7121 45.2958 17.5299C45.5637 16.3468 45.5146 15.114 45.1534 13.956C44.7923 12.7979 44.1319 11.7557 43.2389 10.9347C42.3459 10.1136 41.2521 9.54281 40.0678 9.27991C38.8836 9.01701 37.6509 9.07132 36.4944 9.43739C35.3379 9.80346 34.2985 10.4683 33.4812 11.3647C32.664 12.2611 32.0978 13.3574 31.8399 14.5427C31.582 15.7281 31.6416 16.9604 32.0125 18.1154C32.3835 19.2703 33.0528 20.3069 33.9527 21.1203C34.0913 21.2454 34.204 21.3966 34.2843 21.5652C34.3645 21.7338 34.4107 21.9166 34.4203 22.1031C34.43 22.2896 34.4027 22.4762 34.3403 22.6522C34.2778 22.8281 34.1812 22.9901 34.0561 23.1288C33.931 23.2674 33.7799 23.3801 33.6112 23.4604C33.4426 23.5406 33.2598 23.5868 33.0733 23.5965C32.8868 23.6061 32.7002 23.5788 32.5243 23.5163C32.3483 23.4538 32.1863 23.3573 32.0476 23.2322L32.0429 23.2401Z" fill="black"/>
<path fill-rule="evenodd" clip-rule="evenodd" d="M84.2727 14.7966C84.1147 13.5851 83.5571 12.9596 82.7183 12.5126C82.3967 12.3294 82.1591 12.0281 82.0561 11.6726C81.9531 11.317 81.9929 10.9353 82.1669 10.6087C82.341 10.282 82.6355 10.0361 82.9881 9.9232C83.3406 9.81032 83.7233 9.83936 84.0547 10.0042C85.6217 10.8382 86.8095 12.2156 87.0938 14.4365C87.1416 14.8106 87.0388 15.1883 86.808 15.4866C86.5772 15.7849 86.2374 15.9794 85.8633 16.0271C85.4892 16.0749 85.1114 15.9721 84.8131 15.7413C84.5148 15.5105 84.3204 15.1707 84.2727 14.7966Z" fill="black"/>
<path fill-rule="evenodd" clip-rule="evenodd" d="M86.7942 67.0714C86.2777 63.0292 84.2668 60.742 81.4409 59.2335C81.2731 59.1474 81.124 59.0288 81.0025 58.8846C80.8809 58.7404 80.7893 58.5734 80.7329 58.3934C80.6765 58.2134 80.6566 58.0239 80.6741 57.8361C80.6917 57.6483 80.7465 57.4659 80.8352 57.2995C80.924 57.133 81.045 56.9859 81.1912 56.8667C81.3374 56.7475 81.5058 56.6586 81.6867 56.6052C81.8676 56.5517 82.0573 56.5348 82.2448 56.5554C82.4323 56.576 82.6139 56.6337 82.7788 56.7251C86.3377 58.6206 88.9693 61.6613 89.6138 66.7112C89.6422 66.8986 89.6329 67.0897 89.5864 67.2735C89.5399 67.4572 89.4571 67.6297 89.3429 67.781C89.2287 67.9322 89.0855 68.0591 88.9215 68.1542C88.7576 68.2493 88.5763 68.3106 88.3884 68.3346C88.2004 68.3586 88.0095 68.3448 87.8269 68.294C87.6444 68.2432 87.4738 68.1564 87.3253 68.0387C87.1768 67.921 87.0533 67.7748 86.9621 67.6087C86.8709 67.4425 86.8138 67.2599 86.7942 67.0714Z" fill="black"/>
<path fill-rule="evenodd" clip-rule="evenodd" d="M20.8741 81.6119C20.6735 80.0323 19.9264 79.1999 18.8333 78.6107C18.5004 78.4333 18.2517 78.1309 18.1418 77.7701C18.0319 77.4093 18.0698 77.0196 18.2472 76.6868C18.4247 76.3539 18.727 76.1052 19.0878 75.9953C19.4487 75.8854 19.8384 75.9233 20.1712 76.1008C21.9925 77.0722 23.3651 78.666 23.6953 81.2454C23.7189 81.4307 23.7059 81.6188 23.6568 81.7989C23.6078 81.9791 23.5237 82.1479 23.4095 82.2956C23.2952 82.4433 23.153 82.5671 22.9909 82.6598C22.8288 82.7525 22.65 82.8124 22.4648 82.8361C22.2795 82.8597 22.0915 82.8467 21.9113 82.7976C21.7311 82.7486 21.5623 82.6645 21.4146 82.5503C21.2669 82.436 21.1431 82.2938 21.0504 82.1317C20.9577 81.9696 20.8978 81.7908 20.8741 81.6056V81.6119Z" fill="black"/>
</svg>
