<svg width="101" height="100" viewBox="0 0 101 100" fill="none" xmlns="http://www.w3.org/2000/svg">
<path fill-rule="evenodd" clip-rule="evenodd" d="M31.9842 84.1348C21.9175 76.8687 17.9607 64.2713 21.1704 52.9803C21.1704 52.9598 21.1909 52.9155 21.1988 52.895C26.7179 37.2759 34.7279 25.5536 42.0161 13.8235C43.8405 10.887 46.074 8.92673 48.6772 8.8667C51.3056 8.8051 53.5376 10.688 55.3114 13.5186C56.2686 15.0393 57.2275 16.5531 58.1879 18.06C58.29 18.2177 58.3599 18.394 58.3935 18.5788C58.427 18.7636 58.4237 18.9533 58.3835 19.1368C58.3434 19.3203 58.2673 19.4941 58.1596 19.648C58.0519 19.8019 57.9148 19.9329 57.7561 20.0336C57.5975 20.1342 57.4205 20.2023 57.2354 20.2341C57.0502 20.2659 56.8606 20.2607 56.6775 20.2188C56.4944 20.1769 56.3214 20.0991 56.1685 19.9899C56.0157 19.8807 55.8859 19.7423 55.7869 19.5827C54.8297 18.0758 53.8693 16.5588 52.9057 15.0319C51.2946 12.4698 49.8319 11.6831 48.7372 11.7147C47.6173 11.74 46.1025 12.6293 44.425 15.3289C37.9834 25.6958 31.2071 35.731 26.0024 48.2984L23.8904 53.8017L23.4324 55.683C22.4425 60.562 22.8793 65.6228 24.6906 70.2599C26.502 74.8971 29.6111 78.9141 33.6459 81.8302C45.2274 90.2021 61.4181 87.5831 69.782 76.0015C71.8382 73.1609 73.2939 69.931 74.0603 66.509C74.8267 63.087 74.8877 59.5448 74.2395 56.0984L73.5461 53.2757L72.1245 49.5541C70.6413 45.8705 69.038 42.4238 67.3494 39.1288C67.1897 38.795 67.1664 38.4122 67.2844 38.0615C67.4024 37.7109 67.6525 37.4201 67.9815 37.2508C68.3105 37.0816 68.6925 37.0473 69.0464 37.1552C69.4002 37.2631 69.6982 37.5047 69.8768 37.8287C72.3038 42.5281 74.4289 47.3773 76.2393 52.3469L76.263 52.4164C77.5681 56.6601 77.8705 61.1488 77.1463 65.5292C76.4222 69.9096 74.6912 74.0622 72.0897 77.66C62.8065 90.5212 44.8388 93.4166 31.9842 84.1348Z" fill="black"/>
<path fill-rule="evenodd" clip-rule="evenodd" d="M44.3111 68.649C42.4369 67.9088 40.8242 66.6294 39.6771 64.9727C38.53 63.3159 37.8999 61.3561 37.8666 59.3413C37.8333 57.3264 38.3982 55.3469 39.4899 53.6531C40.5817 51.9593 42.1511 50.6273 43.9999 49.8255C45.8486 49.0238 47.8936 48.7882 49.8762 49.1488C51.8588 49.5093 53.69 50.4496 55.1382 51.8509C56.5864 53.2522 57.5864 55.0514 58.012 57.0211C58.4376 58.9908 58.2695 61.0425 57.529 62.9166C56.5355 65.429 54.5852 67.444 52.1066 68.5189C49.6281 69.5938 46.8242 69.6406 44.3111 68.649ZM54.8848 61.8725C55.419 60.5215 55.5405 59.0424 55.234 57.6223C54.9275 56.2022 54.2067 54.9049 53.1629 53.8944C52.1191 52.8839 50.799 52.2057 49.3698 51.9455C47.9405 51.6853 46.4661 51.8548 45.1332 52.4326C43.8002 53.0104 42.6685 53.9705 41.8813 55.1915C41.094 56.4125 40.6864 57.8395 40.7102 59.2921C40.734 60.7447 41.188 62.1576 42.0148 63.3522C42.8416 64.5468 44.0041 65.4693 45.3552 66.0032C47.1667 66.7181 49.188 66.6845 50.9749 65.91C52.7617 65.1355 54.168 63.6833 54.8848 61.8725Z" fill="black"/>
<path fill-rule="evenodd" clip-rule="evenodd" d="M43.8558 43.0073C43.5611 41.9991 43.5721 40.9262 43.8873 39.9243C44.2024 38.9223 44.8076 38.0363 45.6262 37.3783C46.4449 36.7203 47.4403 36.3198 48.4866 36.2276C49.5329 36.1353 50.583 36.3554 51.5042 36.8599C52.4254 37.3645 53.1763 38.1309 53.662 39.0623C54.1476 39.9936 54.3461 41.048 54.2325 42.0922C54.1189 43.1364 53.6982 44.1234 53.0236 44.9285C52.349 45.7336 51.4508 46.3205 50.4426 46.6151C49.0908 47.0093 47.6377 46.8507 46.4026 46.1742C45.1676 45.4978 44.2516 44.3587 43.8558 43.0073ZM49.6449 43.8856C50.1134 43.7488 50.5308 43.4761 50.8443 43.1021C51.1578 42.7281 51.3533 42.2695 51.4062 41.7843C51.4591 41.2992 51.3669 40.8092 51.1413 40.3765C50.9157 39.9437 50.5667 39.5876 50.1387 39.3531C49.7107 39.1187 49.2228 39.0164 48.7366 39.0593C48.2505 39.1022 47.788 39.2883 47.4076 39.5941C47.0272 39.8998 46.7461 40.3115 46.5997 40.7771C46.4533 41.2427 46.4483 41.7412 46.5853 42.2096C46.7693 42.8373 47.1948 43.3663 47.7684 43.6805C48.3421 43.9947 49.017 44.0685 49.6449 43.8856Z" fill="black"/>
<path fill-rule="evenodd" clip-rule="evenodd" d="M61.4025 73.8991C60.3938 73.6063 59.4947 73.021 58.8186 72.2172C58.1426 71.4134 57.7201 70.4271 57.6045 69.3832C57.489 68.3393 57.6856 67.2845 58.1694 66.3523C58.6533 65.4201 59.4027 64.6523 60.323 64.146C61.2432 63.6397 62.2929 63.4177 63.3393 63.5079C64.3857 63.5982 65.3818 63.9968 66.2018 64.6532C67.0217 65.3096 67.6285 66.1944 67.9456 67.1957C68.2627 68.197 68.2757 69.2699 67.983 70.2786C67.5902 71.6312 66.6764 72.7724 65.4424 73.4513C64.2084 74.1302 62.7552 74.2913 61.4025 73.8991ZM65.2536 69.4856C65.3891 69.017 65.3827 68.5186 65.2351 68.0536C65.0875 67.5886 64.8053 67.1777 64.4243 66.873C64.0433 66.5683 63.5805 66.3834 63.0944 66.3417C62.6083 66.3 62.1207 66.4033 61.6933 66.6387C61.2659 66.874 60.918 67.2307 60.6933 67.6638C60.4686 68.0969 60.3774 68.5869 60.4311 69.0718C60.4849 69.5567 60.6812 70.0148 60.9952 70.3882C61.3092 70.7616 61.7269 71.0335 62.1955 71.1695C62.8243 71.3516 63.4997 71.2766 64.0731 70.9608C64.6466 70.645 65.0712 70.1144 65.2536 69.4856Z" fill="black"/>
<path fill-rule="evenodd" clip-rule="evenodd" d="M50.7977 58.664C50.1564 57.2203 49.2023 56.6295 47.9892 56.3862C47.6195 56.3119 47.2944 56.0937 47.0856 55.7797C46.8768 55.4657 46.8012 55.0816 46.8756 54.7119C46.9499 54.3421 47.1681 54.0171 47.4821 53.8083C47.7961 53.5994 48.1802 53.5239 48.55 53.5982C50.5718 54.0042 52.3409 55.1352 53.3961 57.5078C53.5494 57.8523 53.5596 58.2437 53.4244 58.5958C53.2891 58.9479 53.0196 59.2318 52.675 59.3851C52.3305 59.5384 51.9391 59.5486 51.587 59.4134C51.2349 59.2782 50.951 59.0086 50.7977 58.664Z" fill="black"/>
<path fill-rule="evenodd" clip-rule="evenodd" d="M58.446 67.6803L55.6265 65.9301C55.3062 65.7311 55.0781 65.413 54.9923 65.0459C54.9066 64.6787 54.9702 64.2925 55.1692 63.9722C55.3682 63.6519 55.6863 63.4238 56.0534 63.338C56.4206 63.2523 56.8068 63.3159 57.1271 63.5149L59.9387 65.2635C60.103 65.3592 60.2465 65.4869 60.3606 65.639C60.4747 65.7911 60.5571 65.9646 60.603 66.1491C60.6489 66.3337 60.6573 66.5255 60.6277 66.7134C60.5981 66.9012 60.5311 67.0812 60.4307 67.2427C60.3303 67.4042 60.1985 67.5439 60.0431 67.6535C59.8878 67.7632 59.712 67.8406 59.5262 67.8811C59.3404 67.9216 59.1484 67.9244 58.9615 67.8894C58.7746 67.8544 58.5966 67.7822 58.4381 67.6772L58.446 67.6803Z" fill="black"/>
<path fill-rule="evenodd" clip-rule="evenodd" d="M47.209 49.2056V45.8884C47.209 45.5114 47.3588 45.1498 47.6254 44.8832C47.892 44.6166 48.2536 44.4668 48.6306 44.4668C49.0076 44.4668 49.3692 44.6166 49.6358 44.8832C49.9024 45.1498 50.0522 45.5114 50.0522 45.8884V49.2056C50.0522 49.5827 49.9024 49.9443 49.6358 50.2109C49.3692 50.4775 49.0076 50.6273 48.6306 50.6273C48.2536 50.6273 47.892 50.4775 47.6254 50.2109C47.3588 49.9443 47.209 49.5827 47.209 49.2056Z" fill="black"/>
<path fill-rule="evenodd" clip-rule="evenodd" d="M76.5374 23.5213C76.0761 20.3495 74.4839 18.5929 72.2362 17.443C71.9197 17.2609 71.6854 16.9641 71.5818 16.6139C71.4783 16.2638 71.5134 15.8872 71.6799 15.5623C71.8464 15.2374 72.1316 14.989 72.4763 14.8686C72.821 14.7482 73.1988 14.765 73.5314 14.9156C76.5089 16.4415 78.744 18.9389 79.3506 23.1169C79.3817 23.3036 79.3753 23.4946 79.3316 23.6787C79.2879 23.8629 79.2079 24.0364 79.0963 24.1893C78.9847 24.3421 78.8436 24.4711 78.6815 24.5687C78.5194 24.6663 78.3394 24.7305 78.1521 24.7577C77.9649 24.7848 77.774 24.7743 77.5909 24.7267C77.4077 24.6791 77.2359 24.5954 77.0855 24.4806C76.9351 24.3657 76.8091 24.222 76.715 24.0578C76.6209 23.8936 76.5605 23.7123 76.5374 23.5245V23.5213Z" fill="black"/>
<path fill-rule="evenodd" clip-rule="evenodd" d="M28.306 70.2786C28.0134 69.2699 28.0264 68.197 28.3435 67.1957C28.6605 66.1944 29.2674 65.3096 30.0873 64.6532C30.9072 63.9968 31.9034 63.5982 32.9498 63.5079C33.9962 63.4177 35.0459 63.6397 35.9661 64.146C36.8863 64.6523 37.6358 65.4201 38.1196 66.3523C38.6035 67.2845 38.8001 68.3393 38.6846 69.3832C38.569 70.4271 38.1465 71.4134 37.4704 72.2172C36.7944 73.021 35.8952 73.6063 34.8865 73.8991C33.5338 74.2913 32.0807 74.1302 30.8467 73.4513C29.6127 72.7724 28.6988 71.6312 28.306 70.2786ZM34.0936 71.1695C34.5621 71.0335 34.9798 70.7616 35.2939 70.3882C35.6079 70.0148 35.8042 69.5567 35.8579 69.0718C35.9117 68.5869 35.8204 68.0969 35.5958 67.6638C35.3711 67.2307 35.0231 66.874 34.5957 66.6387C34.1683 66.4033 33.6808 66.3 33.1947 66.3417C32.7086 66.3834 32.2458 66.5683 31.8647 66.873C31.4837 67.1777 31.2015 67.5886 31.0539 68.0536C30.9064 68.5186 30.8999 69.017 31.0355 69.4856C31.2182 70.1142 31.6429 70.6445 32.2162 70.9602C32.7896 71.2759 33.4648 71.3512 34.0936 71.1695Z" fill="black"/>
<path fill-rule="evenodd" clip-rule="evenodd" d="M35.8933 67.2249C35.6946 66.9046 35.6312 66.5185 35.7171 66.1515C35.803 65.7845 36.0312 65.4666 36.3514 65.2678L39.163 63.5208C39.4833 63.3218 39.8695 63.2581 40.2366 63.3439C40.6038 63.4297 40.9219 63.6578 41.1209 63.9781C41.3199 64.2983 41.3835 64.6845 41.2977 65.0517C41.212 65.4189 40.9839 65.737 40.6636 65.936L37.852 67.683C37.6933 67.7816 37.5168 67.848 37.3324 67.8784C37.1481 67.9088 36.9596 67.9025 36.7776 67.8599C36.5957 67.8174 36.424 67.7394 36.2723 67.6305C36.1205 67.5215 35.9917 67.3837 35.8933 67.2249Z" fill="black"/>
<path fill-rule="evenodd" clip-rule="evenodd" d="M25.5898 92.0725C25.49 91.7091 25.5386 91.321 25.7249 90.9934C25.9112 90.6658 26.22 90.4255 26.5834 90.3255C29.8454 89.4209 32.6582 87.3428 34.4813 84.4904C34.5803 84.3303 34.7101 84.1914 34.8633 84.0818C35.0164 83.9723 35.1898 83.8942 35.3734 83.8522C35.5569 83.8102 35.747 83.8051 35.9325 83.8372C36.1181 83.8692 36.2954 83.9379 36.4542 84.039C36.613 84.1402 36.7502 84.2719 36.8577 84.4265C36.9652 84.5811 37.0409 84.7555 37.0804 84.9396C37.1199 85.1238 37.1225 85.3139 37.0879 85.499C37.0533 85.6841 36.9823 85.8605 36.879 86.0179C34.6756 89.4667 31.2737 91.9779 27.3289 93.0677C26.9664 93.165 26.5801 93.115 26.2543 92.9286C25.9284 92.7422 25.6896 92.4344 25.5898 92.0725Z" fill="black"/>
<path fill-rule="evenodd" clip-rule="evenodd" d="M18.2142 92.9579C15.3178 92.0898 12.7152 90.4433 10.6902 88.1978C8.6652 85.9522 7.29552 83.1939 6.73044 80.2234C6.16535 77.2529 6.42657 74.1843 7.4856 71.352C8.54463 68.5198 10.3608 66.0326 12.7362 64.1617C12.9468 63.9911 13.1669 63.8258 13.3965 63.6657C13.7043 63.4566 14.0818 63.3764 14.448 63.4425C14.8142 63.5086 15.1399 63.7157 15.3551 64.0192C15.5704 64.3228 15.658 64.6986 15.5993 65.0661C15.5405 65.4335 15.34 65.7633 15.0408 65.9846C14.8592 66.1141 14.6775 66.2515 14.4943 66.3937C12.5278 67.9427 11.0242 70.0019 10.1475 72.3467C9.27075 74.6915 9.05452 77.232 9.52231 79.6913C9.99011 82.1505 11.124 84.4342 12.8004 86.2934C14.4768 88.1525 16.6314 89.5158 19.0293 90.2346C19.3828 90.349 19.6776 90.5973 19.8504 90.9263C20.0232 91.2553 20.0603 91.6389 19.9537 91.9949C19.8472 92.351 19.6054 92.6511 19.2803 92.8311C18.9551 93.0111 18.5725 93.0566 18.2142 92.9579Z" fill="black"/>
<path fill-rule="evenodd" clip-rule="evenodd" d="M12.8309 25.0187C11.5977 23.4533 10.8564 21.5573 10.7007 19.5705C10.545 17.5838 10.982 15.5955 11.9562 13.857C12.9305 12.1186 14.3984 10.7081 16.1743 9.80389C17.9502 8.8997 19.9543 8.54242 21.9333 8.77723C23.9122 9.01203 25.7771 9.82839 27.2921 11.1231C28.8071 12.4177 29.9041 14.1326 30.4446 16.0507C30.985 17.9689 30.9445 20.0042 30.3283 21.8994C29.712 23.7946 28.5476 25.4644 26.9823 26.6978C24.8827 28.3507 22.2126 29.1024 19.5591 28.7875C16.9055 28.4726 14.4855 27.1171 12.8309 25.0187ZM25.2227 24.4643C26.3463 23.5789 27.1821 22.3802 27.6244 21.0198C28.0668 19.6594 28.0958 18.1984 27.7079 16.8215C27.3199 15.4446 26.5324 14.2137 25.4449 13.2843C24.3574 12.355 23.0188 11.769 21.5982 11.6005C20.1777 11.4319 18.7391 11.6884 17.4643 12.3375C16.1896 12.9865 15.1359 13.999 14.4365 15.2469C13.7372 16.4948 13.4235 17.9221 13.5353 19.3482C13.6471 20.7743 14.1792 22.1353 15.0644 23.259C16.2521 24.7652 17.9891 25.7383 19.8938 25.9646C21.7985 26.1909 23.7152 25.6518 25.2227 24.4659V24.4643Z" fill="black"/>
<path fill-rule="evenodd" clip-rule="evenodd" d="M22.6892 17.9796C22.4522 17.0176 21.9563 16.5816 21.2407 16.2989C21.0642 16.2324 20.9028 16.1314 20.7657 16.0019C20.6286 15.8725 20.5187 15.717 20.4423 15.5446C20.3659 15.3722 20.3245 15.1863 20.3206 14.9978C20.3167 14.8092 20.3504 14.6218 20.4197 14.4464C20.4889 14.271 20.5924 14.1111 20.724 13.9761C20.8557 13.8411 21.0129 13.7336 21.1865 13.6599C21.36 13.5862 21.5465 13.5478 21.7351 13.5469C21.9237 13.546 22.1105 13.5826 22.2848 13.6546C23.7665 14.2391 24.9701 15.3558 25.444 17.3003C25.5341 17.6665 25.475 18.0534 25.2797 18.376C25.0845 18.6986 24.7692 18.9305 24.403 19.0205C24.0369 19.1106 23.65 19.0515 23.3274 18.8563C23.0048 18.6611 22.773 18.3457 22.6829 17.9796H22.6892Z" fill="black"/>
<path fill-rule="evenodd" clip-rule="evenodd" d="M72.3676 81.868C71.1784 80.3613 70.3511 78.6017 69.9493 76.7248C69.8706 76.3559 69.9416 75.9708 70.1467 75.6543C70.3518 75.3378 70.6743 75.1157 71.0432 75.037C71.412 74.9582 71.7971 75.0292 72.1136 75.2343C72.4301 75.4395 72.6522 75.762 72.7309 76.1308C73.1698 78.1735 74.2543 80.0207 75.8241 81.3994C77.3938 82.778 79.3655 83.615 81.4477 83.7866C83.5299 83.9582 85.612 83.4553 87.3862 82.3522C89.1605 81.2491 90.5328 79.6044 91.3001 77.6611C92.0675 75.7179 92.1893 73.5793 91.6474 71.5616C91.1056 69.5438 89.9289 67.754 88.2913 66.4566C86.6537 65.1592 84.6421 64.4232 82.5539 64.3573C80.4657 64.2915 78.4118 64.8993 76.6957 66.0909C76.5424 66.1975 76.3696 66.2729 76.1872 66.3127C76.0048 66.3526 75.8163 66.3561 75.6325 66.3231C75.4487 66.2901 75.2732 66.2212 75.116 66.1204C74.9589 66.0195 74.8231 65.8888 74.7165 65.7355C74.6099 65.5822 74.5345 65.4094 74.4946 65.2269C74.4548 65.0445 74.4513 64.856 74.4843 64.6722C74.5173 64.4884 74.5862 64.3129 74.687 64.1558C74.7878 63.9986 74.9186 63.8628 75.0719 63.7562C77.0882 62.3559 79.4702 61.5765 81.9242 61.5139C84.3782 61.4513 86.7968 62.1083 88.8819 63.404C90.9669 64.6996 92.6271 66.5772 93.6578 68.8052C94.6885 71.0332 95.0445 73.5141 94.682 75.942C94.3195 78.3699 93.2543 80.6387 91.6178 82.4684C89.9812 84.2982 87.845 85.6089 85.4724 86.239C83.0998 86.869 80.5947 86.7909 78.2661 86.0142C75.9374 85.2375 73.8869 83.7961 72.3676 81.868Z" fill="black"/>
<path fill-rule="evenodd" clip-rule="evenodd" d="M86.6225 73.7176C85.9907 71.1903 84.5785 69.9013 82.6735 69.1494C82.3227 69.011 82.0412 68.7388 81.891 68.3928C81.7409 68.0468 81.7343 67.6553 81.8727 67.3044C82.0112 66.9536 82.2833 66.6721 82.6293 66.5219C82.9753 66.3717 83.3668 66.3651 83.7177 66.5036C86.3903 67.5588 88.518 69.5175 89.3852 73.0368C89.4755 73.403 89.4166 73.79 89.2215 74.1127C89.0265 74.4355 88.7112 74.6675 88.345 74.7578C87.9789 74.8481 87.5919 74.7892 87.2691 74.5941C86.9464 74.3991 86.7144 74.0838 86.6241 73.7176H86.6225Z" fill="black"/>
<path fill-rule="evenodd" clip-rule="evenodd" d="M58.0052 33.8475C56.1823 31.5339 55.0864 28.7316 54.8561 25.7952C54.6259 22.8587 55.2715 19.9199 56.7115 17.3503C58.1514 14.7808 60.3209 12.696 62.9457 11.3595C65.5705 10.0231 68.5327 9.49497 71.4576 9.84204C74.3825 10.1891 77.1388 11.3957 79.378 13.3093C81.6172 15.223 83.2386 17.7576 84.0372 20.5928C84.8359 23.4279 84.7759 26.4362 83.8648 29.2373C82.9537 32.0383 81.2325 34.5063 78.9189 36.3291C75.816 38.772 71.87 39.883 67.9483 39.4176C64.0267 38.9523 60.4503 36.9488 58.0052 33.8475ZM77.1592 34.0955C79.0312 32.6207 80.4238 30.624 81.161 28.3577C81.8981 26.0914 81.9467 23.6574 81.3006 21.3635C80.6544 19.0697 79.3425 17.0189 77.5309 15.4706C75.7192 13.9223 73.4891 12.9461 71.1225 12.6653C68.756 12.3845 66.3594 12.8118 64.2357 13.8931C62.112 14.9744 60.3567 16.6613 59.1917 18.7402C58.0267 20.8192 57.5044 23.197 57.6907 25.5728C57.8771 27.9487 58.7638 30.2159 60.2387 32.0878C62.2171 34.5967 65.1106 36.2174 68.2834 36.5939C71.4562 36.9704 74.6486 36.0717 77.1592 34.0955Z" fill="black"/>
<path fill-rule="evenodd" clip-rule="evenodd" d="M11.4845 63.5268C9.92103 61.5422 9.06521 59.0922 9.05287 56.5657C9.04053 54.0392 9.87235 51.581 11.4163 49.5811C12.9603 47.5813 15.128 46.1545 17.5753 45.527C20.0227 44.8996 22.6095 45.1076 24.9251 46.118C25.0964 46.1926 25.2512 46.3001 25.3809 46.4345C25.5105 46.569 25.6125 46.7276 25.6808 46.9014C25.7492 47.0753 25.7826 47.2608 25.7793 47.4476C25.7759 47.6343 25.7358 47.8186 25.6612 47.9898C25.5866 48.161 25.4791 48.3159 25.3446 48.4456C25.2102 48.5753 25.0516 48.6772 24.8778 48.7455C24.704 48.8139 24.5184 48.8473 24.3316 48.844C24.1449 48.8406 23.9607 48.8005 23.7894 48.7259C22.5736 48.1951 21.2503 47.9565 19.9256 48.0292C18.601 48.1018 17.3117 48.4837 16.1612 49.1443C15.0107 49.8048 14.0309 50.7257 13.3002 51.833C12.5696 52.9404 12.1085 54.2034 11.9538 55.5211C11.7991 56.8387 11.9552 58.1742 12.4095 59.4207C12.8638 60.6672 13.6037 61.7899 14.57 62.6989C15.5362 63.608 16.702 64.2781 17.9738 64.6555C19.2457 65.033 20.5882 65.1074 21.8939 64.8726C22.2639 64.8093 22.6438 64.8949 22.9509 65.1106C23.258 65.3264 23.4673 65.6548 23.5332 66.0243C23.5991 66.3938 23.5162 66.7743 23.3026 67.083C23.089 67.3916 22.7621 67.6032 22.3931 67.6717C20.3699 68.0345 18.2861 67.8405 16.3646 67.1104C14.4431 66.3803 12.7563 65.1416 11.4845 63.5268Z" fill="black"/>
</svg>
