<svg width="101" height="100" viewBox="0 0 101 100" fill="none" xmlns="http://www.w3.org/2000/svg">
<path fill-rule="evenodd" clip-rule="evenodd" d="M30.8916 83.9869C27.1118 81.2651 24.0545 77.6607 21.986 73.4874C21.8184 73.1496 21.7919 72.759 21.9123 72.4016C22.0327 72.0442 22.2902 71.7492 22.6281 71.5817C22.9659 71.4141 23.3566 71.3876 23.7139 71.508C24.0713 71.6284 24.3662 71.8859 24.5338 72.2238C26.3976 75.9827 29.1517 79.2291 32.5565 81.6807C32.7101 81.7891 32.8407 81.9269 32.9408 82.0861C33.0408 82.2453 33.1082 82.4228 33.1391 82.6083C33.1701 82.7937 33.164 82.9835 33.1211 83.1666C33.0782 83.3496 32.9994 83.5224 32.8893 83.6748C32.7792 83.8272 32.6399 83.9563 32.4796 84.0545C32.3193 84.1527 32.1411 84.2182 31.9553 84.247C31.7695 84.2759 31.5799 84.2677 31.3973 84.2227C31.2147 84.1778 31.0428 84.0971 30.8916 83.9853V83.9869Z" fill="black"/>
<path fill-rule="evenodd" clip-rule="evenodd" d="M40.0693 88.3961C39.7125 88.2902 39.4116 88.0485 39.231 87.7231C39.0505 87.3978 39.0047 87.0145 39.1035 86.6558C39.2024 86.297 39.4379 85.9913 39.7597 85.8043C40.0814 85.6173 40.4636 85.5639 40.8243 85.6556C45.0559 86.8227 49.5149 86.8944 53.7818 85.864C58.0488 84.8335 61.9835 82.7348 65.2162 79.7652C68.4488 76.7955 70.8731 73.0525 72.261 68.8881C73.649 64.7237 73.9551 60.2747 73.1504 55.9595L72.457 53.1383L70.3119 47.6635C65.0645 35.1991 58.4508 25.4373 51.8198 14.8904C50.2086 12.3283 48.7459 11.5417 47.6512 11.5733C46.5313 11.5986 45.0165 12.4863 43.339 15.1874C41.3029 18.4634 39.3111 21.5847 37.2623 24.8923C37.0617 25.2083 36.7445 25.4324 36.3796 25.516C36.0147 25.5995 35.6317 25.5358 35.3135 25.3387C34.9953 25.1415 34.7677 24.8268 34.6801 24.4629C34.5925 24.099 34.652 23.7152 34.8456 23.3949C36.8533 20.152 38.9525 16.857 40.9238 13.6868C42.7482 10.7503 44.9818 8.79008 47.5849 8.73006C50.2133 8.66688 52.4453 10.5497 54.2191 13.3819C61.7364 25.333 69.492 36.6554 75.1406 52.2159L75.1644 52.2854C76.6743 57.2069 76.834 62.4438 75.6268 67.4482C74.4196 72.4526 71.8899 77.0407 68.3021 80.7325C64.7144 84.4244 60.2006 87.0844 55.2328 88.4342C50.2649 89.784 45.0256 89.7742 40.0629 88.4056L40.0693 88.3961Z" fill="black"/>
<path fill-rule="evenodd" clip-rule="evenodd" d="M19.0137 59.4012C19.1122 57.1781 19.4689 54.974 20.0767 52.8333C20.0767 52.8128 20.0973 52.767 20.1052 52.748C21.7081 48.2303 23.5817 43.8131 25.7159 39.5206C25.7988 39.3534 25.9139 39.204 26.0546 39.0812C26.1953 38.9584 26.3588 38.8645 26.5357 38.8049C26.7127 38.7453 26.8996 38.7211 27.086 38.7337C27.2723 38.7464 27.4543 38.7956 27.6216 38.8786C27.7889 38.9615 27.9382 39.0766 28.061 39.2173C28.1838 39.358 28.2777 39.5215 28.3374 39.6984C28.397 39.8754 28.4212 40.0624 28.4085 40.2487C28.3959 40.435 28.3467 40.617 28.2637 40.7843C26.4527 44.4317 24.8315 48.1703 23.4065 51.9851L22.8047 53.65L22.6182 54.3418C22.1894 56.0401 21.9348 57.7777 21.8585 59.5276C21.8417 59.9046 21.6759 60.2596 21.3975 60.5143C21.119 60.7691 20.7507 60.9028 20.3737 60.886C19.9966 60.8693 19.6417 60.7034 19.387 60.425C19.1322 60.1465 18.9985 59.7783 19.0152 59.4012H19.0137Z" fill="black"/>
<path fill-rule="evenodd" clip-rule="evenodd" d="M41.9838 69.0316C40.3511 67.8511 39.1052 66.2131 38.4035 64.3245C37.7018 62.436 37.5758 60.3818 38.0415 58.4216C38.5073 56.4615 39.5438 54.6835 41.0201 53.3125C42.4963 51.9414 44.346 51.0389 46.3351 50.719C48.3243 50.3992 50.3636 50.6764 52.1952 51.5155C54.0268 52.3546 55.5685 53.7181 56.6253 55.4334C57.682 57.1487 58.2064 59.1388 58.1321 61.1522C58.0578 63.1655 57.3882 65.1116 56.2079 66.7444C54.6243 68.9329 52.2364 70.4032 49.5692 70.8321C46.902 71.261 44.1737 70.6134 41.9838 69.0316ZM53.9017 65.0732C54.7529 63.8958 55.2357 62.4925 55.289 61.0407C55.3424 59.589 54.964 58.154 54.2016 56.9173C53.4393 55.6807 52.3273 54.6979 51.0063 54.0934C49.6853 53.4889 48.2146 53.2898 46.7804 53.5212C45.3462 53.7527 44.0129 54.4044 42.9492 55.3938C41.8854 56.3832 41.139 57.6659 40.8044 59.0796C40.4698 60.4933 40.5621 61.9745 41.0695 63.3358C41.5769 64.697 42.4767 65.8772 43.655 66.727C45.2338 67.8645 47.1994 68.3293 49.1204 68.0192C51.0415 67.7092 52.761 66.6496 53.9017 65.0732Z" fill="black"/>
<path fill-rule="evenodd" clip-rule="evenodd" d="M56.1141 31.5419C53.83 27.4349 51.2711 23.4102 48.5321 19.3191C48.4284 19.1635 48.3563 18.989 48.32 18.8056C48.2837 18.6222 48.284 18.4334 48.3206 18.25C48.3573 18.0667 48.4297 17.8924 48.5337 17.737C48.6378 17.5817 48.7714 17.4483 48.927 17.3446C49.0826 17.2409 49.257 17.1688 49.4405 17.1325C49.6239 17.0963 49.8127 17.0964 49.996 17.1331C50.1794 17.1698 50.3537 17.2422 50.5091 17.3463C50.6644 17.4503 50.7978 17.5839 50.9015 17.7395C53.6594 21.8622 56.2721 25.9533 58.6051 30.1629C58.701 30.3263 58.7632 30.5073 58.7882 30.6951C58.8132 30.883 58.8003 31.074 58.7504 31.2568C58.7005 31.4396 58.6146 31.6106 58.4977 31.7597C58.3807 31.9088 58.2351 32.033 58.0694 32.1251C57.9038 32.2171 57.7214 32.2751 57.533 32.2957C57.3446 32.3162 57.154 32.2989 56.9725 32.2447C56.7909 32.1905 56.6219 32.1005 56.4756 31.9801C56.3293 31.8597 56.2085 31.7112 56.1204 31.5434L56.1141 31.5419Z" fill="black"/>
<path fill-rule="evenodd" clip-rule="evenodd" d="M31.8632 51.1774C30.7945 50.4045 29.9788 49.3321 29.5194 48.0958C29.0599 46.8595 28.9773 45.5148 29.2819 44.2315C29.5865 42.9482 30.2648 41.7841 31.2309 40.8861C32.1969 39.9882 33.4075 39.3968 34.7096 39.1867C36.0116 38.9766 37.3468 39.1573 38.5463 39.7058C39.7457 40.2543 40.7557 41.146 41.4484 42.2684C42.1412 43.3907 42.4857 44.6932 42.4385 46.0113C42.3912 47.3294 41.9542 48.6038 41.1827 49.6736C40.6698 50.3846 40.0218 50.9875 39.2758 51.4479C38.5297 51.9084 37.7002 52.2172 36.8347 52.3569C35.9692 52.4965 35.0846 52.4642 34.2316 52.2619C33.3786 52.0595 32.5738 51.691 31.8632 51.1774ZM38.8703 48.0182C39.3136 47.4047 39.565 46.6734 39.5928 45.9169C39.6205 45.1605 39.4232 44.4128 39.026 43.7684C38.6288 43.124 38.0494 42.6119 37.3611 42.2968C36.6729 41.9817 35.9065 41.8778 35.1592 41.9982C34.4119 42.1186 33.717 42.4579 33.1625 42.9732C32.608 43.4885 32.2188 44.1566 32.044 44.8932C31.8693 45.6297 31.9169 46.4015 32.1808 47.111C32.4446 47.8205 32.913 48.4358 33.5266 48.8791C34.3505 49.4723 35.3762 49.7141 36.3783 49.5511C37.3804 49.3882 38.2768 48.834 38.8703 48.0103V48.0182Z" fill="black"/>
<path fill-rule="evenodd" clip-rule="evenodd" d="M59.2468 56.3622C58.3953 55.7474 57.7452 54.8939 57.3787 53.9096C57.0122 52.9253 56.9458 51.8544 57.188 50.8324C57.4301 49.8104 57.9699 48.8831 58.739 48.1679C59.5081 47.4526 60.472 46.9814 61.5089 46.814C62.5458 46.6466 63.609 46.7904 64.5642 47.2272C65.5193 47.664 66.3235 48.3743 66.875 49.2681C67.4265 50.162 67.7006 51.1993 67.6625 52.2489C67.6245 53.2985 67.2761 54.3133 66.6613 55.1649C65.8361 56.3059 64.5919 57.0729 63.2018 57.2973C61.8116 57.5218 60.3892 57.1855 59.2468 56.3622ZM64.3568 53.5C64.6424 53.1044 64.8042 52.6329 64.8219 52.1453C64.8396 51.6577 64.7123 51.1757 64.4561 50.7604C64.1999 50.3451 63.8263 50.0151 63.3826 49.8121C62.9388 49.6092 62.4449 49.5423 61.9632 49.6201C61.4814 49.6978 61.0336 49.9167 60.6762 50.2489C60.3189 50.5812 60.068 51.012 59.9555 51.4868C59.8429 51.9616 59.8737 52.4591 60.0439 52.9164C60.2141 53.3738 60.5161 53.7703 60.9117 54.056C61.4424 54.4388 62.1033 54.5952 62.7493 54.491C63.3952 54.3867 63.9734 54.0303 64.3568 53.5Z" fill="black"/>
<path fill-rule="evenodd" clip-rule="evenodd" d="M31.996 76.4789C31.1446 75.8639 30.4946 75.0102 30.1283 74.0259C29.762 73.0415 29.6959 71.9706 29.9382 70.9486C30.1805 69.9266 30.7204 68.9995 31.4897 68.2843C32.259 67.5692 33.223 67.0982 34.2599 66.931C35.2968 66.7638 36.3601 66.9078 37.3152 67.3449C38.2703 67.7819 39.0743 68.4923 39.6256 69.3863C40.1769 70.2803 40.4507 71.3177 40.4125 72.3673C40.3742 73.417 40.0255 74.4317 39.4106 75.2831C39.0023 75.8485 38.4865 76.3279 37.8929 76.694C37.2993 77.06 36.6394 77.3056 35.9509 77.4166C35.2624 77.5277 34.5588 77.502 33.8802 77.3411C33.2016 77.1802 32.5614 76.8872 31.996 76.4789ZM37.1059 73.6183C37.3915 73.2226 37.5535 72.7512 37.5712 72.2635C37.5889 71.7759 37.4615 71.2939 37.2053 70.8786C36.9491 70.4633 36.5755 70.1333 36.1318 69.9304C35.6881 69.7274 35.1941 69.6605 34.7123 69.7383C34.2306 69.816 33.7827 70.0349 33.4254 70.3672C33.068 70.6994 32.8172 71.1302 32.7047 71.605C32.5922 72.0798 32.623 72.5774 32.7932 73.0347C32.9634 73.492 33.2653 73.8886 33.6609 74.1743C34.1916 74.557 34.8525 74.7135 35.4985 74.6092C36.1445 74.505 36.7226 74.1485 37.1059 73.6183Z" fill="black"/>
<path fill-rule="evenodd" clip-rule="evenodd" d="M55.8503 78.1161C54.9988 77.5013 54.3486 76.6478 53.9822 75.6635C53.6157 74.6792 53.5494 73.6083 53.7915 72.5863C54.0336 71.5643 54.5733 70.637 55.3425 69.9218C56.1116 69.2065 57.0755 68.7354 58.1124 68.5679C59.1492 68.4005 60.2125 68.5443 61.1676 68.9811C62.1228 69.4179 62.927 70.1282 63.4785 71.022C64.03 71.9159 64.3041 72.9532 64.2661 74.0028C64.2281 75.0524 63.8796 76.0672 63.2649 76.9188C62.4399 78.0602 61.1956 78.8274 59.8054 79.0519C58.4151 79.2764 56.9926 78.9398 55.8503 78.1161ZM60.9602 75.2555C61.2458 74.8599 61.4078 74.3884 61.4255 73.9008C61.4431 73.4131 61.3158 72.9312 61.0596 72.5159C60.8034 72.1006 60.4298 71.7706 59.9861 71.5676C59.5424 71.3647 59.0484 71.2978 58.5666 71.3756C58.0849 71.4533 57.637 71.6722 57.2797 72.0044C56.9223 72.3367 56.6715 72.7675 56.559 73.2423C56.4465 73.7171 56.4772 74.2146 56.6474 74.6719C56.8176 75.1293 57.1196 75.5258 57.5152 75.8115C58.0468 76.1932 58.7081 76.3484 59.354 76.243C59.9999 76.1375 60.5776 75.7801 60.9602 75.2492V75.2555Z" fill="black"/>
<path fill-rule="evenodd" clip-rule="evenodd" d="M50.7335 60.9592C50.4665 59.3955 49.6894 58.5899 48.5742 58.0591C48.2342 57.896 47.973 57.6044 47.848 57.2486C47.723 56.8929 47.7444 56.502 47.9076 56.1621C48.0708 55.8221 48.3623 55.5609 48.7181 55.4359C49.0738 55.3109 49.4647 55.3323 49.8047 55.4955C51.6639 56.3879 53.0997 57.9201 53.5356 60.4806C53.573 60.6672 53.5725 60.8594 53.5342 61.0458C53.4959 61.2322 53.4206 61.409 53.3127 61.5657C53.2048 61.7225 53.0665 61.8559 52.9061 61.9583C52.7457 62.0606 52.5663 62.1297 52.3787 62.1614C52.1911 62.1931 51.999 62.1869 51.8139 62.143C51.6287 62.0991 51.4543 62.0185 51.3008 61.906C51.1474 61.7934 51.0181 61.6512 50.9207 61.4878C50.8232 61.3243 50.7596 61.143 50.7335 60.9545V60.9592Z" fill="black"/>
<path fill-rule="evenodd" clip-rule="evenodd" d="M40.9711 54.9051L37.8957 51.0399C37.7773 50.894 37.689 50.7261 37.636 50.5458C37.5829 50.3656 37.5661 50.1766 37.5865 49.9899C37.6069 49.8031 37.6642 49.6222 37.7549 49.4577C37.8456 49.2932 37.968 49.1483 38.1151 49.0314C38.2622 48.9145 38.431 48.8279 38.6117 48.7766C38.7925 48.7254 38.9816 48.7104 39.1681 48.7327C39.3547 48.7549 39.535 48.8139 39.6986 48.9063C39.8622 48.9987 40.0059 49.1225 40.1213 49.2708L43.1952 53.136C43.416 53.4321 43.513 53.8025 43.4655 54.1688C43.4179 54.5351 43.2297 54.8686 42.9406 55.0985C42.6515 55.3284 42.2843 55.4368 41.9167 55.4008C41.5491 55.3647 41.21 55.1869 40.9711 54.9051Z" fill="black"/>
<path fill-rule="evenodd" clip-rule="evenodd" d="M55.1486 71.2585L53.0873 68.668C52.8701 68.3715 52.7762 68.0024 52.8252 67.6381C52.8743 67.2738 53.0625 66.9427 53.3505 66.7142C53.6384 66.4858 54.0037 66.3777 54.3696 66.4127C54.7355 66.4477 55.0735 66.6231 55.3129 66.902L57.3743 69.4941C57.6045 69.7897 57.7087 70.1641 57.6643 70.5361C57.6199 70.908 57.4305 71.2474 57.1373 71.4805C56.8441 71.7136 56.4707 71.8216 56.0983 71.7809C55.7259 71.7402 55.3846 71.5542 55.1486 71.2633V71.2585Z" fill="black"/>
<path fill-rule="evenodd" clip-rule="evenodd" d="M54.9883 57.4238C54.7539 57.1288 54.6462 56.7528 54.6888 56.3784C54.7315 56.0041 54.921 55.6619 55.2158 55.4272L57.8063 53.3659C58.1014 53.1311 58.4778 53.0231 58.8525 53.0658C59.2272 53.1084 59.5697 53.2982 59.8045 53.5933C60.0393 53.8885 60.1473 54.2648 60.1046 54.6395C60.0619 55.0143 59.8721 55.3567 59.577 55.5915L56.9849 57.645C56.6907 57.8801 56.3152 57.9889 55.9408 57.9474C55.5665 57.9059 55.2239 57.7176 54.9883 57.4238Z" fill="black"/>
<path fill-rule="evenodd" clip-rule="evenodd" d="M37.2325 70.333C36.998 70.038 36.8903 69.6621 36.933 69.2877C36.9756 68.9133 37.1651 68.5712 37.4599 68.3365L40.052 66.2688C40.3476 66.0386 40.722 65.9344 41.0939 65.9788C41.4659 66.0231 41.8054 66.2125 42.0385 66.5058C42.2715 66.799 42.3795 67.1724 42.3388 67.5448C42.2981 67.9171 42.1121 68.2584 41.8212 68.4944L39.2307 70.5479C38.9372 70.7842 38.5618 70.8943 38.1871 70.8541C37.8124 70.8138 37.469 70.6264 37.2325 70.333Z" fill="black"/>
<path fill-rule="evenodd" clip-rule="evenodd" d="M67.3487 79.1384C67.2261 78.988 67.1357 78.814 67.0829 78.6273C67.0301 78.4406 67.0161 78.245 67.0418 78.0527C67.0674 77.8604 67.1322 77.6753 67.2321 77.509C67.3319 77.3426 67.4648 77.1984 67.6225 77.0854C67.7802 76.9723 67.9593 76.8927 68.1489 76.8515C68.3386 76.8102 68.5345 76.8083 68.7249 76.8457C68.9153 76.8831 69.096 76.959 69.256 77.0689C69.4159 77.1788 69.5517 77.3203 69.6549 77.4846C70.894 79.2138 72.5834 80.5703 74.5395 81.4064C76.4957 82.2425 78.6436 82.5264 80.7498 82.227C82.856 81.9277 84.8398 81.0567 86.4855 79.7086C88.1312 78.3606 89.3759 76.5872 90.0841 74.5812C90.7924 72.5752 90.9371 70.4134 90.5025 68.3309C90.068 66.2484 89.0708 64.325 87.6194 62.7696C86.1681 61.2142 84.3181 60.0866 82.2706 59.5092C80.2231 58.9318 78.0565 58.9268 76.0064 59.4948C75.6429 59.5953 75.2545 59.5474 74.9264 59.3615C74.5983 59.1756 74.3575 58.867 74.2569 58.5036C74.1564 58.1402 74.2043 57.7517 74.3902 57.4236C74.5761 57.0955 74.8847 56.8547 75.2481 56.7542C77.7986 56.0475 80.4942 56.0534 83.0416 56.7715C85.5889 57.4896 87.8907 58.8922 89.6967 60.8269C91.5027 62.7617 92.7437 65.1545 93.2848 67.7452C93.826 70.3359 93.6466 73.0254 92.7662 75.5213C91.8857 78.0172 90.3379 80.224 88.291 81.9018C86.2441 83.5795 83.7764 84.664 81.1562 85.0374C78.536 85.4108 75.8637 85.0587 73.4296 84.0195C70.9955 82.9803 68.8928 81.2938 67.3502 79.1431L67.3487 79.1384Z" fill="black"/>
<path fill-rule="evenodd" clip-rule="evenodd" d="M8.30167 31.0089C7.50755 28.142 7.58139 25.104 8.51393 22.279C9.44647 19.4541 11.1958 16.9692 13.5407 15.1384C15.8855 13.3077 18.7206 12.2135 21.6874 11.9941C24.6541 11.7747 27.6194 12.44 30.208 13.9059C32.7966 15.3718 34.8924 17.5723 36.2304 20.2294C37.5683 22.8864 38.0883 25.8805 37.7245 28.8331C37.3607 31.7856 36.1296 34.564 34.1867 36.8168C32.2439 39.0696 29.6766 40.6957 26.8096 41.4894C22.9655 42.5523 18.8567 42.0454 15.3862 40.0802C11.9157 38.1149 9.36753 34.8521 8.30167 31.0089ZM26.0513 38.7488C28.3762 38.1055 30.4581 36.7871 32.0337 34.9605C33.6093 33.1338 34.6078 30.881 34.9029 28.4868C35.1981 26.0927 34.7766 23.6648 33.6918 21.5102C32.607 19.3556 30.9076 17.5711 28.8086 16.3824C26.7095 15.1936 24.3051 14.6541 21.8994 14.8319C19.4937 15.0098 17.1947 15.8971 15.2933 17.3816C13.3919 18.8661 11.9735 20.8811 11.2173 23.1718C10.4612 25.4625 10.4013 27.926 11.0453 30.2507C11.9106 33.3661 13.9768 36.0108 16.7903 37.6042C19.6038 39.1975 22.9346 39.6092 26.0513 38.7488Z" fill="black"/>
<path fill-rule="evenodd" clip-rule="evenodd" d="M60.3993 85.8639C60.2986 85.5005 60.3463 85.1119 60.5321 84.7837C60.7178 84.4555 61.0263 84.2145 61.3897 84.1137C61.7532 84.013 62.1417 84.0607 62.4699 84.2465C62.7981 84.4322 63.0392 84.7407 63.1399 85.1041C63.5709 86.6446 64.5317 87.9836 65.8531 88.885C67.1744 89.7865 68.7717 90.1927 70.3632 90.0321C71.9547 89.8714 73.4384 89.1542 74.553 88.0068C75.6676 86.8594 76.3414 85.3554 76.4557 83.7599C76.4819 83.3829 76.6568 83.0317 76.942 82.7836C77.2271 82.5355 77.5991 82.4108 77.9761 82.437C78.3531 82.4632 78.7044 82.6381 78.9525 82.9232C79.2005 83.2083 79.3252 83.5803 79.299 83.9574C79.1429 86.2261 78.1894 88.3665 76.6072 90C75.025 91.6334 72.916 92.6546 70.6534 92.8828C68.3908 93.1111 66.1204 92.5317 64.2438 91.2472C62.3672 89.9626 61.0054 88.0558 60.3993 85.8639Z" fill="black"/>
<path fill-rule="evenodd" clip-rule="evenodd" d="M69.5242 27.1398C69.0454 25.4098 69.0903 23.5766 69.6533 21.8721C70.2163 20.1676 71.2722 18.6683 72.6873 17.5639C74.1024 16.4594 75.8131 15.7994 77.6033 15.6672C79.3935 15.5351 81.1827 15.9367 82.7447 16.8214C84.3066 17.7061 85.5712 19.034 86.3784 20.6374C87.1856 22.2407 87.4993 24.0474 87.2797 25.829C87.0601 27.6106 86.3172 29.2871 85.1448 30.6465C83.9724 32.0059 82.4234 32.9871 80.6934 33.466C78.3734 34.1071 75.8938 33.8008 73.7994 32.6146C71.7051 31.4284 70.1674 29.4592 69.5242 27.1398ZM79.9352 30.7255C81.1238 30.3967 82.1881 29.7228 82.9936 28.789C83.7992 27.8552 84.3097 26.7035 84.4606 25.4796C84.6115 24.2557 84.3961 23.0145 83.8416 21.913C83.287 20.8115 82.4183 19.8992 81.3452 19.2915C80.2721 18.6838 79.0429 18.408 77.813 18.4989C76.5832 18.5899 75.4079 19.0436 74.4359 19.8025C73.4639 20.5615 72.7388 21.5916 72.3524 22.7627C71.9659 23.9338 71.9354 25.1932 72.2648 26.3816C72.7059 27.975 73.7617 29.3279 75.2001 30.143C76.6384 30.9582 78.3416 31.1688 79.9352 30.7286V30.7255Z" fill="black"/>
<path fill-rule="evenodd" clip-rule="evenodd" d="M7.43031 70.0965C6.90538 68.1968 6.95549 66.1842 7.57431 64.313C8.19313 62.4419 9.3529 60.7962 10.9069 59.5841C12.461 58.3721 14.3394 57.648 16.305 57.5034C18.2705 57.3589 20.2348 57.8004 21.9494 58.7721C23.664 59.7438 25.052 61.2021 25.9379 62.9626C26.8238 64.7231 27.1678 66.7067 26.9265 68.6627C26.6851 70.6187 25.8691 72.4592 24.5818 73.9515C23.2945 75.4438 21.5936 76.5209 19.6942 77.0466C17.1463 77.7505 14.4231 77.4138 12.1234 76.1105C9.82366 74.8072 8.13558 72.644 7.43031 70.0965ZM18.9359 74.3013C20.2932 73.9248 21.5083 73.1543 22.4277 72.0872C23.347 71.0202 23.9294 69.7045 24.1011 68.3065C24.2728 66.9085 24.0262 65.491 23.3924 64.2332C22.7586 62.9754 21.766 61.9337 20.5403 61.2399C19.3145 60.5461 17.9106 60.2313 16.5059 60.3353C15.1013 60.4393 13.7591 60.9575 12.6489 61.8243C11.5387 62.6911 10.7104 63.8675 10.2688 65.205C9.82714 66.5425 9.79198 67.9808 10.1677 69.3383C10.6726 71.159 11.8799 72.7047 13.5242 73.6354C15.1685 74.5661 17.1151 74.8056 18.9359 74.3013Z" fill="black"/>
<path fill-rule="evenodd" clip-rule="evenodd" d="M28.7831 25.4762C28.3519 22.5113 26.8655 20.8749 24.7694 19.8023C24.4529 19.6203 24.2186 19.3234 24.115 18.9733C24.0115 18.6231 24.0466 18.2466 24.2131 17.9217C24.3797 17.5967 24.6648 17.3483 25.0095 17.2279C25.3542 17.1076 25.732 17.1244 26.0647 17.275C28.8953 18.7235 31.0198 21.1007 31.5932 25.0702C31.6236 25.2565 31.6165 25.447 31.5725 25.6305C31.5285 25.8141 31.4483 25.987 31.3367 26.1392C31.2252 26.2915 31.0845 26.42 30.9227 26.5173C30.761 26.6145 30.5814 26.6786 30.3946 26.7058C30.2078 26.7329 30.0176 26.7226 29.8348 26.6755C29.6521 26.6283 29.4805 26.5452 29.3302 26.431C29.1799 26.3169 29.0538 26.1739 28.9593 26.0105C28.8649 25.8471 28.8039 25.6665 28.7799 25.4793L28.7831 25.4762Z" fill="black"/>
<path fill-rule="evenodd" clip-rule="evenodd" d="M85.0931 70.0116C84.6635 67.0468 83.1755 65.4103 81.0794 64.3378C80.9041 64.2584 80.7466 64.1442 80.6167 64.0022C80.4868 63.8601 80.3871 63.6932 80.3236 63.5115C80.2602 63.3297 80.2343 63.137 80.2475 62.945C80.2607 62.753 80.3128 62.5656 80.4006 62.3943C80.4884 62.223 80.6101 62.0713 80.7582 61.9485C80.9064 61.8256 81.078 61.7341 81.2626 61.6795C81.4472 61.6249 81.6409 61.6083 81.832 61.6309C82.0232 61.6534 82.2078 61.7145 82.3747 61.8105C85.2053 63.2589 87.3314 65.6362 87.9032 69.6057C87.9575 69.9789 87.8612 70.3585 87.6356 70.6608C87.41 70.9631 87.0736 71.1634 86.7003 71.2176C86.3271 71.2719 85.9475 71.1756 85.6452 70.9501C85.3429 70.7245 85.1426 70.3881 85.0884 70.0148L85.0931 70.0116Z" fill="black"/>
<path fill-rule="evenodd" clip-rule="evenodd" d="M79.773 25.0889C79.6151 24.0226 79.1222 23.4919 78.3782 23.1112C78.2029 23.0318 78.0455 22.9177 77.9156 22.7756C77.7857 22.6336 77.686 22.4666 77.6225 22.2849C77.5591 22.1032 77.5331 21.9105 77.5463 21.7184C77.5596 21.5264 77.6116 21.3391 77.6994 21.1678C77.7872 20.9965 77.9089 20.8448 78.0571 20.7219C78.2052 20.599 78.3768 20.5075 78.5614 20.4529C78.746 20.3983 78.9398 20.3818 79.1309 20.4043C79.3221 20.4268 79.5067 20.4879 79.6735 20.5839C81.152 21.3405 82.2861 22.6168 82.5862 24.6829C82.6335 25.0527 82.5337 25.4263 82.3082 25.7231C82.0827 26.02 81.7497 26.2164 81.3807 26.2701C81.0118 26.3237 80.6365 26.2303 80.3358 26.01C80.0351 25.7896 79.833 25.46 79.773 25.092V25.0889Z" fill="black"/>
</svg>
