<svg width="101" height="100" viewBox="0 0 101 100" fill="none" xmlns="http://www.w3.org/2000/svg">
<path fill-rule="evenodd" clip-rule="evenodd" d="M42.8039 81.6766C42.4488 81.5495 42.1588 81.2865 41.9977 80.9456C41.8365 80.6046 41.8175 80.2136 41.9446 79.8586C42.0717 79.5035 42.3347 79.2135 42.6756 79.0524C43.0166 78.8912 43.4076 78.8721 43.7627 78.9993C48.8888 80.8357 54.4202 81.2323 59.7559 80.146C61.0895 79.8769 62.4035 79.5186 63.689 79.0735C64.0425 78.9604 64.4261 78.9899 64.758 79.1558C65.09 79.3217 65.3439 79.6108 65.4655 79.9613C65.5872 80.3119 65.567 80.6961 65.4092 81.032C65.2514 81.3678 64.9685 81.6287 64.621 81.7588C63.2154 82.247 61.7784 82.6396 60.3198 82.934C54.4758 84.1218 48.4183 83.687 42.8039 81.6766Z" fill="black"/>
<path fill-rule="evenodd" clip-rule="evenodd" d="M34.3355 77.169C27.7783 72.3447 23.2567 65.2478 21.6547 57.2663C18.069 39.5103 29.5731 22.1997 47.326 18.6077C65.0789 15.0157 82.3927 26.5246 85.9846 44.279C87.3935 51.2062 86.5166 58.4036 83.4858 64.7899C83.4059 64.9586 83.2936 65.11 83.1553 65.2353C83.0169 65.3607 82.8552 65.4575 82.6794 65.5204C82.5036 65.5832 82.3172 65.6108 82.1307 65.6016C81.9442 65.5924 81.7614 65.5466 81.5927 65.4667C81.4239 65.3869 81.2725 65.2745 81.1472 65.1362C81.0218 64.9978 80.925 64.8361 80.8622 64.6603C80.7993 64.4845 80.7717 64.2981 80.7809 64.1116C80.7901 63.9252 80.8359 63.7423 80.9158 63.5736C83.6843 57.7412 84.4853 51.1679 83.1983 44.8414C79.9238 28.6254 64.1059 18.1196 47.8884 21.3941C31.6708 24.6686 21.1808 40.4817 24.4474 56.6993C25.9103 63.9882 30.0401 70.469 36.0289 74.8739C36.3332 75.0984 36.5359 75.4347 36.5924 75.8087C36.6488 76.1827 36.5543 76.5638 36.3297 76.8681C36.1052 77.1725 35.7689 77.3752 35.3949 77.4316C35.021 77.488 34.6399 77.3936 34.3355 77.169Z" fill="black"/>
<path fill-rule="evenodd" clip-rule="evenodd" d="M5.16384 58.3257C4.02172 55.2704 3.72615 51.9632 4.30834 48.7538C4.89053 45.5444 6.32881 42.5518 8.47132 40.0923C10.6138 37.6328 13.381 35.7978 16.4803 34.781C19.5796 33.7643 22.8959 33.6036 26.079 34.3161C26.263 34.3552 26.4374 34.4305 26.5921 34.5375C26.7467 34.6445 26.8786 34.7811 26.9801 34.9395C27.0816 35.0978 27.1507 35.2747 27.1833 35.46C27.216 35.6452 27.2115 35.8351 27.1702 36.0186C27.1289 36.2021 27.0516 36.3755 26.9428 36.529C26.834 36.6824 26.6959 36.8127 26.5364 36.9123C26.3769 37.012 26.1991 37.079 26.0135 37.1094C25.8279 37.1399 25.6381 37.1332 25.4551 37.0898C23.2042 36.5887 20.8689 36.6043 18.6248 37.1352C16.3807 37.6662 14.2861 38.6988 12.4984 40.1554C10.7107 41.6121 9.27626 43.4549 8.30295 45.5455C7.32964 47.6361 6.84271 49.92 6.87878 52.2258C6.91485 54.5316 7.47304 56.7992 8.51127 58.8583C9.5495 60.9174 11.0408 62.7145 12.8732 64.1145C14.7057 65.5145 16.8315 66.4811 19.0911 66.9416C21.3507 67.4021 23.6853 67.3445 25.9195 66.7733C26.2846 66.679 26.6722 66.7336 26.997 66.9252C27.3218 67.1167 27.5572 67.4294 27.6515 67.7945C27.7458 68.1596 27.6911 68.5472 27.4996 68.872C27.3081 69.1968 26.9954 69.4322 26.6303 69.5265C22.3007 70.6364 17.7137 70.1067 13.751 68.039C9.78841 65.9714 6.72999 62.5119 5.16384 58.3257Z" fill="black"/>
<path fill-rule="evenodd" clip-rule="evenodd" d="M11.695 21.2076C11.2034 19.4313 11.2496 17.5491 11.8276 15.799C12.4057 14.0489 13.4896 12.5095 14.9425 11.3755C16.3954 10.2414 18.1519 9.56356 19.99 9.4277C21.8281 9.29184 23.6651 9.70404 25.2689 10.6122C26.8728 11.5203 28.1713 12.8836 29.0004 14.5297C29.8295 16.1758 30.1518 18.0307 29.9267 19.86C29.7016 21.6893 28.9392 23.4108 27.7358 24.8068C26.5324 26.2028 24.9421 27.2106 23.166 27.7029C21.9863 28.0298 20.7538 28.1211 19.5388 27.9716C18.3238 27.8221 17.1502 27.4347 16.0849 26.8316C15.0197 26.2284 14.0838 25.4213 13.3305 24.4563C12.5773 23.4913 12.0216 22.3874 11.695 21.2076ZM22.4077 24.9623C23.6419 24.62 24.747 23.9195 25.5831 22.9493C26.4192 21.9791 26.9488 20.7828 27.1051 19.5116C27.2613 18.2404 27.0371 16.9514 26.4608 15.8076C25.8845 14.6638 24.9821 13.7165 23.8675 13.0856C22.753 12.4547 21.4763 12.1684 20.199 12.2629C18.9217 12.3575 17.7012 12.8286 16.6917 13.6168C15.6822 14.405 14.929 15.4748 14.5274 16.691C14.1258 17.9071 14.0939 19.2151 14.4356 20.4494C14.6626 21.2693 15.0489 22.0364 15.5724 22.707C16.0959 23.3775 16.7464 23.9384 17.4867 24.3575C18.2271 24.7765 19.0427 25.0457 19.8871 25.1494C20.7315 25.2532 21.588 25.1896 22.4077 24.9623Z" fill="black"/>
<path fill-rule="evenodd" clip-rule="evenodd" d="M37.2803 71.1549C37.1157 71.0666 36.9702 70.9467 36.852 70.8021C36.7339 70.6575 36.6453 70.4911 36.5915 70.3123C36.5377 70.1335 36.5196 69.9458 36.5383 69.76C36.557 69.5742 36.6122 69.3939 36.7006 69.2294L39.2642 64.6597L39.0889 64.546C33.5083 60.5828 32.2256 54.1555 36.3088 47.6445C40.52 40.9218 50.3671 34.1549 66.6826 29.3214C68.1042 28.8996 69.1388 30.6767 68.0758 31.705C56.9302 42.4856 46.8983 56.2879 39.2058 70.591C39.0246 70.9206 38.7204 71.1649 38.3595 71.2706C37.9986 71.3763 37.6105 71.3347 37.2803 71.1549ZM61.9628 33.839L61.7969 33.8958C49.2614 38.4087 41.9306 44.0209 38.7177 49.1483C35.6312 54.0734 36.3041 58.5594 39.9592 61.6269L40.7348 62.1703L42.9873 58.4646C48.5695 49.6379 54.9669 41.2472 61.887 33.9116L61.9628 33.839Z" fill="black"/>
<path fill-rule="evenodd" clip-rule="evenodd" d="M41.0387 65.7241C40.7756 65.4597 40.6271 65.1024 40.625 64.7295C40.623 64.3565 40.7675 63.9976 41.0276 63.7303C41.2877 63.4629 41.6424 63.3085 42.0153 63.3003C42.3882 63.2921 42.7494 63.4308 43.021 63.6865C48.7928 69.3066 55.4997 68.8217 60.3317 63.3895C65.3058 57.7931 68.4175 46.7218 65.7022 31.0081C65.6379 30.6365 65.7239 30.2546 65.9412 29.9464C66.1585 29.6382 66.4893 29.4289 66.8609 29.3646C67.2325 29.3003 67.6144 29.3862 67.9226 29.6035C68.2308 29.8208 68.4401 30.1516 68.5044 30.5232C71.3018 46.7123 68.2248 58.7977 62.4578 65.2834C56.5407 71.935 47.962 72.4658 41.0387 65.7241Z" fill="black"/>
<path fill-rule="evenodd" clip-rule="evenodd" d="M62.9926 81.2085C62.1989 78.3419 62.273 75.3044 63.2056 72.48C64.1382 69.6555 65.8875 67.1711 68.2321 65.3408C70.5767 63.5104 73.4114 62.4165 76.3777 62.1972C79.344 61.9779 82.3088 62.6431 84.897 64.1088C87.4853 65.5745 89.5808 67.7747 90.9186 70.4313C92.2564 73.0879 92.7764 76.0815 92.4128 79.0336C92.0493 81.9858 90.8185 84.7638 88.8761 87.0164C86.9337 89.269 84.367 90.8951 81.5005 91.689C77.6565 92.7519 73.5476 92.245 70.0771 90.2798C66.6066 88.3146 64.0585 85.0518 62.9926 81.2085ZM80.7423 88.9485C83.0677 88.3054 85.1502 86.9871 86.7263 85.1604C88.3024 83.3336 89.3013 81.0805 89.5968 78.686C89.8923 76.2915 89.471 73.8632 88.3862 71.7081C87.3014 69.553 85.6019 67.7681 83.5026 66.579C81.4033 65.3899 78.9985 64.8501 76.5924 65.0279C74.1863 65.2056 71.8869 66.0929 69.9852 67.5776C68.0834 69.0623 66.6646 71.0776 65.9083 73.3687C65.152 75.6597 65.0921 78.1236 65.7363 80.4487C66.6012 83.5644 68.6673 86.2095 71.4808 87.8032C74.2944 89.3968 77.6253 89.8087 80.7423 88.9485Z" fill="black"/>
<path fill-rule="evenodd" clip-rule="evenodd" d="M49.5208 64.8488C49.1506 64.8057 48.8121 64.6188 48.5782 64.3286C48.3444 64.0383 48.2339 63.6678 48.2706 63.2969C48.3072 62.926 48.4881 62.5843 48.7742 62.3454C49.0603 62.1065 49.4289 61.9896 49.8004 62.0198C52.0387 62.2409 53.8236 61.4164 55.4095 59.7183C57.0459 57.965 58.4217 55.316 59.6601 52.0463C59.7969 51.6981 60.0654 51.4179 60.4074 51.2664C60.7494 51.1149 61.1374 51.1042 61.4872 51.2368C61.837 51.3694 62.1205 51.6346 62.2761 51.9747C62.4317 52.3149 62.447 52.7027 62.3186 53.0541C61.0391 56.4312 59.5053 59.4956 57.4866 61.658C55.4126 63.8774 52.7905 65.1647 49.5208 64.8488Z" fill="black"/>
<path fill-rule="evenodd" clip-rule="evenodd" d="M29.7497 41.1812C29.5796 41.1043 29.4263 40.9946 29.2986 40.8584C29.1709 40.7222 29.0713 40.5622 29.0054 40.3875C28.9396 40.2128 28.9088 40.0268 28.9148 39.8402C28.9208 39.6536 28.9635 39.47 29.0404 39.2999C33.5043 29.4339 41.9345 24.1597 53.3802 23.0208C53.5673 22.9995 53.7569 23.0157 53.9377 23.0683C54.1186 23.1209 54.2872 23.209 54.4337 23.3273C54.5803 23.4457 54.7019 23.592 54.7914 23.7577C54.8809 23.9234 54.9366 24.1053 54.9552 24.2927C54.9738 24.4802 54.955 24.6695 54.8999 24.8496C54.8447 25.0297 54.7543 25.197 54.634 25.3419C54.5136 25.4868 54.3656 25.6063 54.1986 25.6935C54.0317 25.7807 53.8491 25.8338 53.6614 25.8498C43.0513 26.905 35.6115 31.6737 31.6309 40.472C31.554 40.6421 31.4443 40.7954 31.3081 40.9231C31.1719 41.0508 31.0119 41.1504 30.8372 41.2162C30.6625 41.2821 30.4766 41.3129 30.29 41.3069C30.1034 41.3009 29.9198 41.2582 29.7497 41.1812Z" fill="black"/>
<path fill-rule="evenodd" clip-rule="evenodd" d="M81.6324 38.4138C81.6265 38.037 81.7704 37.6733 82.0325 37.4026C82.2947 37.1319 82.6535 36.9763 83.0303 36.9701C84.9473 36.9403 86.8168 36.3678 88.4217 35.3189C90.0267 34.27 91.3014 32.7877 92.0982 31.0437C92.895 29.2998 93.1812 27.3658 92.9235 25.4659C92.6659 23.566 91.875 21.778 90.6425 20.3093C89.4101 18.8405 87.7866 17.7512 85.9603 17.1676C84.1339 16.584 82.1796 16.53 80.3238 17.0119C78.4681 17.4938 76.7869 18.4918 75.4753 19.8903C74.1636 21.2887 73.2752 23.0303 72.9131 24.9131C72.8801 25.0987 72.8105 25.2759 72.7084 25.4344C72.6063 25.5928 72.4736 25.7294 72.3183 25.8361C72.1629 25.9428 71.9877 26.0176 71.8032 26.056C71.6187 26.0944 71.4283 26.0958 71.2432 26.0599C71.0582 26.0241 70.8821 25.9519 70.7252 25.8473C70.5683 25.7428 70.4338 25.6082 70.3294 25.4512C70.2251 25.2942 70.153 25.118 70.1174 24.9329C70.0818 24.7478 70.0833 24.5574 70.122 24.3729C70.5876 21.9652 71.7259 19.7387 73.405 17.9514C75.0841 16.1641 77.2352 14.889 79.6092 14.2741C81.9831 13.6591 84.4828 13.7293 86.8185 14.4766C89.1542 15.2239 91.2303 16.6177 92.8064 18.4965C94.3824 20.3753 95.3939 22.6622 95.7237 25.0923C96.0534 27.5223 95.6879 29.9961 94.6694 32.2269C93.6509 34.4578 92.0212 36.3544 89.9691 37.697C87.917 39.0397 85.5265 39.7735 83.0745 39.8133C82.6977 39.8188 82.3342 39.6745 82.0638 39.412C81.7933 39.1496 81.6382 38.7906 81.6324 38.4138Z" fill="black"/>
<path fill-rule="evenodd" clip-rule="evenodd" d="M85.2811 79.076C85.0945 79.0655 84.912 79.0184 84.7437 78.9373C84.5754 78.8562 84.4248 78.7427 84.3004 78.6033C84.176 78.464 84.0803 78.3015 84.0187 78.1251C83.9572 77.9487 83.9309 77.7619 83.9416 77.5754C84.1122 74.5837 82.9812 72.6787 81.1426 71.2145C80.9915 71.0998 80.8648 70.9561 80.7701 70.7918C80.6753 70.6274 80.6144 70.4458 80.591 70.2576C80.5675 70.0693 80.582 69.8783 80.6335 69.6957C80.685 69.5132 80.7725 69.3428 80.8909 69.1946C81.0092 69.0463 81.1561 68.9233 81.3228 68.8327C81.4894 68.7421 81.6725 68.6858 81.8613 68.6671C82.05 68.6484 82.2406 68.6676 82.4219 68.7237C82.6031 68.7797 82.7713 68.8715 82.9165 68.9936C85.4012 70.9775 87.0091 73.7323 86.7817 77.7365C86.7712 77.9231 86.7241 78.1057 86.643 78.274C86.5619 78.4422 86.4484 78.5929 86.309 78.7173C86.1697 78.8417 86.0071 78.9374 85.8308 78.999C85.6544 79.0605 85.4676 79.0867 85.2811 79.076Z" fill="black"/>
<path fill-rule="evenodd" clip-rule="evenodd" d="M87.9194 27.2535C87.4882 24.2886 86.0002 22.6522 83.9041 21.5797C83.5877 21.3976 83.3533 21.1007 83.2498 20.7506C83.1462 20.4005 83.1814 20.0239 83.3479 19.699C83.5144 19.3741 83.7995 19.1257 84.1442 19.0053C84.4889 18.8849 84.8667 18.9017 85.1993 19.0523C88.03 20.5008 90.1561 22.8781 90.7279 26.8476C90.7676 27.0376 90.768 27.2338 90.729 27.424C90.69 27.6143 90.6124 27.7945 90.5011 27.9536C90.3898 28.1127 90.247 28.2473 90.0817 28.3491C89.9164 28.4509 89.7319 28.5177 89.5397 28.5455C89.3475 28.5733 89.1518 28.5614 88.9643 28.5106C88.7769 28.4598 88.6019 28.3711 88.4501 28.25C88.2982 28.129 88.1729 27.9781 88.0816 27.8067C87.9903 27.6353 87.9351 27.4471 87.9194 27.2535Z" fill="black"/>
</svg>
