<svg width="101" height="100" viewBox="0 0 101 100" fill="none" xmlns="http://www.w3.org/2000/svg">
<path fill-rule="evenodd" clip-rule="evenodd" d="M19.5395 63.5955C15.8567 56.212 15.1708 47.6908 17.625 39.8133C17.6808 39.6351 17.7712 39.4697 17.8909 39.3264C18.0106 39.1832 18.1574 39.0649 18.3229 38.9783C18.4884 38.8918 18.6692 38.8387 18.8552 38.8221C19.0412 38.8054 19.2286 38.8256 19.4068 38.8814C19.585 38.9372 19.7504 39.0275 19.8937 39.1473C20.037 39.267 20.1552 39.4138 20.2418 39.5793C20.3283 39.7447 20.3814 39.9256 20.3981 40.1116C20.4147 40.2975 20.3945 40.485 20.3387 40.6631C18.101 47.8376 18.7236 55.5994 22.0763 62.3255C22.1678 62.4934 22.2245 62.6781 22.2429 62.8684C22.2614 63.0588 22.2413 63.2509 22.1838 63.4333C22.1263 63.6157 22.0325 63.7846 21.9082 63.9299C21.7839 64.0752 21.6315 64.1939 21.4603 64.279C21.289 64.364 21.1023 64.4137 20.9114 64.4249C20.7205 64.4361 20.5293 64.4087 20.3492 64.3443C20.1691 64.2799 20.0039 64.1798 19.8634 64.0501C19.7229 63.9203 19.6101 63.7635 19.5316 63.5892L19.5395 63.5955Z" fill="black"/>
<path fill-rule="evenodd" clip-rule="evenodd" d="M36.3279 78.975C36.1543 78.9063 35.9958 78.8041 35.8617 78.6742C35.7276 78.5444 35.6203 78.3893 35.5461 78.218C35.3962 77.872 35.3899 77.4807 35.5286 77.13C35.6673 76.7794 35.9396 76.4982 36.2856 76.3483C36.6315 76.1984 37.0229 76.1921 37.3736 76.3307C49.4194 81.0932 63.6214 77.3022 71.5477 66.3257C80.9241 53.3447 77.9956 35.1969 65.0146 25.8221C54.5404 18.2575 40.7002 18.6998 30.8199 25.9801C30.516 26.2036 30.1357 26.2972 29.7627 26.2403C29.3898 26.1834 29.0547 25.9807 28.8312 25.6768C28.6077 25.3729 28.5141 24.9926 28.571 24.6196C28.6278 24.2467 28.8305 23.9116 29.1345 23.6881C39.9799 15.7002 55.1754 15.2073 66.6811 23.5159C80.9352 33.8116 84.1496 53.7364 73.8539 67.9906C65.1489 80.0459 49.5537 84.2034 36.3279 78.975Z" fill="black"/>
<path fill-rule="evenodd" clip-rule="evenodd" d="M76.5205 42.8265C76.4954 42.6413 76.507 42.4531 76.5547 42.2724C76.6024 42.0917 76.6853 41.9223 76.7985 41.7736C76.9118 41.625 77.0532 41.5002 77.2148 41.4063C77.3763 41.3124 77.5548 41.2513 77.74 41.2264C80.5854 40.8396 83.2735 39.6916 85.5205 37.9035C87.7675 36.1155 89.4898 33.7538 90.5057 31.0679C91.5215 28.382 91.7932 25.4716 91.2919 22.6442C90.7907 19.8167 89.5351 17.177 87.6579 15.004C85.7806 12.8311 83.3513 11.2054 80.6266 10.2987C77.902 9.39206 74.983 9.23807 72.178 9.85302C69.3731 10.468 66.7862 11.829 64.6907 13.7924C62.5953 15.7558 61.069 18.2487 60.273 21.0078C60.2211 21.1872 60.1344 21.3547 60.0179 21.5006C59.9013 21.6465 59.7571 21.768 59.5936 21.8583C59.2633 22.0404 58.8741 22.0839 58.5117 21.9792C58.3323 21.9274 58.1649 21.8407 58.0189 21.7241C57.873 21.6075 57.7515 21.4633 57.6613 21.2998C57.4791 20.9695 57.4356 20.5804 57.5403 20.218C58.4769 16.9634 60.2753 14.0222 62.7456 11.7055C65.2159 9.38871 68.2662 7.78238 71.5741 7.05626C74.8821 6.33015 78.3247 6.51122 81.5382 7.58036C84.7517 8.64949 87.6167 10.567 89.8303 13.1301C92.0439 15.6932 93.5239 18.8068 94.1138 22.1417C94.7038 25.4766 94.3818 28.909 93.1819 32.076C91.982 35.243 89.9487 38.0269 87.2971 40.1337C84.6454 42.2404 81.4738 43.5915 78.1175 44.0443C77.7443 44.0942 77.3665 43.994 77.0672 43.7657C76.7678 43.5373 76.5712 43.1996 76.5205 42.8265Z" fill="black"/>
<path fill-rule="evenodd" clip-rule="evenodd" d="M13.3193 39.503C11.3736 38.0979 9.88832 36.1474 9.05118 33.8982C8.21404 31.6489 8.0627 29.202 8.61627 26.8667C9.16985 24.5314 10.4035 22.4128 12.1612 20.7786C13.9189 19.1445 16.1217 18.0683 18.491 17.6861C20.8604 17.3039 23.2899 17.6329 25.4722 18.6315C27.6546 19.6301 29.4918 21.2534 30.7516 23.2961C32.0114 25.3389 32.6371 27.7094 32.5497 30.1077C32.4622 32.5061 31.6655 34.8247 30.2603 36.7703C28.3753 39.378 25.5321 41.1307 22.3554 41.6431C19.1788 42.1555 15.9287 41.3858 13.3193 39.503ZM27.9557 35.1054C29.0318 33.6158 29.6419 31.8405 29.7091 30.0041C29.7762 28.1677 29.2972 26.3526 28.3327 24.7884C27.3683 23.2242 25.9616 21.9812 24.2907 21.2164C22.6197 20.4517 20.7595 20.1997 18.9453 20.4922C17.1311 20.7847 15.4444 21.6086 14.0984 22.8597C12.7525 24.1109 11.8078 25.733 11.3838 27.5211C10.9598 29.3091 11.0755 31.1828 11.7164 32.905C12.3573 34.6273 13.4945 36.1208 14.9842 37.1968C16.982 38.6386 19.4705 39.2283 21.9028 38.8361C24.3352 38.444 26.5123 37.1021 27.9557 35.1054Z" fill="black"/>
<path fill-rule="evenodd" clip-rule="evenodd" d="M39.0116 66.0029C36.7164 64.3434 34.9872 62.0182 34.0584 59.3426C33.1296 56.667 33.0462 53.7705 33.8195 51.0458L33.8321 51.0032L33.8463 50.9605C36.6422 43.0484 41.0555 37.2593 44.3537 31.3738C44.6498 30.782 45.083 30.2697 45.6174 29.8795C45.9978 29.6124 46.4476 29.4614 46.9122 29.4449C47.3768 29.4283 47.8362 29.5469 48.2347 29.7863C48.8523 30.1417 49.3262 30.7246 49.6974 31.3406C53.3162 37.3588 57.401 42.8715 60.2443 50.7141L60.2569 50.7489L60.268 50.7836C61.1154 53.5458 61.0738 56.5045 60.149 59.2418C59.2242 61.979 57.463 64.3567 55.1141 66.0391C52.7651 67.7214 49.947 68.6235 47.0577 68.6178C44.1685 68.6122 41.3539 67.6991 39.0116 66.0076V66.0029ZM55.9589 61.2325C56.8284 60.0311 57.444 58.6651 57.768 57.2178C58.092 55.7706 58.1176 54.2725 57.8433 52.815L57.5558 51.6398L56.5022 48.975C53.8975 42.8905 50.5614 38.2907 47.2617 32.8017C47.1985 32.6974 47.1401 32.6106 47.088 32.5395L47.02 32.4542L46.9869 32.5C46.9442 32.5648 46.8968 32.6437 46.8447 32.7385C43.7361 38.2923 40.2294 42.9726 37.5978 49.1661L36.549 51.8625L36.2236 53.4642C35.9197 55.8768 36.4279 58.322 37.6678 60.4138C38.9078 62.5056 40.8089 64.125 43.0713 65.0165C45.3338 65.9079 47.8286 66.0207 50.1622 65.3369C52.4958 64.6532 54.5353 63.2119 55.9589 61.2404V61.2325Z" fill="black"/>
<path fill-rule="evenodd" clip-rule="evenodd" d="M19.4212 93.81C17.5956 93.5488 15.8282 92.9766 14.196 92.1183C13.8645 91.9415 13.6165 91.6407 13.5062 91.2817C13.3958 90.9227 13.432 90.5345 13.6069 90.2021C13.7817 89.8697 14.0811 89.62 14.4395 89.5075C14.7979 89.3951 15.1862 89.4291 15.5196 89.602C18.3403 91.0903 21.6003 91.5201 24.7103 90.8137C27.8202 90.1072 30.5747 88.3113 32.4756 85.7505C34.3765 83.1898 35.2984 80.0334 35.0744 76.8521C34.8504 73.6708 33.4954 70.6747 31.2545 68.4056C29.0135 66.1364 26.0345 64.7441 22.8563 64.4804C19.678 64.2168 16.5103 65.0991 13.9261 66.9679C11.3418 68.8367 9.51157 71.5685 8.76638 74.6694C8.02119 77.7703 8.41025 81.0355 9.86316 83.8745C10.0193 84.2078 10.0401 84.5886 9.92112 84.9369C9.80218 85.2852 9.55281 85.5738 9.22543 85.742C8.89805 85.9102 8.5182 85.9449 8.16579 85.8387C7.81337 85.7326 7.51586 85.4939 7.33584 85.1729C5.68149 81.9446 5.15962 78.2542 5.85398 74.6938C6.54834 71.1335 8.41867 67.9096 11.1648 65.5395C13.911 63.1695 17.3737 61.7907 20.9973 61.6244C24.621 61.4582 28.1954 62.5141 31.147 64.6227C34.0986 66.7314 36.2563 69.7705 37.2738 73.2523C38.2912 76.7341 38.1095 80.4568 36.7577 83.823C35.4059 87.1892 32.9624 90.0036 29.8194 91.8147C26.6764 93.6258 23.0162 94.3285 19.4259 93.81H19.4212Z" fill="black"/>
<path fill-rule="evenodd" clip-rule="evenodd" d="M74.0141 93.0042C72.1836 91.6814 70.7864 89.8456 69.9992 87.7287C69.2121 85.6119 69.0703 83.3092 69.5919 81.1118C70.1135 78.9144 71.2749 76.921 72.9294 75.3837C74.5839 73.8464 76.6572 72.8343 78.8869 72.4753C81.1166 72.1163 83.4028 72.4265 85.4562 73.3668C87.5096 74.3072 89.238 75.8352 90.4229 77.7579C91.6079 79.6806 92.196 81.9114 92.113 84.1683C92.0301 86.4253 91.2797 88.6069 89.9568 90.4374C88.1825 92.8911 85.5064 94.5398 82.5168 95.0212C79.5273 95.5025 76.469 94.777 74.0141 93.0042ZM87.6522 88.7678C88.6451 87.3927 89.208 85.7541 89.2696 84.0592C89.3313 82.3643 88.889 80.6891 87.9986 79.2456C87.1082 77.802 85.8097 76.6549 84.2674 75.9493C82.7251 75.2437 81.0082 75.0113 79.3338 75.2814C77.6594 75.5516 76.1027 76.3122 74.8606 77.4671C73.6185 78.6219 72.7467 80.1192 72.3555 81.7695C71.9643 83.4198 72.0712 85.1491 72.6628 86.7386C73.2544 88.3282 74.304 89.7066 75.679 90.6996C77.5232 92.0304 79.8203 92.5745 82.0655 92.2122C84.3107 91.85 86.3202 90.6111 87.6522 88.7678Z" fill="black"/>
<path fill-rule="evenodd" clip-rule="evenodd" d="M83.5906 83.9028C83.3711 82.1779 82.5449 81.2459 81.3413 80.6046C81.1735 80.5185 81.0244 80.3999 80.9029 80.2557C80.7813 80.1114 80.6897 79.9445 80.6333 79.7644C80.577 79.5844 80.557 79.395 80.5745 79.2072C80.5921 79.0194 80.6468 78.837 80.7356 78.6706C80.8244 78.5041 80.9454 78.357 81.0916 78.2378C81.2378 78.1186 81.4062 78.0297 81.5871 77.9762C81.768 77.9228 81.9577 77.9059 82.1452 77.9265C82.3327 77.9471 82.5142 78.0048 82.6792 78.0962C84.611 79.1245 86.0611 80.8084 86.4117 83.5426C86.4354 83.7278 86.4223 83.9159 86.3733 84.0961C86.3242 84.2763 86.2402 84.4451 86.1259 84.5928C86.0117 84.7405 85.8694 84.8642 85.7074 84.957C85.5453 85.0497 85.3665 85.1096 85.1813 85.1332C84.996 85.1569 84.8079 85.1438 84.6278 85.0948C84.4476 85.0457 84.2788 84.9617 84.1311 84.8474C83.9834 84.7332 83.8596 84.5909 83.7669 84.4288C83.6742 84.2668 83.6143 84.088 83.5906 83.9028Z" fill="black"/>
<path fill-rule="evenodd" clip-rule="evenodd" d="M70.8852 46.5552C68.8223 36.4143 63.3711 30.8178 56.6311 27.6318C56.4583 27.5547 56.3026 27.4438 56.1732 27.3056C56.0438 27.1675 55.9433 27.0049 55.8775 26.8274C55.8118 26.6499 55.7822 26.4611 55.7904 26.272C55.7986 26.0829 55.8445 25.8974 55.9254 25.7262C56.0063 25.5551 56.1205 25.4019 56.2614 25.2755C56.4023 25.1491 56.567 25.0521 56.7459 24.9902C56.9248 24.9284 57.1142 24.9028 57.3031 24.9151C57.4919 24.9274 57.6764 24.9773 57.8458 25.0619C65.3519 28.6096 71.4191 34.9216 73.67 45.9897C73.7142 46.1752 73.7207 46.3677 73.6889 46.5558C73.6572 46.7439 73.588 46.9236 73.4853 47.0844C73.3827 47.2451 73.2488 47.3836 73.0915 47.4915C72.9343 47.5994 72.7569 47.6746 72.57 47.7125C72.3831 47.7505 72.1905 47.7504 72.0036 47.7124C71.8167 47.6743 71.6394 47.5991 71.4822 47.4911C71.325 47.3831 71.1911 47.2446 71.0886 47.0838C70.986 46.923 70.9168 46.7433 70.8852 46.5552Z" fill="black"/>
<path fill-rule="evenodd" clip-rule="evenodd" d="M29.3478 76.7642C28.4316 73.0443 26.3165 71.1267 23.5112 70.021C23.1623 69.8816 22.8828 69.6097 22.7338 69.2648C22.5848 68.9199 22.5783 68.5301 22.7159 68.1804C22.8534 67.8308 23.1238 67.5499 23.4679 67.399C23.812 67.2481 24.2018 67.2395 24.5522 67.3752C28.1267 68.7842 30.9479 71.3763 32.1073 76.0834C32.1976 76.4496 32.1387 76.8366 31.9436 77.1593C31.7486 77.4821 31.4333 77.7141 31.0671 77.8044C30.701 77.8947 30.314 77.8358 29.9912 77.6407C29.6685 77.4457 29.4365 77.1304 29.3462 76.7642H29.3478Z" fill="black"/>
<path fill-rule="evenodd" clip-rule="evenodd" d="M84.88 22.3405C83.9638 18.6206 81.8503 16.7046 79.045 15.5989C78.8703 15.5312 78.7107 15.4297 78.5754 15.3002C78.44 15.1707 78.3316 15.0157 78.2564 14.8441C78.1812 14.6725 78.1406 14.4878 78.137 14.3005C78.1334 14.1132 78.1668 13.927 78.2354 13.7527C78.304 13.5784 78.4064 13.4193 78.5366 13.2847C78.6669 13.1501 78.8225 13.0425 78.9944 12.9682C79.1664 12.8939 79.3514 12.8543 79.5387 12.8517C79.726 12.8491 79.912 12.8836 80.0859 12.9531C83.6605 14.3605 86.4817 16.9542 87.6411 21.6613C87.6857 21.8426 87.6941 22.0309 87.6659 22.2155C87.6378 22.4 87.5735 22.5772 87.4768 22.737C87.3802 22.8967 87.253 23.0358 87.1026 23.1464C86.9521 23.257 86.7814 23.3369 86.6001 23.3815C86.4188 23.4261 86.2305 23.4345 86.0459 23.4063C85.8614 23.3782 85.6842 23.3139 85.5244 23.2173C85.3647 23.1206 85.2256 22.9934 85.115 22.843C85.0044 22.6926 84.9246 22.5218 84.88 22.3405Z" fill="black"/>
</svg>
