<svg width="101" height="100" viewBox="0 0 101 100" fill="none" xmlns="http://www.w3.org/2000/svg">
<path fill-rule="evenodd" clip-rule="evenodd" d="M38.1449 78.6869C37.9702 78.6145 37.8116 78.508 37.6786 78.3735C37.5456 78.2391 37.4407 78.0794 37.3702 77.9039C37.2996 77.7284 37.2648 77.5406 37.2678 77.3515C37.2707 77.1624 37.3113 76.9757 37.3873 76.8025C37.4633 76.6293 37.5731 76.473 37.7103 76.3427C37.8475 76.2125 38.0092 76.1109 38.1862 76.044C38.3631 75.9771 38.5515 75.9461 38.7405 75.953C38.9296 75.9598 39.1153 76.0043 39.287 76.0838C51.6077 81.4844 66.4557 77.7724 74.638 66.4341C78.7477 60.7592 80.6679 53.7901 80.0449 46.811C80.0148 46.4371 80.1337 46.0664 80.3758 45.7798C80.6178 45.4931 80.9634 45.3138 81.3371 45.2809C81.7108 45.2479 82.0824 45.3641 82.3708 45.604C82.6593 45.8438 82.8413 46.188 82.877 46.5615C83.5603 54.2214 81.4528 61.8702 76.9425 68.099C67.9532 80.5461 51.6598 84.6151 38.1449 78.6869Z" fill="black"/>
<path fill-rule="evenodd" clip-rule="evenodd" d="M30.2356 73.7372C25.9056 70.0627 22.6377 65.2966 20.7708 59.9333C20.7093 59.757 20.6831 59.5703 20.6937 59.3838C20.7044 59.1974 20.7517 59.0149 20.8329 58.8467C20.914 58.6786 21.0275 58.528 21.1669 58.4037C21.3063 58.2794 21.4687 58.1838 21.6451 58.1223C21.8214 58.0608 22.0081 58.0346 22.1945 58.0453C22.3809 58.0559 22.5635 58.1032 22.7316 58.1844C22.8998 58.2656 23.0503 58.3791 23.1746 58.5185C23.2989 58.6578 23.3946 58.8203 23.4561 58.9966C25.157 63.8821 28.1342 68.2234 32.079 71.5701C32.3663 71.8143 32.545 72.1627 32.5755 72.5386C32.606 72.9145 32.4859 73.2872 32.2417 73.5745C31.9974 73.8619 31.649 74.0405 31.2731 74.071C30.8972 74.1015 30.5246 73.9815 30.2372 73.7372H30.2356Z" fill="black"/>
<path fill-rule="evenodd" clip-rule="evenodd" d="M24.1957 34.5098C24.0367 34.4119 23.8985 34.2836 23.789 34.1322C23.6796 33.9808 23.6011 33.8093 23.5579 33.6275C23.5148 33.4458 23.5079 33.2573 23.5377 33.0729C23.5674 32.8885 23.6333 32.7117 23.7314 32.5527C24.1389 31.8935 24.5722 31.2454 25.0313 30.6083C34.2403 17.8579 51.1133 13.8979 64.8146 20.4721C64.9829 20.5529 65.1337 20.6661 65.2583 20.8051C65.3829 20.9442 65.4789 21.1064 65.5408 21.2826C65.6027 21.4588 65.6293 21.6454 65.6191 21.8318C65.6089 22.0183 65.562 22.2009 65.4812 22.3692C65.4004 22.5375 65.2873 22.6883 65.1482 22.8129C65.0091 22.9375 64.8469 23.0335 64.6707 23.0954C64.4946 23.1573 64.3079 23.1839 64.1215 23.1737C63.9351 23.1634 63.7525 23.1166 63.5842 23.0358C51.1055 17.046 35.7251 20.6569 27.3375 32.2732C26.9163 32.8544 26.5209 33.4452 26.1513 34.0454C25.9535 34.3663 25.6363 34.5954 25.2696 34.6825C24.9029 34.7696 24.5167 34.7075 24.1957 34.5098Z" fill="black"/>
<path fill-rule="evenodd" clip-rule="evenodd" d="M67.6011 45.1797C64.7754 43.1396 62.6181 40.3074 61.4022 37.0413C60.1862 33.7751 59.9661 30.2217 60.7698 26.8305C61.5735 23.4393 63.3648 20.3625 65.9172 17.9894C68.4695 15.6163 71.6683 14.0534 75.109 13.4983C78.5497 12.9433 82.0777 13.4211 85.2468 14.8712C88.416 16.3214 91.0839 18.6788 92.9131 21.6453C94.7424 24.6118 95.6508 28.0541 95.5236 31.537C95.3963 35.0198 94.2391 38.3867 92.1983 41.2118C89.4612 44.9978 85.333 47.5424 80.7209 48.2864C76.1087 49.0304 71.3898 47.913 67.6011 45.1797ZM89.8968 39.5469C91.6079 37.1776 92.578 34.354 92.6844 31.4334C92.7908 28.5127 92.0288 25.626 90.4946 23.1385C88.9604 20.6509 86.723 18.6741 84.0654 17.4582C81.4077 16.2422 78.4492 15.8416 75.5639 16.307C72.6785 16.7725 69.9961 18.0831 67.8556 20.0731C65.7152 22.0631 64.2129 24.6432 63.5388 27.487C62.8646 30.3308 63.0489 33.3106 64.0684 36.0497C65.0878 38.7888 66.8966 41.164 69.2659 42.8751C72.4437 45.1679 76.4017 46.1052 80.2702 45.4812C84.1388 44.8571 87.6012 42.7227 89.8968 39.5469Z" fill="black"/>
<path fill-rule="evenodd" clip-rule="evenodd" d="M10.1823 58.0251C7.74726 56.2667 5.8883 53.8256 4.84057 51.0107C3.79284 48.1958 3.60342 45.1334 4.2962 42.2108C4.98898 39.2881 6.53287 36.6366 8.73264 34.5915C10.9324 32.5463 13.6893 31.1994 16.6545 30.7211C19.6198 30.2428 22.6603 30.6546 25.3915 31.9044C28.1228 33.1541 30.4221 35.1857 31.9987 37.7423C33.5752 40.2988 34.3583 43.2655 34.2488 46.2671C34.1393 49.2687 33.1421 52.1704 31.3834 54.6053C29.0243 57.8686 25.4661 60.0619 21.4907 60.7031C17.5153 61.3444 13.4479 60.3811 10.1823 58.0251ZM29.0788 52.9404C30.5084 50.9615 31.319 48.6031 31.4082 46.1635C31.4974 43.7238 30.8611 41.3126 29.5798 39.2346C28.2985 37.1566 26.4298 35.5052 24.21 34.4893C21.9901 33.4734 19.5189 33.1386 17.1088 33.5272C14.6986 33.9158 12.4579 35.0104 10.6699 36.6725C8.88188 38.3347 7.6269 40.4897 7.0637 42.8651C6.5005 45.2405 6.65438 47.7296 7.50584 50.0176C8.3573 52.3055 9.86811 54.2896 11.8472 55.7189C14.5012 57.634 17.807 58.4171 21.0381 57.8961C24.2692 57.3751 27.1613 55.5927 29.0788 52.9404Z" fill="black"/>
<path fill-rule="evenodd" clip-rule="evenodd" d="M34.8248 62.4669C34.0065 60.7609 33.9765 58.5937 35.0728 56.8925C35.0983 56.8519 35.1263 56.8129 35.1565 56.7756L44.9388 44.5118V34.9174L43.8157 34.1071C43.6332 33.9753 43.4847 33.802 43.3822 33.6015C43.2798 33.4011 43.2264 33.1791 43.2265 32.954V29.3083C43.2265 28.9313 43.3763 28.5697 43.6429 28.3031C43.9095 28.0365 44.2711 27.8867 44.6482 27.8867H49.9903C50.3673 27.8867 50.729 28.0365 50.9956 28.3031C51.2622 28.5697 51.4119 28.9313 51.4119 29.3083C51.4119 29.6854 51.2622 30.047 50.9956 30.3136C50.729 30.5802 50.3673 30.73 49.9903 30.73H46.0745V32.229L47.1976 33.0393C47.3801 33.1711 47.5287 33.3444 47.6311 33.5449C47.7336 33.7453 47.7869 33.9673 47.7868 34.1924V45.0094C47.7851 45.332 47.6737 45.6445 47.4709 45.8955L37.4421 58.4674L37.3 58.7296C37.1349 59.1297 37.0572 59.5605 37.0722 59.9932C37.0872 60.4258 37.1945 60.8502 37.3868 61.238C37.5941 61.7053 37.9348 62.1009 38.3662 62.3752C38.7976 62.6495 39.3004 62.7902 39.8115 62.7796H49.7629C50.1399 62.7796 50.5015 62.9294 50.7681 63.196C51.0347 63.4626 51.1845 63.8242 51.1845 64.2012C51.1845 64.5783 51.0347 64.9399 50.7681 65.2065C50.5015 65.4731 50.1399 65.6229 49.7629 65.6229H39.8115C38.7645 65.6335 37.7367 65.3413 36.852 64.7814C35.9673 64.2214 35.2633 63.4177 34.8248 62.4669Z" fill="black"/>
<path fill-rule="evenodd" clip-rule="evenodd" d="M49.352 64.2012C49.352 63.8242 49.5018 63.4626 49.7684 63.196C50.035 62.9294 50.3966 62.7796 50.7736 62.7796H60.7344C61.2455 62.7902 61.7484 62.6495 62.1797 62.3752C62.6111 62.1009 62.9518 61.7053 63.1591 61.238C63.3511 60.8501 63.4581 60.4257 63.4731 59.9931C63.4881 59.5606 63.4106 59.1298 63.246 58.7296L63.1038 58.4674L53.0751 45.8939C52.8722 45.643 52.7608 45.3305 52.7591 45.0078V34.1908C52.7592 33.9656 52.8128 33.7435 52.9155 33.5431C53.0182 33.3426 53.1671 33.1694 53.3499 33.0377L54.473 32.2274V30.73H50.5525C50.1754 30.73 49.8138 30.5802 49.5472 30.3136C49.2806 30.047 49.1309 29.6854 49.1309 29.3083C49.1309 28.9313 49.2806 28.5697 49.5472 28.3031C49.8138 28.0365 50.1754 27.8867 50.5525 27.8867H55.8946C56.2716 27.8867 56.6332 28.0365 56.8998 28.3031C57.1664 28.5697 57.3162 28.9313 57.3162 29.3083V32.9556C57.3161 33.1808 57.2625 33.4029 57.1598 33.6033C57.0571 33.8038 56.9082 33.977 56.7255 34.1087L55.6024 34.919V44.5134L65.3863 56.7772C65.4165 56.8145 65.4445 56.8535 65.47 56.8941C66.5662 58.5953 66.5362 60.7625 65.718 62.4684C64.8761 64.2234 63.1354 65.6276 60.7297 65.6276H50.7689C50.5822 65.627 50.3974 65.5896 50.2252 65.5176C50.0529 65.4456 49.8966 65.3403 49.765 65.2079C49.6334 65.0754 49.5293 64.9184 49.4584 64.7456C49.3875 64.5729 49.3514 64.3879 49.352 64.2012Z" fill="black"/>
<path fill-rule="evenodd" clip-rule="evenodd" d="M49.1606 55.5151C46.4121 54.7506 44.207 53.6623 41.6276 53.7618C41.2505 53.7763 40.8832 53.6403 40.6064 53.3839C40.3295 53.1276 40.1659 52.7717 40.1514 52.3947C40.137 52.0176 40.2729 51.6503 40.5293 51.3735C40.7857 51.0966 41.1415 50.933 41.5186 50.9186C44.6983 50.7969 47.2146 52.0243 49.9235 52.7746C52.3814 53.4585 55.0335 53.765 58.7786 52.1427C59.1232 52.0013 59.5096 52.0007 59.8546 52.1412C60.1996 52.2817 60.4757 52.5519 60.6235 52.8939C60.7712 53.2358 60.7789 53.6221 60.6448 53.9696C60.5107 54.3171 60.2456 54.5981 59.9065 54.7522C55.4299 56.6935 52.0891 56.3318 49.1606 55.5151Z" fill="black"/>
<path fill-rule="evenodd" clip-rule="evenodd" d="M66.4265 89.922C64.5427 88.5631 62.9963 86.7895 61.9066 84.7382C60.8168 82.6869 60.2129 80.4127 60.1414 78.091C60.1292 77.714 60.2673 77.3475 60.5253 77.0723C60.7834 76.7971 61.1401 76.6357 61.5172 76.6236C61.8942 76.6114 62.2606 76.7495 62.5358 77.0076C62.811 77.2656 62.9725 77.6223 62.9846 77.9994C63.0584 80.3207 63.7858 82.5742 65.0832 84.5005C66.3806 86.4269 68.1953 87.948 70.3187 88.889C72.442 89.8299 74.7879 90.1525 77.0864 89.8197C79.385 89.4869 81.543 88.5121 83.3122 87.0075C85.0815 85.5028 86.3901 83.5294 87.0878 81.3142C87.7855 79.0989 87.8438 76.7317 87.2561 74.4848C86.6684 72.2379 85.4584 70.2024 83.7654 68.6125C82.0725 67.0225 79.9651 65.9426 77.6858 65.497C77.3156 65.425 76.9893 65.2088 76.7785 64.8962C76.5677 64.5835 76.4898 64.1999 76.5619 63.8298C76.6339 63.4596 76.8501 63.1333 77.1627 62.9225C77.4754 62.7118 77.859 62.6338 78.2291 62.7059C80.458 63.1411 82.561 64.0708 84.383 65.4263C86.2051 66.7819 87.7 68.5288 88.7576 70.5386C89.8151 72.5483 90.4085 74.7697 90.4939 77.0391C90.5794 79.3085 90.1548 81.5682 89.2513 83.6517C88.3479 85.7353 86.9886 87.5897 85.2736 89.0784C83.5586 90.5672 81.5316 91.6523 79.3417 92.2539C77.1518 92.8556 74.8549 92.9584 72.62 92.5548C70.3851 92.1513 68.2692 91.2516 66.4281 89.922H66.4265Z" fill="black"/>
<path fill-rule="evenodd" clip-rule="evenodd" d="M53.9716 19.6007C53.52 18.1337 53.3752 16.5896 53.5462 15.0642C53.7171 13.5389 54.2002 12.0651 54.9653 10.7346C55.7304 9.40398 56.7611 8.24511 57.9934 7.33006C59.2257 6.41502 60.6331 5.76339 62.128 5.41572C63.623 5.06805 65.1735 5.03179 66.6831 5.3092C68.1927 5.5866 69.629 6.17173 70.9027 7.02817C72.1764 7.88461 73.2602 8.99403 74.0867 10.2874C74.9131 11.5807 75.4646 13.0304 75.7066 14.546C75.7419 14.7329 75.7393 14.9249 75.699 15.1108C75.6587 15.2966 75.5815 15.4725 75.472 15.628C75.3626 15.7835 75.223 15.9155 75.0616 16.0161C74.9002 16.1167 74.7203 16.1839 74.5325 16.2137C74.3446 16.2435 74.1527 16.2353 73.9681 16.1896C73.7835 16.1439 73.61 16.0617 73.4577 15.9477C73.3055 15.8337 73.1777 15.6904 73.0818 15.5261C72.986 15.3619 72.924 15.1801 72.8997 14.9914C72.721 13.8593 72.311 12.7761 71.6952 11.8094C71.0794 10.8427 70.271 10.0133 69.3205 9.37285C68.37 8.73239 67.2977 8.29465 66.1705 8.08692C65.0433 7.87919 63.8854 7.90593 62.769 8.16547C61.6526 8.42502 60.6017 8.9118 59.6818 9.59546C58.7618 10.2791 57.9926 11.145 57.4221 12.1391C56.8515 13.1331 56.492 14.2341 56.3658 15.3733C56.2395 16.5125 56.3494 17.6655 56.6885 18.7603C56.7893 19.1177 56.7464 19.5003 56.5688 19.8264C56.3912 20.1525 56.0931 20.3961 55.7382 20.5053C55.3833 20.6144 54.9998 20.5804 54.6697 20.4105C54.3395 20.2405 54.089 19.9482 53.9716 19.5959V19.6007Z" fill="black"/>
<path fill-rule="evenodd" clip-rule="evenodd" d="M86.6689 29.6887C86.1066 25.8077 84.1416 23.6437 81.3963 22.2379C81.0798 22.0558 80.8455 21.7589 80.742 21.4088C80.6384 21.0587 80.6736 20.6821 80.8401 20.3572C81.0066 20.0323 81.2918 19.7839 81.6365 19.6635C81.9812 19.5431 82.359 19.5599 82.6916 19.7105C86.1666 21.4907 88.7745 24.3972 89.4838 29.2828C89.538 29.6561 89.4417 30.0356 89.2162 30.3379C88.9906 30.6402 88.6542 30.8405 88.2809 30.8948C87.9076 30.949 87.5281 30.8528 87.2258 30.6272C86.9235 30.4016 86.7232 30.0652 86.6689 29.6919V29.6887Z" fill="black"/>
<path fill-rule="evenodd" clip-rule="evenodd" d="M81.7867 77.12C81.3634 74.2088 79.9038 72.6039 77.8377 71.5504C77.5212 71.3683 77.2869 71.0714 77.1834 70.7213C77.0798 70.3712 77.115 69.9946 77.2815 69.6697C77.448 69.3448 77.7332 69.0964 78.0779 68.976C78.4226 68.8556 78.8004 68.8724 79.133 69.023C81.9257 70.4526 84.0297 72.7998 84.592 76.7172C84.6231 76.9038 84.6167 77.0948 84.573 77.279C84.5293 77.4631 84.4493 77.6367 84.3377 77.7895C84.2261 77.9423 84.0851 78.0713 83.9229 78.1689C83.7608 78.2665 83.5809 78.3308 83.3936 78.3579C83.2063 78.385 83.0154 78.3745 82.8323 78.3269C82.6491 78.2793 82.4773 78.1956 82.3269 78.0808C82.1765 77.9659 82.0505 77.8222 81.9564 77.658C81.8623 77.4938 81.8019 77.3125 81.7788 77.1247L81.7867 77.12Z" fill="black"/>
<path fill-rule="evenodd" clip-rule="evenodd" d="M24.9214 45.4891C24.4981 42.5779 23.0386 40.9731 20.9725 39.9195C20.656 39.7374 20.4217 39.4406 20.3181 39.0905C20.2146 38.7403 20.2497 38.3638 20.4162 38.0389C20.5828 37.7139 20.8679 37.4655 21.2126 37.3451C21.5573 37.2247 21.9351 37.2416 22.2677 37.3922C25.0604 38.8217 27.1644 41.169 27.7268 45.0863C27.7579 45.273 27.7514 45.464 27.7078 45.6481C27.6641 45.8323 27.5841 46.0058 27.4725 46.1586C27.3609 46.3115 27.2198 46.4404 27.0577 46.538C26.8956 46.6356 26.7156 46.6999 26.5283 46.727C26.341 46.7542 26.1502 46.7436 25.967 46.696C25.7839 46.6485 25.612 46.5648 25.4616 46.4499C25.3112 46.3351 25.1853 46.1913 25.0912 46.0272C24.997 45.863 24.9367 45.6817 24.9135 45.4938L24.9214 45.4891Z" fill="black"/>
</svg>
