<svg width="101" height="100" viewBox="0 0 101 100" fill="none" xmlns="http://www.w3.org/2000/svg">
<path fill-rule="evenodd" clip-rule="evenodd" d="M30.6084 74.0512C26.4899 71.0857 23.1504 67.1673 20.875 62.6308C20.7915 62.4638 20.7416 62.282 20.7282 62.0958C20.7149 61.9095 20.7384 61.7224 20.7974 61.5453C20.8563 61.3681 20.9496 61.2042 21.0719 61.0631C21.1942 60.922 21.3431 60.8063 21.51 60.7227C21.677 60.6391 21.8589 60.5892 22.0451 60.5759C22.2314 60.5626 22.4184 60.586 22.5956 60.645C22.7728 60.704 22.9366 60.7973 23.0778 60.9195C23.2189 61.0418 23.3346 61.1907 23.4182 61.3577C25.1522 64.8062 27.563 67.8702 30.5066 70.367C33.4503 72.8637 36.8666 74.7421 40.5519 75.8902C44.2371 77.0382 48.1158 77.4324 51.9567 77.0491C55.7976 76.6658 59.5219 75.513 62.9077 73.6594C63.0716 73.5678 63.252 73.5096 63.4385 73.4881C63.6251 73.4666 63.814 73.4823 63.9944 73.5342C64.1749 73.5861 64.3433 73.6733 64.4898 73.7907C64.6364 73.908 64.7583 74.0533 64.8484 74.218C64.9385 74.3827 64.9951 74.5636 65.015 74.7504C65.0348 74.9371 65.0174 75.1259 64.9638 75.3058C64.9103 75.4858 64.8216 75.6534 64.7029 75.7989C64.5843 75.9444 64.4379 76.065 64.2724 76.1536C59.0358 79.0196 53.0943 80.3432 47.1364 79.9711C41.1784 79.599 35.4478 77.5464 30.6084 74.0512Z" fill="black"/>
<path fill-rule="evenodd" clip-rule="evenodd" d="M17.8293 52.8249C17.475 50.2925 17.4283 47.7265 17.6903 45.1829C17.705 44.9938 17.7573 44.8095 17.8443 44.6409C17.9312 44.4723 18.0511 44.3229 18.1967 44.2013C18.3423 44.0798 18.5108 43.9886 18.6923 43.9331C18.8737 43.8777 19.0643 43.8592 19.253 43.8785C19.4417 43.8979 19.6247 43.9549 19.791 44.0461C19.9573 44.1373 20.1038 44.2608 20.2216 44.4095C20.3395 44.5581 20.4264 44.7288 20.4772 44.9116C20.5281 45.0943 20.5419 45.2854 20.5177 45.4736C20.281 47.787 20.324 50.1205 20.6457 52.4237C20.6716 52.6086 20.6609 52.7968 20.6141 52.9776C20.5672 53.1584 20.4853 53.3282 20.3729 53.4773C20.2604 53.6264 20.1197 53.7519 19.9588 53.8466C19.7979 53.9413 19.6199 54.0034 19.4349 54.0294C19.25 54.0553 19.0618 54.0445 18.881 53.9977C18.7003 53.9509 18.5305 53.8689 18.3814 53.7565C18.2323 53.6441 18.1068 53.5034 18.0121 53.3424C17.9173 53.1815 17.8552 53.0035 17.8293 52.8186V52.8249Z" fill="black"/>
<path fill-rule="evenodd" clip-rule="evenodd" d="M77.6833 45.6889C77.2083 40.7727 75.4739 36.0619 72.6475 32.0114C69.8211 27.9609 65.9981 24.7075 61.5478 22.5653C57.0974 20.4231 52.1699 19.4644 47.2409 19.7817C42.312 20.0991 37.5482 21.6819 33.4093 24.3772C33.0932 24.5768 32.7113 24.6439 32.3461 24.564C31.981 24.484 31.662 24.2635 31.4582 23.9501C31.2545 23.6367 31.1824 23.2557 31.2575 22.8895C31.3327 22.5233 31.549 22.2015 31.8597 21.9936C42.4776 15.0861 56.6939 14.9992 67.5787 22.8592C71.2154 25.4817 74.2504 28.8501 76.4811 32.7394C78.7117 36.6287 80.0866 40.9493 80.5139 45.4125C80.5504 45.7878 80.4362 46.1623 80.1966 46.4535C79.9569 46.7447 79.6114 46.9287 79.236 46.9652C78.8607 47.0016 78.4862 46.8875 78.195 46.6478C77.9038 46.4082 77.7198 46.0627 77.6833 45.6873V45.6889Z" fill="black"/>
<path fill-rule="evenodd" clip-rule="evenodd" d="M68.2836 83.1337C65.5383 81.1517 63.4222 78.4205 62.1888 75.2671C60.9554 72.1137 60.657 68.6716 61.3291 65.353C62.0012 62.0343 63.6155 58.9796 65.9787 56.5546C68.3419 54.1297 71.3539 52.4371 74.6541 51.6795C74.8384 51.6311 75.0306 51.6202 75.2193 51.6475C75.4079 51.6748 75.5891 51.7398 75.7522 51.8386C75.9152 51.9374 76.0567 52.0679 76.1682 52.2225C76.2798 52.3771 76.3591 52.5525 76.4015 52.7383C76.4438 52.9242 76.4484 53.1167 76.4149 53.3043C76.3814 53.492 76.3105 53.6709 76.2064 53.8306C76.1024 53.9903 75.9672 54.1275 75.8091 54.2339C75.651 54.3403 75.473 54.4138 75.2859 54.4501C72.0828 55.1877 69.2171 56.9724 67.1424 59.5217C65.0677 62.0711 63.9023 65.2395 63.8308 68.5257C63.7593 71.8118 64.7857 75.028 66.7476 77.6652C68.7094 80.3024 71.4947 82.21 74.6627 83.0863C77.8307 83.9625 81.2004 83.7573 84.2386 82.5031C87.2768 81.2488 89.81 79.0172 91.4373 76.1614C93.0646 73.3056 93.6931 69.9887 93.2233 66.7355C92.7535 63.4823 91.2122 60.4787 88.8434 58.2C88.5711 57.9388 88.4137 57.5801 88.4059 57.2029C88.398 56.8256 88.5404 56.4607 88.8016 56.1884C89.0628 55.9161 89.4214 55.7587 89.7987 55.7509C90.1759 55.743 90.5408 55.8853 90.8132 56.1465C94.0257 59.2383 95.9468 63.4329 96.1893 67.8849C96.4318 72.337 94.9777 76.7154 92.12 80.1379C89.2623 83.5603 85.2135 85.7722 80.7897 86.3278C76.3658 86.8835 71.8957 85.7415 68.2805 83.1321L68.2836 83.1337Z" fill="black"/>
<path fill-rule="evenodd" clip-rule="evenodd" d="M12.9109 43.9764C10.4763 42.218 8.6179 39.7771 7.57055 36.9625C6.5232 34.148 6.33397 31.086 7.0268 28.1639C7.71963 25.2417 9.26339 22.5906 11.4629 20.5459C13.6624 18.5011 16.4188 17.1544 19.3836 16.6762C22.3485 16.198 25.3885 16.6096 28.1194 17.8591C30.8503 19.1086 33.1493 21.1398 34.7258 23.6959C36.3023 26.252 37.0854 29.2182 36.9761 32.2194C36.8669 35.2205 35.8701 38.1219 34.112 40.5566C31.7531 43.8203 28.1948 46.0138 24.2193 46.6551C20.2438 47.2963 16.1763 46.3328 12.9109 43.9764ZM31.8074 38.8933C33.2369 36.9144 34.0475 34.556 34.1367 32.1164C34.2259 29.6767 33.5896 27.2654 32.3083 25.1875C31.027 23.1095 29.1583 21.4581 26.9385 20.4422C24.7187 19.4263 22.2474 19.0915 19.8373 19.4801C17.4272 19.8687 15.1864 20.9633 13.3984 22.6254C11.6104 24.2876 10.3554 26.4426 9.79224 28.818C9.22904 31.1934 9.38289 33.6825 10.2344 35.9704C11.0858 38.2584 12.5966 40.2425 14.5757 41.6717C17.2299 43.5865 20.5355 44.3693 23.7665 43.8484C26.9975 43.3274 29.8896 41.5452 31.8074 38.8933Z" fill="black"/>
<path fill-rule="evenodd" clip-rule="evenodd" d="M65.6577 92.3546C63.6611 90.9115 62.3193 88.7346 61.9271 86.3025C61.535 83.8704 62.1246 81.3821 63.5664 79.3846C63.7621 79.1098 63.9731 78.8461 64.1982 78.5948C64.4519 78.3196 64.8038 78.1556 65.1777 78.1382C65.5516 78.1209 65.9172 78.2517 66.1952 78.5023C66.4733 78.7529 66.6412 79.103 66.6627 79.4767C66.6842 79.8503 66.5575 80.2174 66.3101 80.4982C66.153 80.6729 66.0053 80.8558 65.8678 81.0463C65.285 81.8536 64.8972 82.7849 64.7346 83.7672C64.5721 84.7496 64.6394 85.7562 64.9311 86.7082C65.2228 87.6601 65.7311 88.5316 66.4161 89.2542C67.101 89.9768 67.9441 90.5309 68.8791 90.8731C69.8141 91.2153 70.8157 91.3362 71.8053 91.2264C72.7949 91.1166 73.7456 90.7791 74.5829 90.2402C75.4202 89.7014 76.1213 88.976 76.6312 88.1208C77.1411 87.2656 77.446 86.304 77.5219 85.3112C77.55 84.9342 77.7267 84.5837 78.0132 84.337C78.2996 84.0902 78.6724 83.9673 79.0494 83.9954C79.4264 84.0235 79.7769 84.2002 80.0236 84.4866C80.2704 84.7731 80.3932 85.1458 80.3652 85.5229C80.2412 87.17 79.6803 88.7543 78.7402 90.1125C77.8002 91.4707 76.515 92.5536 75.0171 93.2498C73.5192 93.946 71.8627 94.2302 70.2184 94.0731C68.5741 93.916 67.0015 93.3233 65.6625 92.3561L65.6577 92.3546Z" fill="black"/>
<path fill-rule="evenodd" clip-rule="evenodd" d="M16.8932 91.2204C15.4038 90.1447 14.2668 88.6514 13.6261 86.9294C12.9854 85.2075 12.8697 83.3342 13.2936 81.5465C13.7176 79.7588 14.6621 78.1369 16.0077 76.886C17.3534 75.6351 19.0398 74.8113 20.8537 74.5189C22.6675 74.2264 24.5274 74.4783 26.198 75.2429C27.8687 76.0074 29.2751 77.2502 30.2395 78.814C31.2038 80.3779 31.6828 82.1926 31.6158 84.0286C31.5488 85.8647 30.9389 87.6397 29.8631 89.1291C28.42 91.1256 26.2431 92.4675 23.8111 92.8597C21.379 93.2518 18.8907 92.6622 16.8932 91.2204ZM27.5585 87.4642C28.3045 86.4305 28.7273 85.1989 28.7735 83.925C28.8196 82.6511 28.487 81.3921 27.8178 80.3072C27.1485 79.2223 26.1726 78.3602 25.0134 77.8298C23.8542 77.2994 22.5638 77.1247 21.3053 77.3276C20.0469 77.5305 18.8768 78.102 17.943 78.9698C17.0093 79.8376 16.3538 80.9627 16.0594 82.203C15.765 83.4433 15.845 84.743 16.2892 85.9379C16.7333 87.1327 17.5218 88.169 18.5549 88.9158C19.942 89.9169 21.67 90.3259 23.3587 90.0531C25.0475 89.7803 26.5587 88.8479 27.5601 87.461L27.5585 87.4642Z" fill="black"/>
<path fill-rule="evenodd" clip-rule="evenodd" d="M41.6585 72.7778C35.3797 69.6281 28.5164 64.8025 28.3348 58.7195C28.3255 58.4415 28.398 58.1669 28.5433 57.9297L31.2396 53.5417C31.3345 53.377 31.4615 53.2331 31.613 53.1183C31.7645 53.0036 31.9375 52.9204 32.1217 52.8737C32.3059 52.827 32.4976 52.8177 32.6855 52.8463C32.8734 52.875 33.0536 52.941 33.2155 53.0405C33.3774 53.14 33.5177 53.2709 33.6282 53.4256C33.7386 53.5803 33.8169 53.7555 33.8585 53.9409C33.9 54.1264 33.9039 54.3183 33.87 54.5053C33.8361 54.6923 33.7651 54.8706 33.6611 55.0296L31.2159 59.0117L31.257 59.413C31.8888 63.0602 36.1647 66.6459 41.7233 69.6123L41.8102 69.6565L43.9094 66.4516C44.0117 66.2954 44.1437 66.1609 44.298 66.0557C44.4522 65.9505 44.6257 65.8767 44.8084 65.8386C44.9912 65.8005 45.1797 65.7987 45.3631 65.8334C45.5466 65.8681 45.7214 65.9386 45.8776 66.0409C46.0338 66.1431 46.1683 66.2752 46.2735 66.4294C46.3786 66.5837 46.4524 66.7571 46.4905 66.9399C46.5287 67.1227 46.5304 67.3111 46.4957 67.4946C46.461 67.678 46.3905 67.8528 46.2883 68.009L43.4861 72.2881C43.2946 72.5798 43.0026 72.7908 42.6656 72.8811C42.3286 72.9714 41.9702 72.9346 41.6585 72.7778Z" fill="black"/>
<path fill-rule="evenodd" clip-rule="evenodd" d="M44.7697 68.0516C38.4908 64.902 31.6276 60.0763 31.4459 53.9934C31.4348 53.6163 31.574 53.2503 31.8327 52.9759C32.0915 52.7014 32.4487 52.541 32.8257 52.5299C33.2027 52.5188 33.5687 52.6579 33.8432 52.9167C34.1176 53.1754 34.2781 53.5326 34.2892 53.9097C34.414 58.0845 39.5018 62.2309 46.046 65.5164C46.383 65.6855 46.6391 65.9815 46.7579 66.3393C46.8767 66.6971 46.8484 67.0875 46.6794 67.4245C46.5103 67.7616 46.2143 68.0176 45.8565 68.1364C45.4987 68.2552 45.1083 68.227 44.7713 68.058L44.7697 68.0516Z" fill="black"/>
<path fill-rule="evenodd" clip-rule="evenodd" d="M42.7231 62.8646C39.6935 61.443 36.8581 60.1256 34.4935 59.5854C34.1259 59.5016 33.8066 59.2752 33.6059 58.956C33.4052 58.6368 33.3396 58.251 33.4233 57.8834C33.5071 57.5158 33.7335 57.1965 34.0527 56.9958C34.3719 56.7951 34.7577 56.7295 35.1253 56.8132C37.8533 57.4356 40.9887 58.9062 43.9346 60.2883C47.6688 62.0448 52.507 62.7382 53.9729 60.7511L54.9206 59.3579L54.3378 59.3832C51.4677 59.3832 48.3654 58.3628 46.413 57.4435C43.4671 56.0582 40.7028 54.7756 38.3714 54.2085C37.2151 53.9273 36.2737 53.8531 35.5376 53.9716C34.9051 54.0481 34.3281 54.3704 33.9312 54.8688C33.8161 55.0183 33.6725 55.1435 33.5085 55.2369C33.3446 55.3304 33.1638 55.3902 32.9765 55.4131C32.7892 55.4359 32.5992 55.4212 32.4176 55.3699C32.2361 55.3186 32.0666 55.2316 31.919 55.1141C31.7714 54.9966 31.6486 54.8508 31.5579 54.6854C31.4672 54.5199 31.4103 54.3381 31.3906 54.1505C31.3709 53.9628 31.3887 53.7731 31.4431 53.5924C31.4974 53.4118 31.5872 53.2437 31.7071 53.0981C32.5431 52.046 33.7506 51.3546 35.0811 51.1662C36.3448 50.9609 37.6985 51.1188 39.0427 51.4458C41.7106 52.0934 44.7545 53.5214 47.623 54.8704C51.3571 56.6284 56.1953 57.3203 57.677 55.3126C58.7827 53.8168 61.0431 55.42 59.9958 56.957L56.2917 62.397C53.3016 66.4534 46.195 64.4995 42.7231 62.8646Z" fill="black"/>
<path fill-rule="evenodd" clip-rule="evenodd" d="M54.5295 58.2988C52.9073 56.3544 49.7671 54.4731 46.2652 52.4196C44.5055 51.3882 42.3399 49.8623 40.754 48.0711C39.2187 46.3335 37.895 43.9641 38.7859 41.3958L41.3764 34.8295C42.0572 33.1014 44.6509 34.0634 44.0411 35.8167C43.2292 38.1545 46.559 41.7907 50.0894 43.8615C52.8236 45.4648 55.7221 47.1691 57.7645 49.003C59.8069 50.8369 61.407 53.1905 60.5477 55.9879C60.4371 56.3484 60.1879 56.6502 59.8548 56.8269C59.5217 57.0036 59.132 57.0407 58.7715 56.9301C58.411 56.8195 58.1092 56.5703 57.9325 56.2371C57.7558 55.904 57.7187 55.5144 57.8293 55.1539C58.1847 53.9992 57.6855 52.7545 55.8643 51.1181C54.0794 49.5148 51.4589 47.9589 48.6519 46.313C46.807 45.2326 44.207 43.2533 42.5784 40.884L42.2515 40.3611L41.4617 42.3814C40.6814 44.6244 43.989 47.7836 47.7121 49.9634C51.0466 51.9189 54.708 54.0703 56.7157 56.4744C56.9508 56.7646 57.0623 57.1357 57.026 57.5074C56.9898 57.8792 56.8086 58.2217 56.5218 58.461C56.235 58.7003 55.8656 58.8171 55.4934 58.7861C55.1212 58.7552 54.7761 58.579 54.5327 58.2957L54.5295 58.2988Z" fill="black"/>
<path fill-rule="evenodd" clip-rule="evenodd" d="M59.3127 46.3602C56.9434 46.0649 54.4555 45.1408 52.6106 44.272C49.1703 42.6546 46.1106 41.2424 43.637 40.8491C43.2646 40.7896 42.931 40.5846 42.7097 40.2792C42.4884 39.9738 42.3975 39.593 42.457 39.2206C42.5165 38.8481 42.7215 38.5146 43.0269 38.2933C43.3323 38.072 43.7132 37.9811 44.0856 38.0406C47.0868 38.5145 50.663 40.2141 53.8205 41.7005C57.7379 43.5439 62.1923 44.4821 63.6139 42.5693L64.8318 40.7701L64.2284 40.7954C61.3583 40.7954 58.256 39.775 56.3036 38.8557C53.3577 37.4704 50.5934 36.1878 48.262 35.6207C45.9037 35.0489 44.5816 35.3253 43.8218 36.2809C43.7067 36.4305 43.5631 36.5556 43.3992 36.6491C43.2353 36.7425 43.0544 36.8024 42.8671 36.8252C42.6798 36.8481 42.4898 36.8334 42.3083 36.7821C42.1267 36.7307 41.9572 36.6438 41.8096 36.5263C41.662 36.4087 41.5392 36.263 41.4485 36.0976C41.3578 35.9321 41.3009 35.7503 41.2812 35.5626C41.2615 35.375 41.2793 35.1853 41.3337 35.0046C41.388 34.8239 41.4778 34.6559 41.5978 34.5102C43.389 32.2578 46.2117 32.1977 48.9333 32.858C51.6012 33.5056 54.6451 34.9336 57.5136 36.2825C61.2493 38.0406 66.086 38.7325 67.5676 36.7248C68.6733 35.2321 70.929 36.8275 69.8896 38.366L65.9406 44.2104C64.3279 46.3887 61.6474 46.6556 59.3127 46.3602Z" fill="black"/>
<path fill-rule="evenodd" clip-rule="evenodd" d="M67.3397 37.5351C67.0238 33.632 62.3403 29.9863 56.2258 27.1273L56.1373 27.0878L54.2087 30.4049C54.1219 30.5784 54.0005 30.7323 53.852 30.8571C53.7036 30.9819 53.5311 31.075 53.3453 31.1307C53.1595 31.1864 52.9643 31.2034 52.7716 31.1808C52.579 31.1582 52.393 31.0965 52.2251 30.9993C52.0572 30.9021 51.911 30.7717 51.7955 30.6159C51.6799 30.4601 51.5974 30.2823 51.5532 30.0934C51.5089 29.9046 51.5037 29.7087 51.538 29.5178C51.5723 29.3269 51.6452 29.145 51.7524 28.9833L54.324 24.5605C54.4994 24.2588 54.7797 24.0321 55.1115 23.9238C55.4433 23.8154 55.8034 23.8329 56.1231 23.9729C62.5599 26.7861 69.6696 31.2389 70.1814 37.3108C70.2126 37.6866 70.0932 38.0594 69.8496 38.3472C69.6059 38.635 69.2579 38.8142 68.8822 38.8454C68.5064 38.8766 68.1336 38.7573 67.8458 38.5136C67.558 38.27 67.3788 37.922 67.3476 37.5462L67.3397 37.5351Z" fill="black"/>
<path fill-rule="evenodd" clip-rule="evenodd" d="M63.6781 39.9044C61.8664 36.6394 57.3203 33.7204 52.1267 31.4505C51.7877 31.2953 51.5233 31.0132 51.3903 30.6649C51.2574 30.3166 51.2666 29.93 51.4159 29.5884C51.5653 29.2468 51.8428 28.9776 52.1888 28.8387C52.5348 28.6998 52.9214 28.7023 53.2655 28.8458C58.4782 31.122 63.8487 34.3538 66.1644 38.5255C66.2574 38.6889 66.3171 38.8691 66.3399 39.0557C66.3628 39.2423 66.3484 39.4316 66.2977 39.6126C66.2469 39.7937 66.1607 39.9628 66.0441 40.1103C65.9275 40.2578 65.7828 40.3807 65.6184 40.4719C65.454 40.5631 65.2731 40.6207 65.0863 40.6416C64.8994 40.6624 64.7103 40.6459 64.5298 40.5931C64.3494 40.5404 64.1812 40.4523 64.035 40.3341C63.8888 40.2159 63.7675 40.0698 63.6781 39.9044Z" fill="black"/>
<path fill-rule="evenodd" clip-rule="evenodd" d="M76.1051 26.6148C74.1903 25.2311 72.7287 23.3107 71.9053 21.0963C71.0819 18.882 70.9335 16.4732 71.4791 14.1746C72.0247 11.876 73.2397 9.79074 74.9704 8.18263C76.7011 6.57452 78.8698 5.51574 81.2022 5.14018C83.5346 4.76462 85.9261 5.08915 88.0741 6.07274C90.2221 7.05632 92.0301 8.65478 93.2697 10.666C94.5092 12.6772 95.1245 15.0108 95.0377 17.3716C94.951 19.7325 94.1661 22.0147 92.7824 23.9295C90.9261 26.496 88.1267 28.2205 84.9996 28.724C81.8724 29.2275 78.6732 28.4689 76.1051 26.6148ZM90.4793 22.2599C91.5324 20.8004 92.129 19.0615 92.1938 17.263C92.2587 15.4644 91.7887 13.6871 90.8435 12.1556C89.8982 10.6241 88.5201 9.40735 86.8833 8.65908C85.2465 7.91082 83.4246 7.6647 81.648 7.95182C79.8713 8.23895 78.2197 9.04643 76.902 10.2722C75.5842 11.4979 74.6595 13.0869 74.2448 14.8381C73.83 16.5894 73.9439 18.4243 74.5719 20.1109C75.2 21.7974 76.314 23.2599 77.7732 24.3133C79.7298 25.7247 82.1665 26.3018 84.5482 25.918C86.93 25.5342 89.062 24.2207 90.4762 22.2662L90.4793 22.2599Z" fill="black"/>
<path fill-rule="evenodd" clip-rule="evenodd" d="M77.5885 60.2751C76.0991 59.1993 74.9622 57.706 74.3214 55.9841C73.6807 54.2622 73.565 52.3889 73.9889 50.6012C74.4129 48.8135 75.3574 47.1916 76.7031 45.9407C78.0487 44.6898 79.7351 43.866 81.549 43.5735C83.3628 43.2811 85.2227 43.533 86.8933 44.2975C88.564 45.0621 89.9704 46.3049 90.9348 47.8687C91.8991 49.4326 92.3781 51.2473 92.3111 53.0833C92.2441 54.9194 91.6342 56.6943 90.5584 58.1838C89.1153 60.1803 86.9385 61.5222 84.5064 61.9143C82.0743 62.3065 79.586 61.7169 77.5885 60.2751ZM88.2538 56.5189C88.9998 55.4852 89.4226 54.2536 89.4688 52.9797C89.5149 51.7058 89.1823 50.4468 88.5131 49.3619C87.8438 48.277 86.8679 47.4148 85.7087 46.8845C84.5495 46.3541 83.2592 46.1794 82.0007 46.3823C80.7422 46.5852 79.5721 47.1566 78.6383 48.0244C77.7046 48.8922 77.0491 50.0174 76.7547 51.2577C76.4603 52.4979 76.5403 53.7977 76.9845 54.9925C77.4287 56.1874 78.2171 57.2237 79.2502 57.9705C80.6367 58.9718 82.3641 59.3813 84.0526 59.1091C85.741 58.8369 87.2522 57.9052 88.2538 56.5189Z" fill="black"/>
<path fill-rule="evenodd" clip-rule="evenodd" d="M10.0633 24.2909C8.73602 23.3323 7.68568 22.0398 7.01868 20.5446C6.35169 19.0493 6.09174 17.4044 6.26514 15.7763C6.43855 14.1483 7.03917 12.595 8.00615 11.2738C8.97313 9.95256 10.2721 8.9104 11.7715 8.25284C13.271 7.59528 14.9175 7.34568 16.5445 7.52934C18.1714 7.713 19.7209 8.32338 21.036 9.29867C22.3511 10.274 23.385 11.5795 24.0331 13.083C24.6812 14.5866 24.9204 16.2347 24.7265 17.8604C24.6823 18.2349 24.4912 18.5766 24.1951 18.8101C23.899 19.0437 23.5223 19.1501 23.1477 19.1059C22.7732 19.0617 22.4316 18.8706 22.198 18.5745C21.9644 18.2784 21.858 17.9016 21.9022 17.5271C22.0375 16.3989 21.872 15.2549 21.4227 14.2111C20.9734 13.1674 20.2562 12.261 19.3437 11.5837C18.4313 10.9065 17.356 10.4824 16.2268 10.3546C15.0977 10.2268 13.9549 10.3997 12.9141 10.8559C11.8733 11.3121 10.9716 12.0352 10.3004 12.9521C9.62915 13.869 9.2122 14.9471 9.0918 16.077C8.97141 17.2069 9.15185 18.3487 9.61483 19.3864C10.0778 20.4242 10.8069 21.3211 11.7282 21.9863C12.0291 22.2088 12.2301 22.5411 12.2876 22.9109C12.3451 23.2808 12.2544 23.6584 12.0353 23.9618C11.8161 24.2652 11.4861 24.4699 11.1169 24.5315C10.7477 24.5931 10.3691 24.5067 10.0633 24.2909Z" fill="black"/>
<path fill-rule="evenodd" clip-rule="evenodd" d="M87.2054 16.7519C86.9353 14.6384 85.9117 13.4774 84.4348 12.6908C84.102 12.5134 83.8533 12.211 83.7434 11.8502C83.6335 11.4894 83.6714 11.0997 83.8488 10.7669C84.0262 10.434 84.3286 10.1853 84.6894 10.0754C85.0502 9.96549 85.4399 10.0034 85.7727 10.1808C87.9842 11.356 89.6269 13.2689 90.0265 16.3917C90.0743 16.7658 89.9715 17.1436 89.7407 17.4419C89.6265 17.5896 89.4842 17.7134 89.3221 17.8061C89.1601 17.8988 88.9813 17.9587 88.796 17.9824C88.4219 18.0301 88.0442 17.9273 87.7459 17.6965C87.4476 17.4658 87.2532 17.126 87.2054 16.7519Z" fill="black"/>
<path fill-rule="evenodd" clip-rule="evenodd" d="M28.0322 30.4913C27.6768 27.7144 26.3152 26.1649 24.3723 25.1302C24.0395 24.9528 23.7908 24.6504 23.6809 24.2896C23.571 23.9288 23.6089 23.5392 23.7863 23.2063C23.9637 22.8735 24.2661 22.6247 24.6269 22.5148C24.9877 22.4049 25.3774 22.4429 25.7102 22.6203C28.3813 24.0419 30.3684 26.3449 30.8518 30.1312C30.8901 30.5004 30.7825 30.8701 30.5519 31.161C30.3214 31.452 29.9861 31.6412 29.6179 31.6883C29.2496 31.7353 28.8776 31.6364 28.5813 31.4128C28.285 31.1891 28.0879 30.8584 28.0322 30.4913Z" fill="black"/>
<path fill-rule="evenodd" clip-rule="evenodd" d="M23.6932 83.4047C23.6721 83.0673 23.5606 82.7418 23.3706 82.4622C23.1805 82.1827 22.9188 81.9593 22.6128 81.8156C22.4426 81.731 22.2912 81.6131 22.1674 81.4689C22.0435 81.3248 21.9499 81.1573 21.8919 80.9763C21.834 80.7953 21.8129 80.6045 21.8299 80.4152C21.847 80.2259 21.9018 80.042 21.9912 79.8743C22.0805 79.7066 22.2026 79.5585 22.3502 79.4387C22.4977 79.319 22.6678 79.2301 22.8504 79.1772C23.0329 79.1243 23.2242 79.1086 23.4129 79.1309C23.6016 79.1533 23.784 79.2132 23.9491 79.3072C25.2681 80.0086 26.2758 81.1838 26.5128 83.0461C26.5417 83.2337 26.5327 83.4253 26.4864 83.6094C26.4401 83.7935 26.3574 83.9664 26.2431 84.118C26.1289 84.2697 25.9854 84.3969 25.8212 84.4921C25.657 84.5874 25.4754 84.6488 25.2871 84.6728C25.0987 84.6967 24.9075 84.6827 24.7247 84.6316C24.5419 84.5804 24.3712 84.4932 24.2226 84.375C24.0741 84.2568 23.9507 84.1101 23.8598 83.9434C23.7688 83.7767 23.7122 83.5936 23.6932 83.4047Z" fill="black"/>
</svg>
