<svg width="101" height="100" viewBox="0 0 101 100" fill="none" xmlns="http://www.w3.org/2000/svg">
<path fill-rule="evenodd" clip-rule="evenodd" d="M71.0939 60.1759C68.6314 58.397 66.7518 55.9279 65.6925 53.0809C64.6333 50.2338 64.4421 47.1366 65.143 44.1808C65.844 41.2251 67.4057 38.5435 69.6306 36.4753C71.8555 34.407 74.6438 33.0449 77.6428 32.5612C80.6418 32.0775 83.7169 32.4939 86.4793 33.7578C89.2416 35.0217 91.5672 37.0762 93.1619 39.6617C94.7566 42.2472 95.5489 45.2475 95.4385 48.2832C95.3281 51.3189 94.32 54.2538 92.5418 56.7166C90.1556 60.0185 86.5559 62.2377 82.534 62.8863C78.5121 63.535 74.3972 62.5601 71.0939 60.1759ZM90.2356 55.0549C91.6852 53.0477 92.5071 50.6558 92.5973 48.1815C92.6875 45.7072 92.0419 43.2618 90.7422 41.1544C89.4425 39.047 87.5471 37.3724 85.2956 36.3423C83.0441 35.3122 80.5377 34.9728 78.0934 35.3672C75.649 35.7615 73.3765 36.8718 71.5632 38.5577C69.7499 40.2436 68.4773 42.4294 67.9063 44.8385C67.3353 47.2477 67.4916 49.7721 68.3553 52.0925C69.219 54.4129 70.7515 56.425 72.7588 57.8744C75.4506 59.8171 78.8037 60.6113 82.0809 60.0826C85.3581 59.5539 88.2913 57.7455 90.2356 55.0549Z" fill="black"/>
<path fill-rule="evenodd" clip-rule="evenodd" d="M38.6462 65.1632C34.6547 62.2826 31.9241 57.9772 31.0198 53.1387C30.1154 48.3002 31.1067 43.2992 33.7883 39.1715C36.4699 35.0437 40.6363 32.1054 45.4248 30.965C50.2132 29.8247 55.2569 30.5696 59.5112 33.0456C59.8294 33.2391 60.0589 33.5497 60.1505 33.9107C60.2421 34.2717 60.1884 34.6542 60.0009 34.976C59.8134 35.2978 59.5071 35.5332 59.1479 35.6315C58.7887 35.7298 58.4053 35.6833 58.08 35.5019C55.5965 34.0583 52.776 33.2955 49.9034 33.2903C47.0308 33.2851 44.2076 34.0378 41.7188 35.4723C39.23 36.9069 37.1637 38.9725 35.7284 41.4608C34.2931 43.9492 33.5396 46.7721 33.5439 49.6446C33.5483 52.5172 34.3103 55.3378 35.7532 57.8218C37.196 60.3058 39.2685 62.3652 41.7616 63.7922C44.2547 65.2192 47.0802 65.9633 49.9528 65.9495C52.8254 65.9356 55.6435 65.1642 58.1227 63.7132C58.284 63.6159 58.463 63.5517 58.6493 63.5242C58.8356 63.4967 59.0256 63.5065 59.2081 63.553C59.3906 63.5996 59.562 63.6819 59.7124 63.7953C59.8628 63.9086 59.9892 64.0508 60.0843 64.2134C60.1793 64.376 60.241 64.5559 60.2659 64.7426C60.2909 64.9293 60.2784 65.119 60.2293 65.3009C60.1803 65.4827 60.0956 65.653 59.9801 65.8018C59.8647 65.9507 59.7209 66.0751 59.5569 66.1678C56.3485 68.0432 52.6646 68.9466 48.9525 68.7683C45.2404 68.59 41.66 67.3376 38.6462 65.1632Z" fill="black"/>
<path fill-rule="evenodd" clip-rule="evenodd" d="M85.5991 35.3266C85.449 35.2156 85.3222 35.076 85.2261 34.916C85.1299 34.7559 85.0662 34.5785 85.0386 34.3938C85.011 34.2091 85.0201 34.0208 85.0653 33.8397C85.1105 33.6585 85.191 33.488 85.3021 33.3379C85.8622 32.5784 86.2429 31.7018 86.4156 30.774C86.5882 29.8463 86.5484 28.8914 86.2991 27.9812C86.0498 27.071 85.5974 26.2292 84.9761 25.5189C84.3547 24.8086 83.5804 24.2484 82.7114 23.8803C81.8425 23.5122 80.9014 23.3458 79.9589 23.3936C79.0163 23.4414 78.0969 23.7022 77.2696 24.1563C76.4424 24.6105 75.7288 25.2462 75.1824 26.0157C74.6361 26.7852 74.2713 27.6685 74.1154 28.5992C74.085 28.7834 74.0186 28.9598 73.92 29.1184C73.8215 29.2769 73.6926 29.4145 73.5409 29.5233C73.3891 29.632 73.2175 29.7098 73.0357 29.7522C72.8539 29.7947 72.6655 29.8009 72.4813 29.7705C72.2971 29.7401 72.1206 29.6737 71.9621 29.5751C71.8035 29.4766 71.6659 29.3477 71.5572 29.196C71.4484 29.0443 71.3706 28.8726 71.3282 28.6908C71.2858 28.509 71.2796 28.3206 71.31 28.1364C71.5339 26.7795 72.0628 25.4912 72.8568 24.3684C73.6508 23.2456 74.6893 22.3176 75.894 21.6543C77.0987 20.9911 78.4382 20.6098 79.8116 20.5393C81.185 20.4688 82.5565 20.7108 83.8228 21.2472C85.0891 21.7836 86.2172 22.6003 87.1221 23.6359C88.0269 24.6715 88.685 25.8989 89.0467 27.2256C89.4085 28.5524 89.4644 29.944 89.2103 31.2955C88.9562 32.647 88.3988 33.9233 87.5799 35.0281C87.356 35.3292 87.0221 35.5296 86.651 35.5855C86.2799 35.6414 85.9018 35.5484 85.5991 35.3266Z" fill="black"/>
<path fill-rule="evenodd" clip-rule="evenodd" d="M87.3367 47.7713C86.8628 44.0308 85.0052 41.9189 82.3862 40.5226C82.2184 40.4365 82.0693 40.3179 81.9478 40.1736C81.8262 40.0294 81.7346 39.8624 81.6783 39.6824C81.6219 39.5024 81.6019 39.313 81.6195 39.1252C81.637 38.9374 81.6918 38.7549 81.7805 38.5885C81.8693 38.4221 81.9903 38.275 82.1365 38.1558C82.2827 38.0366 82.4512 37.9477 82.632 37.8942C82.8129 37.8408 83.0027 37.8238 83.1902 37.8444C83.3777 37.865 83.5592 37.9227 83.7242 38.0142C87.0713 39.7975 89.5497 42.6613 90.1579 47.4111C90.1815 47.5963 90.1685 47.7844 90.1194 47.9646C90.0704 48.1448 89.9863 48.3136 89.8721 48.4613C89.7578 48.609 89.6156 48.7327 89.4535 48.8255C89.2914 48.9182 89.1126 48.9781 88.9274 49.0017C88.5533 49.0495 88.1755 48.9467 87.8772 48.7159C87.5789 48.4852 87.3845 48.1454 87.3367 47.7713Z" fill="black"/>
<path fill-rule="evenodd" clip-rule="evenodd" d="M10.0811 80.7259C8.99539 76.798 9.51357 72.5998 11.5218 69.0539C13.53 65.5079 16.8639 62.9043 20.7908 61.8151C21.1542 61.7146 21.5427 61.7626 21.8708 61.9484C22.1989 62.1343 22.4397 62.4429 22.5402 62.8063C22.6408 63.1698 22.5928 63.5582 22.4069 63.8863C22.221 64.2144 21.9125 64.4552 21.549 64.5557C19.3531 65.1645 17.3648 66.3608 15.7985 68.016C14.2322 69.6711 13.1472 71.7222 12.6604 73.9483C12.1736 76.1745 12.3035 78.4912 13.036 80.649C13.7685 82.8068 15.0759 84.7239 16.8174 86.1936C18.5588 87.6633 20.6683 88.63 22.9186 88.9896C25.1688 89.3491 27.4745 89.0878 29.5872 88.2339C31.6999 87.38 33.5396 85.9658 34.9081 84.1437C36.2765 82.3216 37.1218 80.1607 37.353 77.8937C37.3671 77.7043 37.4191 77.5196 37.5058 77.3506C37.5925 77.1816 37.7123 77.0317 37.8579 76.9097C38.0035 76.7878 38.1721 76.6962 38.3537 76.6405C38.5353 76.5848 38.7263 76.5661 38.9152 76.5854C39.1042 76.6047 39.2874 76.6617 39.454 76.753C39.6205 76.8443 39.7671 76.9681 39.8851 77.117C40.003 77.2659 40.0899 77.4369 40.1406 77.62C40.1914 77.803 40.2049 77.9944 40.1804 78.1827C39.8171 81.7474 38.2197 85.073 35.6642 87.5847C33.1088 90.0963 29.756 91.6361 26.1855 91.9378C22.6151 92.2394 19.0515 91.284 16.1108 89.2367C13.1702 87.1895 11.0373 84.179 10.0811 80.7259Z" fill="black"/>
<path fill-rule="evenodd" clip-rule="evenodd" d="M61.5011 77.3863C61.3382 77.0467 61.3168 76.6564 61.4415 76.301C61.5662 75.9456 61.8268 75.6542 62.1661 75.4908C68.3339 72.5084 73.2594 67.4561 76.084 61.2145C76.2394 60.871 76.525 60.6033 76.8778 60.4703C77.2306 60.3373 77.6218 60.3499 77.9653 60.5053C78.3088 60.6607 78.5765 60.9463 78.7095 61.2991C78.8426 61.6519 78.83 62.0431 78.6745 62.3866C75.5747 69.2367 70.169 74.7815 63.3998 78.0544C63.2313 78.1354 63.0484 78.1824 62.8618 78.1927C62.6751 78.203 62.4882 78.1763 62.3118 78.1142C62.1355 78.0522 61.973 77.9559 61.8339 77.831C61.6948 77.7061 61.5817 77.555 61.5011 77.3863Z" fill="black"/>
<path fill-rule="evenodd" clip-rule="evenodd" d="M30.7397 75.1666C16.4127 64.8204 13.1824 44.7929 23.5304 30.4645C33.8783 16.1362 53.9046 12.9075 68.2332 23.2553C71.9243 25.9173 75.0029 29.3384 77.2622 33.2888C77.4494 33.6162 77.499 34.0046 77.3999 34.3685C77.3008 34.7324 77.0612 35.0421 76.7338 35.2293C76.4064 35.4166 76.018 35.4661 75.6541 35.367C75.2902 35.2679 74.9805 35.0283 74.7933 34.7009C72.733 31.1016 69.9258 27.9852 66.5604 25.5615C53.5065 16.133 35.2558 19.0758 25.8287 32.131C16.4016 45.1862 19.3523 63.4335 32.3983 72.862C38.4934 77.2745 46.062 79.152 53.5128 78.0999C53.6977 78.0741 53.886 78.0849 54.0667 78.1318C54.2475 78.1787 54.4172 78.2608 54.5662 78.3733C54.7152 78.4858 54.8406 78.6265 54.9353 78.7875C55.0299 78.9485 55.0919 79.1265 55.1177 79.3114C55.1435 79.4963 55.1327 79.6846 55.0858 79.8653C55.0389 80.046 54.9568 80.2157 54.8443 80.3648C54.7318 80.5138 54.591 80.6392 54.4301 80.7338C54.2691 80.8285 54.0911 80.8904 53.9061 80.9163C45.731 82.0681 37.4275 80.0073 30.7397 75.1666Z" fill="black"/>
<path fill-rule="evenodd" clip-rule="evenodd" d="M8.86691 31.6201C7.25955 29.7366 6.13715 27.4886 5.59749 25.072C5.05782 22.6554 5.11727 20.1435 5.77064 17.7551C6.42402 15.3668 7.6515 13.1744 9.34615 11.369C11.0408 9.56367 13.1512 8.20006 15.4935 7.39701C17.8358 6.59396 20.339 6.37584 22.7849 6.76164C25.2308 7.14744 27.5453 8.12547 29.5267 9.61051C31.5081 11.0955 33.0963 13.0426 34.1529 15.2819C35.2096 17.5212 35.7026 19.985 35.5891 22.4585C35.5806 22.6452 35.5354 22.8284 35.4561 22.9976C35.3768 23.1668 35.2649 23.3188 35.1269 23.4448C34.9889 23.5708 34.8274 23.6683 34.6516 23.7319C34.4759 23.7955 34.2894 23.8239 34.1027 23.8154C33.916 23.8069 33.7328 23.7617 33.5636 23.6824C33.3943 23.6031 33.2424 23.4912 33.1164 23.3532C32.9904 23.2152 32.8928 23.0537 32.8292 22.8779C32.7656 22.7022 32.7373 22.5157 32.7458 22.329C32.8367 20.319 32.4349 18.3172 31.5752 16.498C30.7156 14.6788 29.4242 13.0974 27.8137 11.8914C26.2031 10.6854 24.3221 9.89137 22.3344 9.57854C20.3468 9.2657 18.3128 9.44352 16.4097 10.0965C14.5065 10.7495 12.7918 11.8578 11.4149 13.325C10.038 14.7922 9.04068 16.5737 8.50977 18.5145C7.97885 20.4552 7.93045 22.4964 8.36877 24.4601C8.8071 26.4238 9.71886 28.2506 11.0247 29.7814C11.1628 29.9203 11.2707 30.0863 11.3417 30.2689C11.4127 30.4515 11.4452 30.6467 11.4371 30.8425C11.429 31.0382 11.3806 31.2302 11.2948 31.4063C11.2091 31.5824 11.0878 31.7389 10.9387 31.866C10.7896 31.993 10.6159 32.0879 10.4284 32.1446C10.2408 32.2014 10.0436 32.2187 9.84909 32.1956C9.65456 32.1726 9.46689 32.1095 9.29787 32.0105C9.12885 31.9114 8.98213 31.7785 8.86691 31.6201Z" fill="black"/>
<path fill-rule="evenodd" clip-rule="evenodd" d="M11.6372 44.9291C10.4082 44.0395 9.38388 42.897 8.63307 41.5786C7.88227 40.2602 7.4224 38.7963 7.28434 37.2854C7.14628 35.7745 7.33324 34.2515 7.83267 32.8188C8.33209 31.3862 9.13241 30.077 10.1798 28.9793C11.2272 27.8817 12.4975 27.0209 13.9052 26.4549C15.3129 25.8889 16.8254 25.6308 18.3412 25.6979C19.8569 25.765 21.3408 26.1558 22.6929 26.844C24.0451 27.5322 25.2343 28.5018 26.1806 29.6878C26.408 29.9834 26.5102 30.3565 26.4651 30.7267C26.4199 31.0969 26.2311 31.4345 25.9394 31.6668C25.6476 31.8991 25.2762 32.0075 24.9053 31.9685C24.5344 31.9295 24.1937 31.7463 23.9565 31.4585C23.1121 30.3974 22.0053 29.5751 20.7456 29.0731C19.4859 28.571 18.1169 28.4065 16.7741 28.5958C15.4313 28.7852 14.1612 29.3219 13.0895 30.1527C12.0177 30.9836 11.1815 32.0798 10.6635 33.333C10.1454 34.5863 9.96357 35.953 10.1359 37.2981C10.3082 38.6432 10.8287 39.92 11.6459 41.0021C12.4631 42.0843 13.5487 42.9344 14.7952 43.4683C16.0418 44.0022 17.4061 44.2014 18.7533 44.0461C18.9395 44.0231 19.1285 44.0371 19.3093 44.0874C19.4901 44.1377 19.6591 44.2233 19.8066 44.3393C19.9541 44.4552 20.0773 44.5993 20.1689 44.763C20.2605 44.9268 20.3187 45.1071 20.3403 45.2935C20.3619 45.4799 20.3464 45.6687 20.2946 45.8491C20.2429 46.0295 20.1559 46.1978 20.0388 46.3444C19.9216 46.491 19.7766 46.613 19.6121 46.7032C19.4476 46.7935 19.2669 46.8503 19.0803 46.8704C16.4436 47.1798 13.7869 46.4868 11.6372 44.9291Z" fill="black"/>
<path fill-rule="evenodd" clip-rule="evenodd" d="M26.4806 19.1787C25.5092 16.4776 23.7953 15.2297 21.6281 14.6232C21.4482 14.5731 21.28 14.488 21.133 14.3729C20.986 14.2578 20.8632 14.1149 20.7714 13.9523C20.6797 13.7897 20.6208 13.6106 20.5983 13.4253C20.5757 13.24 20.5899 13.052 20.64 12.8722C20.6901 12.6923 20.7752 12.5241 20.8903 12.3771C21.0054 12.2302 21.1483 12.1073 21.3109 12.0155C21.4735 11.9238 21.6526 11.865 21.8379 11.8424C22.0232 11.8199 22.2112 11.8341 22.391 11.8842C25.3591 12.7119 27.8406 14.5584 29.1549 18.2167C29.2246 18.3937 29.258 18.5829 29.2533 18.7731C29.2485 18.9633 29.2056 19.1506 29.1271 19.3239C29.0486 19.4972 28.9362 19.653 28.7964 19.7821C28.6566 19.9111 28.4923 20.0108 28.3133 20.0752C28.1343 20.1396 27.9441 20.1674 27.7542 20.157C27.5642 20.1466 27.3782 20.0981 27.2073 20.0145C27.0364 19.9309 26.8841 19.8138 26.7592 19.6703C26.6344 19.5267 26.5397 19.3595 26.4806 19.1787Z" fill="black"/>
<path fill-rule="evenodd" clip-rule="evenodd" d="M74.894 87.6833C73.6606 86.1179 72.9191 84.2219 72.7633 82.2351C72.6074 80.2483 73.0443 78.2599 74.0186 76.5214C74.9929 74.7828 76.4608 73.3722 78.2368 72.468C80.0128 71.5638 82.017 71.2065 83.9961 71.4413C85.9751 71.6761 87.8401 72.4926 89.3552 73.7873C90.8702 75.0821 91.9673 76.7971 92.5076 78.7153C93.0479 80.6336 93.0073 82.669 92.3908 84.5642C91.7743 86.4593 90.6097 88.1291 89.0442 89.3624C86.9447 91.0152 84.2749 91.7667 81.6215 91.4519C78.9682 91.137 76.5484 89.7815 74.894 87.6833ZM87.2845 87.1288C88.4083 86.2436 89.2444 85.045 89.6869 83.6846C90.1295 82.3242 90.1587 80.8631 89.7709 79.4861C89.383 78.1091 88.5956 76.878 87.508 75.9486C86.4205 75.0191 85.0817 74.4331 83.6611 74.2645C82.2404 74.0959 80.8017 74.3524 79.5268 75.0015C78.252 75.6506 77.1983 76.6632 76.4989 77.9112C75.7996 79.1592 75.486 80.5866 75.5979 82.0128C75.7098 83.439 76.2421 84.8 77.1276 85.9236C78.3152 87.4294 80.0521 88.4022 81.9566 88.6282C83.8611 88.8542 85.7774 88.3149 87.2845 87.1288Z" fill="black"/>
<path fill-rule="evenodd" clip-rule="evenodd" d="M84.7519 80.6448C84.5149 79.6828 84.0174 79.2469 83.3034 78.9641C83.1251 78.899 82.9617 78.799 82.8227 78.6698C82.6838 78.5405 82.5721 78.3848 82.4943 78.2118C82.4164 78.0387 82.374 77.8518 82.3695 77.6621C82.3651 77.4724 82.3986 77.2837 82.4682 77.1072C82.5378 76.9307 82.642 76.7699 82.7748 76.6343C82.9075 76.4987 83.0661 76.391 83.2411 76.3176C83.4161 76.2442 83.604 76.2066 83.7937 76.207C83.9835 76.2074 84.1712 76.2458 84.3459 76.3199C85.8276 76.9043 87.0313 78.0211 87.5051 79.9656C87.5952 80.3317 87.5361 80.7186 87.3409 81.0412C87.1457 81.3638 86.8303 81.5957 86.4642 81.6857C86.098 81.7758 85.7111 81.7167 85.3885 81.5215C85.0659 81.3263 84.8341 81.0109 84.744 80.6448H84.7519Z" fill="black"/>
</svg>
