<svg width="871" height="445" viewBox="0 0 871 445" fill="none" xmlns="http://www.w3.org/2000/svg">
<path d="M300.94 871C245.883 871 194.815 859.83 151.408 837.171C77.2006 798.395 28.2081 727.066 9.69621 630.525C-10.0924 526.803 0.599844 412.869 40.0174 309.466C81.0309 201.755 151.089 113.192 237.265 60.0549C314.824 12.1826 411.692 -8.08304 509.996 2.92743C607.822 13.9379 697.988 54.789 763.578 118.299C878.479 229.201 902.098 371.699 830.125 519.463C771.397 640.418 652.666 754.672 520.37 817.703C446.322 853.128 370.519 871 300.94 871ZM457.812 21.4378C381.69 21.4378 308.759 41.0651 248.117 78.4056C165.771 129.15 98.7448 214.042 59.4868 317.285C21.6651 416.858 11.2921 526.644 30.2827 626.376C47.6775 717.492 91.5635 781.959 160.824 818.022C251.947 865.575 386.318 857.915 511.433 798.235C639.58 737.119 754.481 626.536 811.453 509.729C859.169 411.752 887.256 266.86 749.215 133.777C686.817 73.6185 600.96 34.6823 507.603 24.1505C491.165 22.3952 474.409 21.4378 457.812 21.4378ZM297.588 842.277C248.596 842.277 203.114 832.224 164.494 812.118C98.7448 777.81 55.3376 714.46 38.9003 629.248C21.3459 537.654 30.6019 436.804 65.0723 345.21C74.9666 319.04 86.7759 293.828 100.341 270.052C136.088 207.978 184.283 156.756 239.659 122.288C308.6 79.2035 394.776 60.6931 482.069 69.9483C568.724 79.3631 648.676 115.267 706.925 171.277C760.865 223.137 792.143 282.179 800.282 346.806C807.464 403.933 796.293 464.41 767.248 526.324C715.383 636.748 609.418 739.991 490.687 795.682C425.576 826.639 358.869 842.277 297.588 842.277ZM438.023 86.8629C369.721 86.8629 303.972 104.735 249.713 138.724C196.89 171.596 150.929 220.425 116.778 279.786C103.692 302.445 92.2018 326.859 82.7863 352.072C49.433 440.315 40.3366 537.335 57.4122 625.419C72.892 705.843 111.831 762.97 173.112 794.884C254.819 837.649 370.678 831.267 483.027 778.129C596.173 724.992 701.18 622.865 750.492 517.867C791.665 430.422 815.124 301.647 694.158 185.319C638.782 132.181 562.819 98.033 480.154 89.097C466.111 87.6608 451.907 86.8629 438.023 86.8629ZM294.077 813.235C250.989 813.235 210.933 804.458 177.101 786.746C120.129 756.746 82.3075 701.854 67.9449 627.972C52.4651 548.505 60.2848 460.74 90.1272 380.795C98.5853 357.816 108.958 335.636 120.768 314.732C151.727 260.158 193.698 214.999 242.212 184.361C302.535 146.064 377.86 129.309 454.301 136.969C529.945 144.788 599.524 175.904 650.432 224.414C761.822 331.008 741.395 451.166 704.691 533.186C660.166 632.44 566.968 724.513 461.483 773.501C404.83 799.99 347.06 813.235 294.077 813.235ZM418.075 152.288C357.433 152.288 299.184 168.404 250.989 198.883C204.869 228.084 164.813 271.009 135.29 323.189C123.959 343.136 114.065 364.518 105.926 386.699C77.2008 463.613 69.7003 548.026 84.5417 624.461C98.1065 694.035 131.939 743.502 184.921 771.427C255.777 808.607 356.635 803.661 454.62 758.023C556.755 710.63 646.761 621.748 689.53 526.165C724 449.251 743.31 336.593 639.101 237.02C590.906 191.064 524.678 161.543 452.705 154.202C441.056 152.926 429.565 152.288 418.075 152.288ZM290.567 784.352C253.383 784.352 218.913 776.693 189.868 761.374C141.514 735.842 109.437 689.247 96.9894 626.536C83.7438 559.196 90.1272 484.516 115.182 416.379C122.363 396.592 130.981 377.444 141.035 359.412C167.207 312.338 202.954 273.243 244.446 246.595C296.312 212.925 360.944 197.925 426.374 204.148C490.687 210.212 550.052 236.382 593.779 277.552C667.826 348.082 684.423 438.879 641.814 540.207C604.631 628.451 524.2 709.513 431.8 751.64C384.084 773.342 335.41 784.352 290.567 784.352ZM397.808 217.712C345.145 217.712 294.397 232.074 252.426 259.201C213.008 284.573 178.857 321.913 153.802 366.752C144.227 384.146 135.769 402.496 128.906 421.486C104.809 487.07 98.5853 558.877 111.352 623.504C123.002 682.386 151.727 724.353 196.571 748.13C256.575 779.725 342.272 775.895 425.895 737.917C513.667 697.864 593.14 618.078 628.409 534.303C668.943 437.921 653.942 355.263 583.884 288.562C542.552 249.467 486.218 224.893 425.097 218.989C416.001 218.191 406.904 217.712 397.808 217.712ZM287.215 755.47C255.937 755.47 227.052 749.087 202.954 736.162C163.217 714.939 136.726 676.641 126.194 625.099C115.023 570.047 120.129 508.612 140.237 451.804C146.142 435.049 153.323 418.932 161.462 403.933C182.846 364.359 212.529 331.327 247 308.509C290.407 279.626 344.187 266.222 398.606 270.849C451.907 275.318 501.06 296.381 537.286 330.37C598.407 387.656 612.45 460.421 579.097 546.909C549.254 624.302 481.59 694.194 402.436 729.3C363.338 746.853 323.601 755.47 287.215 755.47ZM377.7 282.977C333.016 282.977 289.609 295.583 253.862 319.359C220.987 341.061 192.9 372.497 172.473 410.156C164.654 424.517 157.792 439.996 152.206 456.113C132.577 510.846 127.789 569.888 138.482 622.546C148.216 670.737 171.835 705.205 208.699 724.832C257.852 751.002 328.388 748.289 397.489 717.651C472.494 684.301 539.201 615.525 567.447 542.441C598.566 461.379 585.64 393.401 528.828 340.104C494.676 308.189 448.077 288.243 397.648 283.934C390.946 283.296 384.243 282.977 377.7 282.977ZM283.864 726.747C258.65 726.747 235.19 721.481 215.881 711.109C184.283 694.035 163.856 664.833 155.238 623.982C146.301 581.217 149.812 532.707 165.292 487.708C169.92 474.144 175.506 461.059 181.729 448.932C198.326 417.017 221.626 390.05 249.394 371.061C284.343 346.965 327.431 335.317 370.678 338.348C412.809 341.221 451.907 357.338 480.633 383.827C528.349 427.868 539.998 483.559 516.22 554.25C493.878 620.791 438.981 679.513 372.913 707.598C342.591 720.204 312.111 726.747 283.864 726.747ZM357.433 348.402C320.728 348.402 284.822 359.412 255.139 379.837C228.967 397.869 206.625 423.56 190.985 453.879C184.921 465.527 179.655 477.974 175.186 491.059C160.345 534.303 156.994 580.738 165.452 621.589C173.271 659.248 191.943 686.056 220.668 701.534C258.969 722.119 314.345 720.523 368.763 697.386C432.119 670.418 484.782 614.089 506.326 550.42C528.508 484.197 517.816 432.177 473.611 391.486C446.641 366.593 409.777 351.433 370.04 348.721C365.731 348.561 361.582 348.402 357.433 348.402ZM280.672 698.024C261.362 698.024 243.489 694.035 228.967 686.056C205.986 673.45 190.985 652.067 184.442 622.546C177.74 591.909 179.814 556.484 190.347 523.133C193.698 512.761 197.528 502.708 201.997 493.453C213.806 469.038 231.041 448.134 251.628 432.975C277.959 413.666 310.196 403.773 342.591 405.05C373.551 406.326 402.436 417.496 423.82 436.645C458.131 467.283 467.547 506.857 453.184 560.951C438.502 616.642 396.372 664.195 343.07 685.258C322.005 693.715 300.62 698.024 280.672 698.024ZM337.006 413.666C308.281 413.666 279.874 422.922 256.575 440.155C236.946 454.517 220.668 474.304 209.497 497.442C205.188 506.378 201.358 515.952 198.326 526.005C188.113 557.92 186.198 591.589 192.581 620.951C198.486 647.918 212.051 667.386 232.956 678.716C260.565 693.715 300.62 693.396 340.357 677.599C391.105 657.493 431.321 612.015 445.364 559.037C458.77 508.452 450.152 471.751 418.554 443.506C398.606 425.634 371.636 415.262 342.432 413.986C340.676 413.667 338.761 413.666 337.006 413.666ZM277.8 669.62C264.554 669.62 252.426 666.748 242.372 661.163C227.85 653.025 218.115 639.62 213.487 621.27C208.859 602.281 209.497 580.738 215.402 558.877C217.317 551.696 219.711 544.835 222.424 538.292C229.445 521.378 240.457 506.537 254.181 495.367C271.736 480.846 293.28 472.708 314.824 472.389C334.772 472.07 353.284 478.293 367.327 489.942C394.935 512.92 393.818 545.473 390.627 567.973C384.243 612.174 354.082 649.674 313.866 663.397C301.418 667.546 289.29 669.62 277.8 669.62ZM314.824 478.612C294.716 478.931 274.448 486.591 258.011 500.314C245.085 511.005 234.712 525.048 228.169 540.845C225.615 547.069 223.381 553.611 221.466 560.632C215.881 581.536 215.242 601.961 219.551 619.834C223.7 636.429 232.318 648.397 245.404 655.737C262.639 665.312 286.896 665.95 311.791 657.333C349.773 644.248 378.179 608.823 384.243 567.015C389.19 533.346 382.647 511.005 363.178 494.889C350.571 484.038 333.335 478.293 314.824 478.612ZM275.566 642.014C265.831 642.014 257.054 638.663 250.83 632.599C244.766 626.695 237.903 615.206 240.616 594.621C241.095 590.951 241.893 587.121 242.851 583.132C248.436 561.43 266.629 543.399 286.896 539.409C296.95 537.335 305.887 539.09 313.068 544.516C321.207 550.579 326.154 561.111 327.75 574.834C331.899 612.334 309.078 636.589 284.343 641.376C281.151 641.855 278.279 642.014 275.566 642.014ZM244.606 595.1C242.691 610.1 245.883 621.908 253.702 629.567C260.884 636.589 271.895 639.301 283.545 637.067C313.706 631.323 326.473 601.642 323.601 575.153C322.164 562.547 317.696 553.132 310.674 547.867C304.451 543.239 296.631 541.803 287.694 543.558C268.863 547.388 252.107 563.983 246.84 584.249C245.723 587.919 244.925 591.589 244.606 595.1Z" fill="white" fill-opacity="0.15"/>
</svg>
