<svg width="621" height="575" viewBox="0 0 621 575" fill="none" xmlns="http://www.w3.org/2000/svg">
<path d="M50.9396 871C-4.11731 871 -55.1846 859.83 -98.5918 837.171C-172.799 798.395 -221.792 727.066 -240.304 630.525C-260.092 526.803 -249.4 412.869 -209.983 309.466C-168.969 201.755 -98.911 113.192 -12.7349 60.0549C64.8235 12.1826 161.692 -8.08304 259.996 2.92743C357.822 13.9379 447.988 54.789 513.578 118.299C628.479 229.201 652.098 371.699 580.125 519.463C521.397 640.418 402.666 754.672 270.37 817.703C196.322 853.128 120.519 871 50.9396 871ZM207.812 21.4378C131.69 21.4378 58.7593 41.0651 -1.88313 78.4056C-84.2292 129.15 -151.255 214.042 -190.513 317.285C-228.335 416.858 -238.708 526.644 -219.717 626.376C-202.322 717.492 -158.437 781.959 -89.1763 818.022C1.94693 865.575 136.318 857.915 261.433 798.235C389.58 737.119 504.481 626.536 561.453 509.729C609.169 411.752 637.256 266.86 499.215 133.777C436.817 73.6185 350.96 34.6823 257.603 24.1505C241.165 22.3952 224.409 21.4378 207.812 21.4378ZM47.5883 842.277C-1.40436 842.277 -46.8862 832.224 -85.5058 812.118C-151.255 777.81 -194.662 714.46 -211.1 629.248C-228.654 537.654 -219.398 436.804 -184.928 345.21C-175.033 319.04 -163.224 293.828 -149.659 270.052C-113.912 207.978 -65.7173 156.756 -10.3412 122.288C58.5997 79.2035 144.776 60.6931 232.069 69.9483C318.724 79.3631 398.676 115.267 456.925 171.277C510.865 223.137 542.143 282.179 550.282 346.806C557.464 403.933 546.293 464.41 517.248 526.324C465.383 636.748 359.418 739.991 240.687 795.682C175.576 826.639 108.869 842.277 47.5883 842.277ZM188.023 86.8629C119.721 86.8629 53.9718 104.735 -0.287262 138.724C-53.11 171.596 -99.0706 220.425 -133.222 279.786C-146.308 302.445 -157.798 326.859 -167.214 352.072C-200.567 440.315 -209.663 537.335 -192.588 625.419C-177.108 705.843 -138.169 762.97 -76.8882 794.884C4.81946 837.649 120.678 831.267 233.027 778.129C346.173 724.992 451.18 622.865 500.492 517.867C541.665 430.422 565.124 301.647 444.158 185.319C388.782 132.181 312.819 98.033 230.154 89.097C216.11 87.6608 201.907 86.8629 188.023 86.8629ZM44.0775 813.235C0.989441 813.235 -39.0665 804.458 -72.8986 786.746C-129.871 756.746 -167.692 701.854 -182.055 627.972C-197.535 548.505 -189.715 460.74 -159.873 380.795C-151.415 357.816 -141.042 335.636 -129.232 314.732C-98.2727 260.158 -56.3017 214.999 -7.78777 184.361C52.5355 146.064 127.86 129.309 204.301 136.969C279.945 144.788 349.524 175.904 400.432 224.414C511.822 331.008 491.395 451.166 454.691 533.186C410.166 632.44 316.968 724.513 211.483 773.501C154.83 799.99 97.0598 813.235 44.0775 813.235ZM168.075 152.288C107.433 152.288 49.1842 168.404 0.98941 198.883C-45.1308 228.084 -85.1867 271.009 -114.71 323.189C-126.041 343.136 -135.935 364.518 -144.074 386.699C-172.799 463.613 -180.3 548.026 -165.458 624.461C-151.894 694.035 -118.061 743.502 -65.0789 771.427C5.77696 808.607 106.635 803.661 204.62 758.023C306.755 710.63 396.761 621.748 439.53 526.165C474 449.251 493.31 336.593 389.101 237.02C340.906 191.064 274.678 161.543 202.705 154.202C191.056 152.926 179.565 152.288 168.075 152.288ZM40.5666 784.352C3.38321 784.352 -31.0872 776.693 -60.1318 761.374C-108.486 735.842 -140.563 689.247 -153.011 626.536C-166.256 559.196 -159.873 484.516 -134.818 416.379C-127.637 396.592 -119.019 377.444 -108.965 359.412C-82.7929 312.338 -47.0458 273.243 -5.55359 246.595C46.3116 212.925 110.944 197.925 176.374 204.148C240.687 210.212 300.052 236.382 343.779 277.552C417.826 348.082 434.423 438.879 391.814 540.207C354.631 628.451 274.2 709.513 181.8 751.64C134.084 773.342 85.4101 784.352 40.5666 784.352ZM147.808 217.712C95.1448 217.712 44.3966 232.074 2.42569 259.201C-36.9919 284.573 -71.1432 321.913 -96.1981 366.752C-105.773 384.146 -114.231 402.496 -121.094 421.486C-145.191 487.07 -151.415 558.877 -138.648 623.504C-126.998 682.386 -98.2727 724.353 -53.4292 748.13C6.57492 779.725 92.2722 775.895 175.895 737.917C263.667 697.864 343.14 618.078 378.409 534.303C418.943 437.921 403.942 355.263 333.884 288.562C292.552 249.467 236.218 224.893 175.097 218.989C166.001 218.191 156.904 217.712 147.808 217.712ZM37.2153 755.47C5.93657 755.47 -22.9484 749.087 -47.0458 736.162C-86.7825 714.938 -113.274 676.641 -123.806 625.099C-134.977 570.047 -129.871 508.612 -109.763 451.804C-103.858 435.049 -96.6768 418.932 -88.538 403.933C-67.1535 364.359 -37.4706 331.327 -3.00021 308.509C40.407 279.626 94.1873 266.222 148.606 270.849C201.907 275.318 251.06 296.381 287.286 330.37C348.407 387.656 362.45 460.421 329.097 546.909C299.254 624.302 231.59 694.194 152.436 729.3C113.337 746.853 73.6008 755.47 37.2153 755.47ZM127.7 282.977C83.0163 282.977 39.6091 295.583 3.86195 319.359C-29.0126 341.061 -57.0997 372.497 -77.5266 410.156C-85.3463 424.517 -92.2084 439.996 -97.7939 456.113C-117.423 510.846 -122.211 569.888 -111.518 622.546C-101.784 670.737 -78.1649 705.205 -41.3007 724.832C7.85156 751.002 78.3883 748.289 147.489 717.651C222.494 684.301 289.201 615.525 317.447 542.441C348.566 461.379 335.64 393.401 278.828 340.104C244.676 308.189 198.077 288.243 147.648 283.934C140.946 283.296 134.243 282.977 127.7 282.977ZM33.864 726.747C8.64954 726.747 -14.8095 721.481 -34.1194 711.109C-65.7173 694.035 -86.1442 664.833 -94.7618 623.982C-103.699 581.217 -100.188 532.707 -84.7079 487.708C-80.0799 474.144 -74.4945 461.059 -68.2706 448.932C-51.6738 417.017 -28.3743 390.05 -0.606445 371.061C34.3427 346.965 77.4308 335.317 120.678 338.348C162.809 341.221 201.907 357.338 230.633 383.827C278.349 427.868 289.998 483.559 266.22 554.25C243.878 620.791 188.981 679.514 122.913 707.598C92.5914 720.204 62.1106 726.747 33.864 726.747ZM107.433 348.402C70.7282 348.402 34.8215 359.412 5.13864 379.837C-21.0334 397.869 -43.3753 423.56 -59.0147 453.879C-65.0789 465.527 -70.3452 477.974 -74.8136 491.059C-89.6551 534.303 -93.0063 580.738 -84.5483 621.589C-76.7286 659.248 -58.0572 686.056 -29.3318 701.534C8.96866 722.119 64.3448 720.523 118.763 697.386C182.119 670.418 234.782 614.089 256.326 550.42C278.508 484.197 267.816 432.177 223.611 391.486C196.641 366.593 159.777 351.433 120.04 348.721C115.731 348.561 111.582 348.402 107.433 348.402ZM30.6723 698.024C11.3625 698.024 -6.51111 694.035 -21.0334 686.056C-44.0137 673.45 -59.0147 652.067 -65.5577 622.546C-72.2603 591.909 -70.1857 556.484 -59.653 523.133C-56.3017 512.761 -52.4717 502.708 -48.0033 493.453C-36.194 469.038 -18.9588 448.134 1.62775 432.975C27.9593 413.666 60.1956 403.773 92.5914 405.05C123.551 406.326 152.436 417.496 173.82 436.645C208.131 467.283 217.547 506.857 203.184 560.951C188.502 616.642 146.372 664.195 93.0702 685.258C72.0049 693.715 50.6205 698.024 30.6723 698.024ZM87.0059 413.666C58.2805 413.666 29.8744 422.922 6.57492 440.155C-13.0541 454.517 -29.3318 474.304 -40.5028 497.442C-44.8116 506.378 -48.6416 515.952 -51.6738 526.005C-61.8872 557.92 -63.8022 591.589 -57.4188 620.951C-51.5142 647.918 -37.9494 667.386 -17.0437 678.716C10.5645 693.715 50.6205 693.396 90.3572 677.599C141.105 657.493 181.321 612.015 195.364 559.037C208.77 508.452 200.152 471.751 168.554 443.506C148.606 425.634 121.636 415.262 92.4318 413.986C90.6764 413.666 88.7614 413.666 87.0059 413.666ZM27.7998 669.62C14.5542 669.62 2.42567 666.748 -7.6282 661.163C-22.1505 653.025 -31.8852 639.62 -36.5132 621.27C-41.1411 602.281 -40.5028 580.738 -34.5981 558.877C-32.6831 551.696 -30.2893 544.835 -27.5764 538.292C-20.5546 521.378 -9.5432 506.537 4.18114 495.367C21.7355 480.846 43.2795 472.708 64.8236 472.389C84.7718 472.07 103.284 478.293 117.327 489.942C144.935 512.92 143.818 545.473 140.627 567.973C134.243 612.174 104.082 649.674 63.8661 663.397C51.4184 667.546 39.2899 669.62 27.7998 669.62ZM64.8236 478.612C44.7158 478.931 24.4485 486.591 8.0112 500.314C-4.91521 511.005 -15.2883 525.048 -21.8313 540.845C-24.3847 547.069 -26.6189 553.611 -28.5339 560.632C-34.1194 581.536 -34.7577 601.961 -30.4489 619.834C-26.2997 636.429 -17.6821 648.397 -4.59608 655.737C12.6391 665.312 36.8961 665.95 61.7914 657.333C99.7728 644.248 128.179 608.823 134.243 567.015C139.19 533.346 132.647 511.005 113.178 494.889C100.571 484.038 83.3355 478.293 64.8236 478.612ZM25.5656 642.014C15.8308 642.014 7.05365 638.663 0.829819 632.599C-5.23442 626.695 -12.0966 615.206 -9.38362 594.621C-8.90486 590.951 -8.10696 587.121 -7.14944 583.132C-1.56396 561.43 16.6288 543.399 36.8961 539.409C46.95 537.335 55.8868 539.09 63.0681 544.516C71.207 550.579 76.1541 561.111 77.75 574.834C81.8992 612.334 59.0785 636.589 34.3428 641.376C31.1511 641.854 28.2785 642.014 25.5656 642.014ZM-5.394 595.1C-7.30902 610.1 -4.11732 621.908 3.70236 629.567C10.8837 636.589 21.8951 639.301 33.5448 637.067C63.7065 631.323 76.4733 601.642 73.6007 575.153C72.1645 562.547 67.6961 553.132 60.6743 547.867C54.4505 543.239 46.6308 541.803 37.6941 543.558C18.863 547.388 2.10651 563.983 -3.15981 584.249C-4.2769 587.919 -5.07483 591.589 -5.394 595.1Z" fill="white" fill-opacity="0.1"/>
</svg>
